<?xml version="1.0" encoding="UTF-8" standalone="no"?><!DOCTYPE svg PUBLIC "-//W3C//DTD SVG 1.1//EN" "http://www.w3.org/Graphics/SVG/1.1/DTD/svg11.dtd"><svg width="100%" height="100%" viewBox="0 0 1557 2148" version="1.1" xmlns="http://www.w3.org/2000/svg" xmlns:xlink="http://www.w3.org/1999/xlink" xml:space="preserve" xmlns:serif="http://www.serif.com/" style="fill-rule:evenodd;clip-rule:evenodd;stroke-linecap:round;stroke-linejoin:round;stroke-miterlimit:2;"><g><g><path d="M311.505,1599.62l24.738,13.651l5.722,8.167l-4.471,10.55l-14.544,8.941l-26.348,9.539l-31.892,8.762l-32.01,4.948l-29.687,-0.119l-26.407,-4.59l-23.546,-9.3l-4.172,-3.04l-13.89,-9.238l-4.112,-3.578l-3.16,-3.338m377.809,-504.242l-19.789,-10.075l-0.239,-2.981l-4.053,-2.265m192.243,944.704l-31.654,-11.268l-24.142,-16.988l-16.99,-10.789l-18.06,-16.274l-18.062,-18.599l-20.804,-18.18l-3.04,-14.606l3.933,-40.474l0.657,-38.925l-0.239,-0.299m-460.847,-849.207l-1.55,0.535l-1.789,-0.416l-1.966,-2.624l-4.53,-2.622l-3.1,-1.073l-2.802,-3.458l-3.159,-1.729l-4.59,0.478l-7.451,-11.147l-0.358,-0.477m71.532,447.196l1.013,0.595l0.835,1.015l1.132,3.934l-2.146,16.392l-4.589,14.545m283.208,-71.77l-47.093,-41.49l-36.183,-35.109l-32.189,-26.586l-29.925,-25.693l-30.223,-17.644l-31.532,-15.261l-31.415,-9.12l-29.508,-12.696l-24.201,-9.539l-20.268,-9.894l-12.338,-5.366l-3.339,-4.411l6.021,-12.042l0.714,-12.994l8.942,-34.276l12.161,-6.735l0.477,-1.491l0.715,-2.385l7.391,-26.526l0.477,-1.55l5.544,-18.837l4.172,-14.247l1.61,-7.927l-0.237,-9.419m240.049,69.206l4.829,6.379m-307.351,-124.167l5.425,8.762m491.785,887.955l0.774,2.145l4.114,17.942l18.538,80.415l0.776,3.517m-52.338,-860.295l3.934,2.801m-93.648,20.149l-2.266,-2.087l-8.166,-7.093l-5.901,-5.185l-8.227,-8.287l0.716,-9.596l0.358,-14.963l-0.597,-16.155l-0.833,-12.339l7.688,-3.815l6.737,3.099l1.908,-0.714l19.015,8.464l4.888,4.471l2.205,3.1m-407.912,-171.619l-5.247,1.908l-4.648,-3.099l1.311,-4.054l-0.418,-1.788m1379.38,150.754l-30.044,15.319l-18.12,20.625l-22.175,5.485l-12.877,11.326l-10.909,1.311l-6.616,-3.219l-20.863,-10.074l-2.027,-1.371l-17.585,-11.803l-3.458,-2.324l-4.292,-8.167l-0.953,-1.848l-0.894,-1.55l-10.254,-7.689l-3.158,-2.325l-7.154,-4.949l-0.239,-0.117m-1158.29,93.886l-8.941,18.06m39.879,-158.502l-6.855,-0.418l-0.716,-0.298l-0.597,-0.239l-6.02,-5.603l-0.655,-0.536l-5.484,-5.067l-7.929,-7.988l0.478,-9.358l0.119,-14.487l-0.656,-15.617l-0.06,-0.835l-1.192,-1.013l-7.749,-10.79l-0.657,-0.953m0.597,67.181l7.929,0.655m-45.663,-28.672l-0.059,0.12l-4.947,10.252m131.618,314.087l11.982,-33.739l11.685,-35.112l19.254,-41.786l20.326,-39.462l23.725,-29.031l24.441,-10.073l22.889,-6.439l13.293,-4.53l9.598,-3.695l9.835,-4.055l10.016,-2.98l7.511,-2.503l1.132,-0.834l-1.43,-7.214l0.535,-1.252l0.06,-0.06l0.059,-3.217l1.312,-4.174l1.55,-2.861l1.967,-2.921l0.478,-0.655l1.609,-2.385m-289.885,-59.67l-0.834,0.059l-0.716,-0.476l-2.563,-1.49l-9.835,-6.259m1190.6,403.68l15.677,-11.207m-1189.4,-382.578l-2.742,-0.954l-1.013,-0.716l-0.895,0.12l-1.252,-0.834l-0.595,-0.418l-0.477,-1.073l1.072,-2.564l0.418,-1.072m50.37,46.854l-4.351,-0.776l-16.154,-0.953l-15.559,-1.789l-13.888,-6.438l-11.089,-9.656l-7.69,-15.201l-2.682,-15.617m259.842,590.677l-9.061,6.796l-5.187,4.65l-33.679,-10.551l-34.037,-16.156l-31.534,-19.909l-27.004,-19.373l-22.294,-12.995l-19.194,-5.306l-0.239,-0.119m-67.36,-604.209l-14.604,-6.557l-1.968,-3.279l-5.364,-3.934m79.162,70.936l-22.771,-12.28l-1.49,-0.476l-1.371,-0.299l-0.834,0.12l-10.432,-3.16l-10.67,-4.113l-8.526,-3.756l-5.543,-3.516l-3.04,-9.061l0.417,-1.669l-2.206,-1.371l-0.595,-9.538l-2.861,-6.021l-8.227,-0.774l-1.311,-2.385l0.119,-5.723l-0.239,-1.192l0.06,-3.754l-0.655,-2.505m282.194,228.069l-13.532,-14.903l-6.317,-21.757l0.416,-18.48l3.935,-15.736l14.664,-7.63l16.988,-4.71l24.322,1.371l9.359,2.326m1033.76,231.644l-22.771,-14.127l-10.968,-11.744l-17.763,-12.637l-13.353,-14.783l-6.319,-8.108l-25.513,-21.161l-21.401,-14.247l-32.666,9.895l-23.665,15.798l-10.193,6.974l-8.703,29.864l-2.862,5.068l-41.072,-8.406l-45.064,4.114l-48.464,1.907l-57.822,19.612l-60.147,29.984l-59.491,32.129l-58.299,29.865l-56.629,26.705l-57.046,22.712l-60.625,18.539l-66.405,2.026l-69.626,-10.074l-64.617,-26.645l-53.351,-34.515l-44.172,-34.752l-35.706,-31.235l-29.746,-28.554l-28.434,-24.262l-26.705,-23.01l-28.91,-18.955l-30.462,-16.274l-27.003,-8.703l-26.109,-10.79l-22.294,-9.239l-10.432,-5.365l-2.921,-2.563l-0.775,0.655l-0.834,7.81l-10.611,27.481l-5.543,12.159l-10.85,20.447l-7.69,14.604l-1.311,2.444l-3.279,1.967l-4.232,4.71m196.952,100.502l-19.671,4.114l-6.081,3.815l-2.383,22.532l-8.048,25.036l-14.724,21.758l-18.599,1.908l-2.921,-1.312m-122.796,-463.768l-2.624,-0.416l-7.272,-12.22m528.445,200.17l-20.208,-1.787l-11.684,-9.896l-13.233,-8.465l-7.869,-5.067l-27.957,-15.319l-24.321,-12.519l-7.748,-3.933l-21.699,-10.671l-7.869,-3.875l-1.668,-1.61l-0,-0.774l-2.803,-0.299l-15.319,-5.662m-117.491,547.877l18.239,1.074m-301.925,-781.193l0.714,0.894l10.552,13.89l20.089,31.235l1.908,3.874m1095.16,545.375l-4.829,-1.013l-3.159,-7.332m-1005.74,-411.609l-9.061,-4.531l0,-0.179l-2.205,-2.921l1.608,-18.062l-3.814,-4.767l-1.371,-1.312m7.809,7.689l5.902,5.782l2.145,7.154l-1.013,10.729m2.682,615.358l0.418,0.595l7.093,9.658l8.942,10.372l12.697,7.867l8.524,5.306l23.009,9.776l13.83,14.962l24.739,9.896l13.353,23.785l11.206,32.368l9.894,38.03l11.029,41.431l17.585,36.659m-160.351,-234.744l0.298,0.595l7.927,15.798l8.287,22.471l14.902,12.698l21.4,12.637l0.417,31.653l0.478,38.986m-57.762,-718.065l-2.445,-0.597l-17.287,-2.563l-16.512,-1.908l-14.664,-6.258l-2.087,-3.338l-1.729,-3.219l-7.272,-4.411l-3.1,-4.471l-3.04,-5.723l-1.013,-1.848l-0.477,-0.893l-2.623,-4.471l-0.059,-0.12l-0.715,-2.265l-0.298,-1.013l-0.239,-1.013l-2.682,-8.824m361.535,81.548l12.698,5.901l4.411,0.12l3.994,3.754m-68.91,-0.953l-0.298,0.953l-3.815,4.292l-0.776,1.015m5.008,-5.486l0.06,0.716l0.239,1.67l-0.478,0.416l-2.861,1.193l-1.968,1.491m63.486,-35.589l-38.508,-8.464l-14.426,-21.162l-10.194,-25.631l0.955,-33.383l14.962,-40.475l24.44,-45.303l27.242,-46.318l32.607,-46.317l41.787,-51.027l55.378,-60.028l70.637,-69.743l85.422,-70.699l98.416,-66.226l100.623,-49.119l94.124,-26.884l97.165,-5.127l87.567,23.309l81.964,38.15l65.691,56.033l60.624,77.553l40.237,85.66l18.598,96.39l11.683,88.223l-66.286,70.102l7.631,42.503l13.591,13.828l2.861,2.921l20.804,31.713l2.145,3.219l0.119,0.418l5.544,15.259m-1368.95,443.799l1.192,-6.975l-0.774,-0.953l0.655,-5.663l2.861,-24.918m293.461,-381.922l-6.198,-1.55l-0.478,-0.179m59.61,31.713l11.326,6.199m-112.961,524.51l-1.312,0.06l-2.383,-1.61l-8.882,-1.251l-3.697,-0.179l-6.319,-0.357l-19.015,-0.298l-33.024,-7.153l-28.614,-10.253l-3.695,-1.253l-1.251,-0.476l-18.301,-9.18l-12.578,-6.319m150.515,-151.589l-31.235,-36.661l0.656,-27.837l-30.997,-27.302l-32.487,-25.99l-33.442,-17.049l-31.773,-12.278l-34.455,-8.824l-33.202,-6.021l-24.679,-9.298l-22.89,-9.299l-13.949,-8.823l-0.477,-3.696l3.756,-6.855l4.59,-8.107l4.947,-10.432l1.55,-30.699l6.617,-36.66l14.485,-6.736l8.643,-31.057l11.982,-26.646l6.498,-21.46l3.993,-10.312l-1.192,-8.822l0.12,-4.77l-0.239,-1.43m1123.59,52.815l1.907,-5.663l1.849,-7.689l1.609,-2.326l7.332,-8.047l14.485,-15.917m-1203.23,165.419l6.736,-14.187l0.537,-1.192m1097.6,103.96l19.374,16.99m-773.622,587.577l11.922,-3.04m-79.639,-1733.82l-49.001,31.891l-14.306,9.359l-27.897,17.823m1070.24,713.356l1.669,1.133l50.549,4.411l3.397,0.357l23.249,30.044l5.663,7.332m-977.728,136.269l2.802,0.299l43.158,6.259l0.119,0.357l-0.119,0.656l-4.591,33.858l-1.191,2.266m797.167,-101.874l30.223,-35.528l4.471,-2.861m-764.203,846.466l4.53,6.616l1.371,2.683l8.166,11.326l33.263,26.227l46.616,13.293l60.205,0.358l75.585,-5.722l83.158,-6.498l67.657,10.075l67.24,11.624l57.107,11.564l38.329,14.425l39.523,30.76l46.733,69.505m246.31,-989.351l2.563,12.041m-1319.65,40.595l-0.418,1.491l-6.378,22.77l-3.16,6.378m1215.81,-211.198l-21.222,8.523l-1.848,0.716m-1237.81,-390.685l0.595,-1.61l2.564,-7.153l5.186,-14.188m502.037,1346.06l0.358,0.654l30.282,57.645l27.659,78.923m-66.346,-147.774l7.094,16.692l1.013,2.98l11.623,26.347l18.957,22.832l29.149,20.028l22.652,75.883m-91.978,-168.219l1.431,2.98l0.655,5.187l12.638,97.402m-5.545,-84.109l12.041,28.016l4.115,12.579l25.511,78.387m160.948,-2003.38l-23.605,3.458m-706.858,888.789l5.782,2.802l8.166,3.874l7.69,2.921l1.729,0.895l4.352,2.98m-15.559,24.738l-0.118,1.192l7.153,13.889l0.179,0.537l0.059,1.013l0.357,0.715l2.564,19.314l6.974,13.65l2.087,2.624l-1.788,1.847l-0.359,8.526l0.657,2.682l-2.326,9.716l1.371,3.994l1.55,2.504l0.716,3.695l-0.597,9.717l-4.948,27.479l-13.173,38.032l-5.424,48.463l0.179,2.266l4.649,52.993m48.523,232.718l-3.458,-0.298l-3.695,-0.297m15.497,1.311l6.737,0.536l2.503,0.418l8.763,1.43m-108.431,-605.581l7.69,24.68l11.564,25.095l8.167,19.732l1.371,3.695l7.511,1.609l1.61,3.399l1.55,7.033l9.12,5.127l1.491,2.563l0.117,0.119l0.955,9.716l-3.398,10.135l-1.252,14.724l0.775,13.173l-0.118,1.67l1.132,0.358l3.814,11.146l-0.774,4.292l2.265,0.477l3.637,1.729l1.728,11.146l1.668,3.697l0.299,0.476l0.477,0.954l1.49,1.849l-2.087,9.001l0.299,5.245l2.146,5.246l0.12,12.1l-2.207,27.541l-12.517,34.693l-8.585,43.693l-0.06,0.359l-2.861,44.946l5.008,45.006l0.537,1.966l-0.06,0.06m-6.14,-281.539l1.966,14.426l0.299,2.623m3.935,264.43l3.814,-8.941m1267.02,507.82l-6.976,-21.221l-2.384,-9.001l-21.52,-98.596m-747.512,291.256l-0.596,35.886l-0.297,19.194m746.678,-336.203l-19.91,-104.556m-15.44,-248.515l-0.297,0.06l-6.796,-8.763m84.944,-38.09l-0.417,0.297l-44.589,33.322l-4.351,1.491l-1.013,0.238m-854.87,-189.441l-0.06,1.55l-1.55,7.869l0.954,6.735l3.577,9.24l2.503,20.207l-2.266,18.002l-6.616,11.626l-9.777,6.914l-8.941,-0.836l-2.504,-0.237l-1.072,-0.298l-5.127,-15.201l-0.536,-0.358l-8.822,-5.543l-4.353,-2.324l-2.443,-0.299l-1.312,-3.159l-6.02,-14.308l-0.299,0l-0.655,0.179l-8.048,2.445l-5.961,-6.319l-1.967,-6.438l-0.655,-5.245l1.371,-4.829l2.98,-4.53l1.371,-0.299l1.312,6.558l0.119,8.703l1.49,3.755l1.252,5.544l-0,1.133l-0.834,0.179m-241.72,-103.604l-10.551,-5.125l-0.715,-2.207m-72.666,273.254l2.565,-4.829l1.608,-0.774m415.246,-95.674l-1.55,-10.313l1.43,-1.192m-96.092,-68.611l-1.668,1.013l-2.624,-0.537l-0.714,-0.179m22.294,43.754l1.49,-6.676l2.145,-1.549m-322.192,-125.361l0.118,-5.603l0.596,-0.597l1.67,-1.848m292.924,105.689l2.564,-0l0.834,0.477l1.729,1.013l1.55,2.861m-276.473,415.425l2.146,1.847l2.802,3.339m-19.672,-536.791l-1.49,-15.796l0.955,-16.274l3.04,-15.38l0.714,-2.562m446.005,215.371l-4.948,-7.332l0.656,-2.682m-35.707,15.38l-2.325,-0.478l-40.356,-20.446l-0.417,-0.238l-0.059,-0.12l-2.386,-3.04l3.279,-17.644l-1.132,-22.593l-1.192,0.239l-5.901,-10.551l1.43,-2.207m952.393,805.992l-11.267,5.722l-3.219,1.192m-1225.05,-480.28l-2.981,6.319l0.716,17.049l7.392,19.373l-2.444,18.837l-9.24,18.181l-5.841,13.888l-3.16,15.142l-0.059,-0l-0.239,0.119l-16.154,-6.497l-11.624,-9.06l-8.108,-8.585l-6.557,-3.755l-3.278,0.893m280.585,-390.029l0.298,-0.953l0.179,-1.253l-0.477,-3.815l-1.132,-8.643l-1.431,-10.849l1.669,-2.802l0.06,-0.06m-198.503,724.325l-4.828,-5.544l0.537,-4.054m174.598,-176.744l-2.921,-1.908l-3.756,-2.384l-11.862,-3.874l-14.127,-4.65l-33.382,-12.876l-34.097,-18.063l-31.833,-21.876l-28.135,-21.46l-23.427,-15.08l-18.836,-5.665l-15.559,-5.662l-13.949,-9.597l-8.644,-8.882l-7.57,-3.099l-3.695,1.906m31.653,-459.952l-0.716,-0.298l-5.008,-4.829l-1.966,-1.787l-1.609,-4.055m16.868,50.848l4.413,0.716l13.412,4.351l20.207,9.776m1379.26,-560.456l1.729,76.361l11.446,130.01l-33.86,65.333l-11.922,104.676l-40.356,43.992l-43.515,43.336l-1.967,4.531m-981.066,175.076l-2.265,-2.087l-7.69,-7.153l0,-0.179l-1.609,-4.411m-367.855,-207.862l5.066,-0.297l8.645,2.324l4.053,2.147m57.226,542.573l-6.378,-2.266l-8.584,-4.829l-11.088,1.908l-10.492,-9.359l-8.047,-5.245l-4.589,-2.087m329.524,-326.068l-8.643,0.953l-10.85,-2.384l-0.237,-0.298l0.179,-0.595l-3.1,-13.293l-1.371,-16.275l1.133,-16.929l3.219,-15.915l0.834,-3.04l1.669,-2.087l0.953,-6.259m-24.023,69.148l-6.317,-6.08l0.833,-1.252l-1.848,-3.159l-0.476,-2.028l-1.43,-5.245m162.02,23.248l-2.503,4.709m-441.414,327.976l1.848,-5.127m392.174,-304.966l0.239,-0.477l-0.06,-0.358l-40.891,-20.148l-2.565,-1.192l-0.714,-0.358l-3.816,-1.908l-14.127,-6.257l-11.922,-2.505l-11.445,-3.516l-9.24,-5.068l-1.49,-15.855l1.252,-16.334l3.1,-14.426l0.417,-3.219l0.357,-2.504m-66.823,68.433l7.272,-7.809l8.227,-5.245l7.511,-5.723l9.597,-1.967l4.828,-5.723l5.902,0.239m-27.778,511.693l-3.219,5.306l-13.95,6.2l-26.466,6.914l-33.144,6.319l-32.427,4.352l-30.699,0.595l-26.289,-4.113l-23.128,-9.001l-20.745,-13.293l-6.199,-6.616l-1.192,-5.841m-12.34,-189.979l6.021,0.358m-100.026,-563.317l4.53,4.352l14.903,11.802l13.591,24.738l8.464,15.32l-0.119,1.013l1.311,1.194l3.518,1.43l1.728,1.192l0.775,0.536l0.059,0.119l0.776,1.431l0.834,0.119l0.776,0.418l-0.12,4.649l-0.417,1.55l3.874,2.027l1.193,0.655m295.368,185.745l3.816,3.816l1.311,2.087l0.597,3.994l-6.618,6.795l-4.172,4.828l-0.657,7.452l-7.033,9.657l-7.929,22.056l-14.664,28.553l-14.544,31.473l-13.771,33.979l-11.623,34.157l-5.663,31.831l1.252,29.448l-2.862,27.778l27.064,28.255l24.857,34.754l33.143,39.819l31.772,44.23l26.11,42.026l11.325,41.965l-5.663,41.728l-16.333,41.369l-31.95,30.461l-43.158,15.737l-47.033,1.848l-41.727,-7.451l-37.078,-10.909l-31.534,-11.863l-22.055,-13.531l-11.088,-14.545l-8.524,-17.823m394.918,-538.52l-1.789,6.379l-11.325,7.153m-119.221,-2.444l-1.072,-0.477l-8.048,-3.636l-0.894,-0.716l-1.134,-0.893l-0.714,-2.921l-8.882,-13.174l-0.955,-1.848l-5.185,-15.201l-0.597,-2.324l-1.906,0.357l-6.737,0.477m1055.64,25.215l-2.027,-6.498m-1042.7,-63.246l-2.087,3.399l-1.55,2.622m-10.431,32.547l-3.815,-4.65l0,-0.714l-0.716,-7.035m-271.465,427.406l2.206,2.503l2.384,2.742l3.935,5.008l7.332,9.537l4.172,5.187m-65.034,-622.57l3.337,3.994l-0.297,3.04m1374.73,200.23l-25.155,2.624l-18.062,11.982l-16.512,-2.087l-7.571,0.119m-800.327,0.597l-17.525,-2.684l-3.934,-3.1l-1.55,-1.192l-2.802,-2.145l-3.636,-1.788m707.394,167.207l-5.305,-5.605m-1184.69,-379.001l7.392,-1.788l6.498,1.311m1013.49,265.802l-69.983,32.965l-63.067,30.699l-60.625,30.699l-57.404,27.122l-55.437,22.056l-55.438,20.149l-58.417,16.393l-63.188,5.543l-61.874,-3.993l-59.015,-19.374l-47.032,-24.261l-40.714,-29.447l-33.144,-26.586l-27.897,-26.409l-25.096,-24.141l-0.418,-0.358l-26.287,-21.936l-25.693,-25.275l-28.911,-20.089l-29.984,-19.314l-28.017,-8.822l-18.122,-4.829l-13.293,-9.18l-5.424,-5.543m-5.364,-73.381l-2.803,7.213l-1.608,5.604l1.132,6.974l-1.609,12.161l-4.173,21.578l-11.625,30.879l-14.783,4.113l-13.59,-2.563l-14.486,-6.379l-7.034,-15.499l9.955,-38.03l-5.365,-22.354l0.239,-26.527l4.471,-11.922m-24.262,-105.272l7.093,3.338l16.93,11.445l7.809,6.438m67.776,538.46l4.769,6.318m-80.294,-461.144l1.848,-7.392l0.535,-1.132l5.128,-1.134l0.417,-0.059l1.966,-0.476l2.147,1.729l5.543,4.708l2.266,8.465l1.133,4.471l8.702,5.543l0.06,0.06l9.716,2.147l8.107,-1.074m458.403,139.608l-2.563,7.867l-12.816,6.797l-19.731,8.881l-24.143,7.452l-26.824,4.053l-7.093,-5.722l-25.573,-1.431l-23.964,-6.14m822.323,119.936l-13.173,8.644l-0.179,0.059l-13.114,-20.625l-3.994,-7.273m-754.964,-172.751l-8.226,1.908l-2.385,0.537m776.841,85.124l7.213,-4.531l30.103,-3.219l20.864,8.226l16.094,7.749m-1094.8,236.117l-1.908,8.285m-104.617,-400.222l1.134,-3.995l-0.059,-0.416l2.204,-7.81m-24.618,198.8l-4.829,6.975m296.74,680.749l8.703,1.311m-313.728,-980.648l2.921,9.717l-0.418,3.635m357.363,214.239l-1.49,9.479m862.56,-76.182l-9.001,-3.815m-829.715,76.182l0.12,9.955l5.424,7.69l7.272,8.822l7.511,14.306l6.259,35.348l1.729,48.882l1.431,56.331l0.417,56.332l-5.841,55.08l-18.361,33.977l-18.776,30.76l-22.057,21.399l-30.878,21.818l-32.368,20.804l-23.486,14.187l-30.879,-16.691l-32.963,-21.161l-32.31,-24.441l-32.249,-19.433l-26.289,-14.009l-18.24,-6.377l-2.682,-8.762l5.126,-13.592l-0.06,-0.298l-5.782,-2.503l-9.657,-5.247l-9.776,-4.112l-8.703,-8.524l-5.543,-9.717l-1.313,-2.325l-0.834,-0.119l-6.854,-0.955l-7.809,-0.237l-1.61,-1.967l-11.982,-2.266l-0.179,-0l-11.086,-3.397l-5.902,-3.697l-10.79,-6.675l-8.107,-5.008l-10.193,-8.942l-6.676,-14.068l-7.75,-16.214l3.875,-44.887l11.088,-31.116m1290.56,422.578l-2.207,-9.777l-21.341,-97.999m-1174.02,-537.446l-6.14,-0.179l-13.829,-0.835l-13.77,-1.013l-13.711,-1.251l-13.83,-9.718l-10.252,-15.497l7.51,-27.183l0.418,-10.193m400.461,775.827l-37.196,-24.738l-36.302,-25.096l-34.455,-24.918l-26.408,-27.121l-16.035,-22.414l-8.226,-15.439l-3.517,-10.373l-2.921,-12.339l-0.537,-10.551m92.039,-543.526l5.544,-0.179l9.359,2.564l10.609,5.603l8.705,6.08m-134.482,308.006l-21.341,-14.783l-17.823,-4.352l-21.518,0l-26.706,-4.59l-27.839,-2.443l-29.685,-2.206l-29.865,-0.775l-29.507,-1.074l-27.541,-4.709l-21.936,-7.272l-10.611,-9.121l-2.741,-10.432m1327.16,-318.318l19.79,8.822l19.373,31.057l10.133,34.216l3.697,45.603l-7.332,55.02l-33.858,59.431l-48.584,35.05l-37.851,15.619l-33.92,17.167l-28.969,9.18l-9.3,-8.166l-1.43,-1.251l2.562,-22.473l9.36,-19.195l11.147,-13.71l13.71,-16.811l35.409,-16.572l42.681,-22.89l30.103,-41.846l6.974,-25.216l0.06,-2.085l-7.631,-9.419l-17.763,-11.385l-7.452,-4.77l-14.186,3.458l-14.427,29.149l-3.397,6.797l-14.486,3.099l-19.552,-9.836l-27.42,11.683l-42.205,-2.682l-36.48,-8.584l-40.894,-27.242l-29.148,-39.224l-31.713,-42.74l-33.978,-42.859l-37.913,-44.35l-47.867,-46.079l-57.404,-45.841l-66.466,-44.946l-75.765,-45.661l-83.036,-45.303l-81.785,-41.252l-77.553,-38.567l-72.189,-34.395l-64.796,-27.243l-55.736,-22.949l-47.569,-19.015l-43.157,-15.141l-35.23,-12.638l-30.819,-8.823l-25.155,-6.02l-19.075,-4.053l-10.551,2.92m-0.299,498.759l10.671,3.279l11.267,2.266l13.412,5.901l3.755,1.966l0.656,0.299l2.324,1.192m1003.84,401.415l8.048,7.75m-1108.81,-703.103l4.889,10.015l15.2,31.235l18.956,37.257l0.179,56.749l2.205,46.257l5.008,27.361l-0.776,1.311l-1.49,6.677l-2.861,2.443l-5.902,8.287l-1.669,19.314l0.179,2.145l5.067,5.366l5.723,4.53l8.643,4.292l11.088,3.874l12.459,2.98l15.14,2.981l4.351,-0.239l2.207,1.194l0.298,0.595l-1.848,19.075l-0.12,0.239l-7.033,12.936l-7.093,5.364l-3.458,-0.238l-2.028,-0.239l-1.49,-2.145l-0.714,-0.895l-6.916,-13.709l-2.682,-12.698l-1.073,-15.201l0.537,-16.035l1.608,-10.193l-5.185,-7.153l-3.339,-4.709l-3.219,-4.471l-4.59,-2.445l-0.535,-0.416l-6.857,-1.908l-0.237,0.179l-6.14,8.583l-0.358,3.04l-1.967,15.5m35.348,150.575l-9.656,34.395l-14.246,5.663l-12.937,5.484l-0.179,0.06l-11.265,-1.968m334.591,-61.517l-2.384,-0.776l-0.833,-0.298l-6.2,-10.609m208.516,67.239l0.299,12.28m-429.612,281.063l-10.79,6.676m241.661,-289.707l-0.12,0.537l-2.443,12.4l-4.59,22.949l-12.161,33.8l-12.459,37.197l-11.922,36.124l-9.18,32.189l-6.855,32.547l35.468,36.958l44.588,43.873l45.006,43.992l47.688,57.941l30.223,65.394l1.431,64.258l-19.194,61.519l-43.994,50.43m810.64,-636.637l-5.722,-12.101l19.433,-39.403m-1167.23,-1.43l-12.101,6.08l-13.472,3.398m1237.87,-90.25l1.61,28.553l11.803,34.873l12.399,32.606l0.178,0.536l9.24,28.852l-1.61,7.451l-4.351,20.506l-0.655,3.219l-1.312,5.901l-17.705,43.098l-1.073,2.505l-0.179,0.476l-44.051,34.395l-5.127,0.239l-1.013,0.238l-34.574,2.742l-6.2,8.048l-10.432,13.591l-6.974,9l-6.199,-0.356l-0.179,-0l-22.474,-1.371l-12.16,-5.961m-792.697,621.674l-5.782,-4.292l-13.114,-17.525l-19.314,-27.302l-21.996,-32.547l-20.149,-35.766l-19.015,-35.289l-18.241,-31.236l-17.764,-26.705l-30.281,-5.663l-13.115,-17.883l-25.454,-6.975l-10.074,-10.014l-6.08,-12.221l-4.173,-20.923l4.531,-28.91l9.359,-9.956m1069.05,-503.169l8.227,1.251l13.353,4.173m-35.707,-78.089l29.149,22.294l10.016,10.193m-1130.27,573.272l6.439,-27.898l10.848,-9.715m208.398,-487.792l-6.498,-10.67l-0.179,-0.298m-151.469,254.119l-24.739,-5.187l-13.532,-12.994l-37.792,-7.332l-32.547,-7.869l-27.481,-7.034l-21.936,-8.942l-12.638,-8.167m386.931,-202.197l-2.921,-2.444l-4.948,-16.215m856.122,42.98l11.386,-10.67l38.747,-40.655l25.394,3.637m-1209.31,522.782l-2.622,-5.008l-9.3,-18.062l-0.893,-24.977l0.059,-0.238m106.166,-479.863l15.677,-1.669l36.482,6.2l32.428,6.498l18.182,6.14l9.954,2.383l5.245,4.054l7.511,4.709l6.021,-1.252m1048.13,114.392l-28.255,2.266l-21.162,-0.656l-14.008,-7.392m-1279.83,-245.355l-2.503,-3.458l-1.789,-0.536l-4.291,-3.577l0.417,-1.55l-1.371,-5.007l-0.656,-0.417l-0.714,-1.609l-1.312,-2.802l-6.14,-11.148l-1.074,-1.848l-8.643,-15.617l-1.908,-2.921l-9.775,-10.79l-12.459,-25.274l-5.424,-35.349l2.622,-43.098l-8.762,-14.188m382.637,390.865l-0.595,-0.537l-2.801,-4.352l-6.439,-10.252m212.51,17.704l5.842,16.691m-528.385,268.961l17.585,-2.742l11.148,-8.942l5.245,-1.966l1.848,-0.716l6.558,-1.192l12.338,0.894l16.333,1.848l15.082,-0.834l8.941,-2.087m-43.693,-381.446l-1.908,-0.417l-17.525,-0.775l-17.706,-2.801m288.396,122.378l-3.637,-2.622l-11.863,-8.643l-13.709,-8.644l-16.096,-9.776l-7.511,-11.624l-3.516,-15.617l3.219,-15.977l8.107,-12.637l9.777,-8.702l14.604,-5.605l17.883,-1.548m-192.959,368.748l11.922,10.491l10.372,23.188l0.179,0.477l-0,0.239l-3.636,31.475l-13.77,26.585l-8.107,14.247l-3.994,12.936l-2.921,21.698l6.081,18.121m-59.909,-558.786l-6.795,-0.418l-9.18,-1.072l-3.577,-2.325l-1.849,-0.238l-1.43,-0.179l-6.974,-1.073l-3.339,-0.179l-1.966,-1.669l-6.617,-5.901l-2.802,-1.371l-1.848,-3.041l-6.319,-9.538l-0.595,-1.072l-1.55,-4.531l-5.366,-12.757m102.768,597.236l-9.238,-21.699l1.132,-24.201l2.861,-15.021l5.245,-13.176l8.287,-20.147l2.861,-22.533l-3.814,-21.996l-6.916,-15.975l1.967,-3.935l11.266,-1.192l13.472,-21.222l10.075,-24.857l7.987,-21.341l9.598,-15.557m-73.023,162.378l-15.678,-0.716l-13.054,-13.233m77.016,-153.616l-8.584,16.632l-12.101,23.01l-12.398,25.571l-10.789,18.838l-6.14,2.802m1026.73,19.671l-34.991,59.908l-55.08,102.59l-1.966,3.635l-67.539,100.444l-95.138,109.087l-121.724,46.674l-96.569,24.322l-70.697,7.809l-52.637,-11.803l-14.962,-11.446m787.392,-730.642l-19.194,0.834l-36.721,5.782l-23.605,-2.205l-15.558,-7.451l-2.385,-13.175l-3.1,-17.406l-2.801,-1.788m-650.586,79.759l13.769,-13.472m-193.793,-11.922l5.067,2.264l1.968,-0.893l2.324,-0.537l0.239,-0l3.1,3.398l1.072,1.729m-416.854,-362.848l11.863,15.976l17.763,35.17l7.75,31.414l2.145,4.829l1.908,2.921m326.724,237.486l5.245,6.916m-340.254,-64.26l1.013,20.685l0.059,4.649m1308.39,41.728l-18.54,-8.108m-1210.09,290.361l11.506,-1.192m280.168,-350.865l16.453,5.305l3.219,0.597l0.118,0.595l11.327,4.888l20.386,7.75l1.371,0.537l34.455,14.664l31.832,15.557l26.884,17.883l17.883,13.174l21.459,3.458m482.903,369.524l17.764,-12.876l14.902,-6.378l19.374,-5.127l29.745,3.338l34.932,9.837l24.977,5.185l22.055,3.875l19.91,3.457l10.313,0.119m-50.848,-325.174l19.075,-11.266l31.833,-1.967m-58.24,-0.655l0.06,0.179l7.272,13.709l10.372,19.672l0.537,1.132l-5.007,10.194l-0.297,0.596l-12.758,25.871l-4.292,5.722l-7.093,8.286l-17.526,20.507l-4.292,5.006l-5.484,6.438l-18.121,14.485m-42.979,69.268l-21.936,8.643m164.463,-406.78l-6.795,-22.772l-8.227,-47.688l-13.828,-49.357l-24.381,-50.669l-31.594,-55.259l-38.627,-54.602l-45.124,-59.491l-42.921,-53.649l-43.217,-52.756l-43.932,-58.477l-47.271,-58.478l-53.828,-59.132l-58.717,-59.075l-63.603,-55.675l-63.367,-47.153l-63.305,-36.361l-124.467,71.769l-109.444,93.53l-83.931,105.748l-52.279,99.967l-32.427,89.653l-27.838,87.21l-12.22,74.573l-11.684,65.81l-4.293,56.45l3.876,57.643l5.603,47.033l-0.537,32.607l3.696,33.381l28.256,13.055l46.555,23.129l42.323,-16.93l23.607,-0.536l16.094,1.61l11.027,0.059l9.777,-0.298l9.121,-1.729l8.643,-1.132l1.43,-2.623l0.12,-0.119l0.655,-1.134l-0.834,-0.953l-7.929,-2.324l-8.762,-1.431l-8.823,-1.669l-11.206,-2.624l-18.897,-4.113l-29.566,0.418l-39.939,-5.067l-37.376,-16.809l-37.972,-12.161l-19.551,-6.14l-15.619,-8.168l-0.417,-0.595l0.537,-6.02l1.49,-15.559l-0,-0.418l-1.132,-17.883l-2.028,-12.458l-7.272,-24.916l-14.664,-58.777l0.894,-60.921l-1.132,-71.354l1.848,-80.891l7.391,-88.878l19.969,-94.603l37.495,-101.992l68.313,-104.557l92.694,-92.515l44.113,1.55l53.172,11.624l120.711,-73.082l62.829,24.56l127.744,-56.094l127.983,-50.072l126.017,-14.963l122.677,2.742l74.692,63.307l111.471,34.692l44.351,79.879l23.367,94.541l-4.173,94.184l-24.798,94.661l-41.608,91.502l-66.047,93.647l-57.764,66.823l-56.212,55.438l-53.291,49.179l-48.821,43.098l-45.543,39.701l-42.919,35.229l-37.793,28.554l-33.142,23.605l-30.82,25.215l-37.256,25.633l-41.489,25.453l-42.442,22.653l-39.104,14.007l-36.899,-29.865l-30.461,9.658l-40.297,-23.665l-18.121,8.762l-8.405,3.755l-8.227,5.842l-9.537,4.232l-2.325,0.716l-1.133,-0.477l-22.532,-0l-0.12,-0.357l-1.609,-11.685l-23.606,-12.636l-1.669,-4.65l2.505,-6.914l2.383,-5.187l-1.49,-1.55l-32.069,-10.73l-3.458,-1.787l-16.274,-4.71l-3.696,-1.134l-4.531,-1.311l-8.106,-2.324l-0.119,-0.179l-10.313,-13.591l-37.375,-3.339l-32.726,0l-34.992,-12.338l-24.977,12.398l-44.648,-22.533l-3.398,-4.172l-3.874,-10.134l-14.962,-26.466l-4.411,-51.206l11.922,-54.722l21.697,-64.2l32.846,-72.129l45.899,-80.594l47.212,-80.414l64.975,-91.381l89.057,-95.019l113.32,-82.739l126.136,-60.325l127.565,-43.159l129.414,-25.99l123.215,-12.16l124.645,18.479l103.424,38.807l87.865,82.201l18.121,95.08l57.882,88.401l36.243,106.106l-29.209,84.111l-57.047,87.09l-84.289,93.647l-70.758,26.17l-10.849,57.762l-1.431,12.339l-15.617,6.26l-17.109,21.936l-19.968,25.513l-0.179,0.06l-8.822,3.635l-38.866,28.315l-31.176,50.788l-16.035,49.775l-11.863,50.311l-5.901,60.386l-4.293,50.012l-5.424,45.602l-0,33.74l5.304,23.605l-16.57,16.095l-33.8,43.038l-49.417,55.319l-60.385,56.152l-67.3,45.961l-69.743,35.468l-69.744,28.613l-69.804,24.141l-70.579,19.851l-62.889,11.623l-48.581,-4.291l-44.292,-13.592l-41.25,-16.273l-38.448,-16.929l-28.971,-20.803l-16.453,-19.137l-6.854,-12.101l-3.399,-7.748l-2.324,-8.703l1.491,-7.154l5.065,-1.132l4.65,-1.252l7.81,-1.669l19.015,-5.185l32.965,-9.777l36.124,-13.472l34.574,-14.545l27.837,-21.699l43.158,-37.493l-2.027,-82.86l-6.019,-63.603l-9.777,-66.525l-14.067,-52.815l-10.195,-38.032l-11.504,-16.63l-10.432,-9.598l-27.242,0.537l-23.367,-6.2l-2.861,-0.776l-1.133,-0.296l-2.801,-1.431l-15.619,-7.929l-2.801,-1.43l-15.38,-10.313l-2.026,-1.371l-13.77,-12.459l-10.969,-7.63l-11.266,-8.583l-6.14,-10.074l-2.087,-11.863l3.398,-13.412l8.048,-11.982l8.584,-9.598l10.432,-7.689l16.751,-0.596l0.356,0.06l5.842,1.49l10.075,2.563m180.56,97.999l-23.07,-6.2l-16.751,-4.172l-7.571,-6.735l-7.748,2.622l-2.743,1.252l-12.577,6.08l-1.61,3.279l4.173,8.166l12.28,5.186l18.478,5.604l21.819,19.612l29.387,37.733l32.368,57.583l28.018,73.023l16.988,73.201l10.133,68.97l8.168,68.729l3.577,69.387l-4.531,69.207l-14.009,61.16l-21.697,40.834l-27.899,27.063l-34.156,16.928l-0.239,0.06l-24.797,7.214m-225.327,-245.655l-1.312,0.06l-14.604,4.233l-27.063,3.278l-33.56,2.683l-33.084,1.252l-30.64,-0.955l-26.527,-4.411l-22.294,-8.941m314.743,-442.069l24.261,-3.697l21.519,-7.272l16.751,-7.511l15.26,3.816l21.936,7.749l27.183,12.995m686.65,-217.279l26.586,36.66l5.901,23.963m-1184.04,-38.747l0.595,5.902m-82.738,164.107l-0.299,-1.192l-2.266,-8.525l0.716,-51.384l-0.059,-4.649l-1.013,-20.685l5.722,-40.177l8.822,-24.739m1332.83,-58.537l17.585,-19.85m-1265.94,729.153l4.769,26.407l4.471,28.136l3.159,22.95l11.029,17.883l2.861,38.269l25.81,17.466l35.527,14.665l48.345,8.763l59.968,-0.955l66.405,-11.504l58.12,-27.302l46.258,26.11l84.349,-18.301l24.857,-65.571l14.247,-72.904l-3.1,-73.738l-12.458,-70.936l-11.862,-76.54l-13.771,-69.684l-19.85,-69.684l-20.088,-55.438l-21.222,-41.906l-15.201,-16.154l-14.664,-8.464l-9.656,-5.366l-3.278,-9.537l-0.717,-1.014l4.471,-34.216l0.299,-0.118l21.697,-0l2.385,0.177l5.484,2.028l9.479,5.543l4.112,2.385l13.293,-0.775l14.009,-1.491l14.903,-3.04l2.622,2.087l19.612,15.796l2.205,1.789l31.415,1.013l36.542,-4.173l24.023,30.7l18.12,36.839l28.434,45.245l28.614,65.689l20.804,68.492l13.173,70.579l9.419,68.194l9.419,65.571l7.213,60.446l2.92,53.53l-7.988,37.375l-18.122,26.944l-33.023,39.7l-102.59,40.178l-69.445,13.054l-33.56,-4.708l-3.1,0.714m-512.887,-471.219l26.765,0.06l27.659,-0.476l27.361,-2.743l28.971,2.92l30.162,1.729l28.733,4.769l25.274,5.305l4.71,1.49l10.79,3.458l14.723,15.44l19.493,28.673l25.095,34.632l28.793,37.436l25.81,36.541l20.864,33.68l6.915,30.58l-0.059,0.476l-4.352,32.428l-15.499,31.177l-27.957,22.472l-35.647,11.506l-38.33,-0.239l-34.692,-8.583l-29.805,-11.029l-28.018,-11.028l-4.412,-22.532l-22.174,-11.862l-11.743,-15.141l-7.452,-8.643l-1.49,-1.729l-5.961,-11.863l-8.524,-12.757l-3.756,-5.663m1150.6,-452.322l-16.154,21.996m-1113.94,397.242l-8.287,-2.503l-1.967,-1.61l-7.094,-5.841l-0.833,-0.716l-1.67,-2.802l-1.251,-2.026l-0.06,-0.119l-0.239,-0.298l-1.311,-2.266l-8.583,-11.684l-7.392,-9.299l-3.637,-5.066l-4.471,-4.053l-0.179,-1.55l-1.967,-24.202l0.179,-14.604l4.292,-15.201l8.047,-26.646m1246.21,-305.264l6.735,8.345l1.61,27.838m-70.221,89.713l4.47,-1.371l6.797,10.91l9.715,12.397l9.598,18.003l9.537,14.664l14.725,23.963m-1188.15,1.074l27.897,3.994l23.725,4.112l21.102,3.399m1046.88,-265.922l-7.451,-14.247l-4.829,-11.564m-857.255,7.452l6.498,2.921m848.015,202.018l0.06,0.119l11.803,25.633l7.033,29.507l7.929,28.016l8.882,28.196m9.596,-498.46l-60.028,27.837l-44.825,33.918l-44.59,38.211l-39.163,43.158l-41.488,46.793l-46.855,46.556l-58.12,36.661l-61.1,33.56l-58.597,30.044l-57.046,25.513l-56.274,10.85l-56.629,14.365l-56.63,14.843l-55.02,8.882l-51.801,-0.834l-50.669,-9.18l-41.667,-18.301l-35.468,-19.015l-29.865,-23.844l-25.812,-20.685l-23.247,-22.831l-23.368,-23.486l-21.698,-22.951l-24.917,-20.803l-3.159,-40.595l3.517,-29.746m279.214,831.861l27.123,-12.636l22.055,-24.56l21.699,-43.337l81.427,-24.262l79.521,-29.507l76.956,-30.877l74.633,-40.178l54.96,-40.535l15.975,-11.803m564.451,-767.064l-26.528,42.979l-38.508,102.589l-20.864,21.52m-1205.5,588.293l-15.557,-4.411l-1.848,-7.332l4.59,-13.056l5.424,-8.882l12.698,-13.709l31.711,-32.608l33.382,-38.508l20.566,-31.89l11.265,-28.435m-240.824,-299.302l-7.153,21.995m1131.4,-32.964l-28.971,-9.895l-7.869,-15.798m-307.468,-31.593l-15.858,26.408m374.174,184.911l-12.041,-28.852l-4.411,-17.227m54.782,-77.552l31.057,4.053l26.765,9.418l13.888,11.505m-1337.77,158.562l-1.67,32.965l-2.205,11.922m1195.01,-321.597l19.075,-26.526m-104.676,411.728l-18.359,-18.599l-10.67,-31.057m221.57,-281.778l-24.857,-21.995l-12.459,-27.123m-181.93,1082.7l-34.336,-5.782l-64.021,6.498l-51.087,-11.325l-56.45,-10.79l-58.12,-15.678l-46.019,-15.26l-46.556,-13.83l-32.786,-9.359l-30.042,-12.994l-17.586,-74.334l-16.63,-51.624l-19.612,-39.222l-27.302,-20.328m-311.166,-474.855l-13.233,31.594l-34.992,24.797l-32.666,7.451l-0.06,0l-32.487,1.61l-17.704,-0.715l-9.121,-1.074l-6.378,-3.04l-8.465,-4.709l-7.272,-6.735m1151.55,-261.153l9.776,-33.321m50.55,-209.889l1.669,1.133l23.069,38.27l-8.942,34.395m-709.959,196.117l-50.191,21.997l-42.74,11.027l-45.78,1.789l-38.331,-5.247l-36.005,-11.922l-30.937,-18.239l-26.168,-15.917l-23.309,-15.438l-21.16,-14.545l-19.672,-19.255l-17.704,-16.988l-7.035,-27.66l-5.543,-18.598l2.682,-19.314l13.055,-10.968l23.487,-6.26l25.929,8.048l15.798,5.245l5.782,0.299l5.185,6.02l7.035,4.948l1.132,2.205l-2.443,19.851l0.237,0.895l0.656,1.132l5.723,5.722l1.729,15.797l6.199,5.007l3.339,13.413l3.814,13.233l1.073,3.159l-2.145,8.823l-0.358,4.769l3.159,8.046l0.775,13.592l-1.252,24.739l-8.464,41.727l-9.18,39.939l-9.36,40.773l-8.703,36.063l-7.57,34.396l-4.889,27.54l38.57,43.576l37.137,47.509l38.627,48.88l17.525,52.636l-2.147,53.172l-19.373,50.072l-36.898,39.284l-50.788,21.578l-56.69,6.2l-50.848,-4.71l-44.29,-8.702l-33.738,-13.114m1068.04,-591.155l-30.818,-20.149m230.572,57.346l-35.826,-10.432m-171.439,-81.488l14.962,-34.513m-15.557,-8.763l-33.084,-18.121l-3.1,-2.147m196.773,-26.347l-21.579,24.618l-18.598,24.083l-23.963,3.637l-25.693,27.777m-101.992,142.588l-1.432,4.351l-0.715,2.206m-776.662,638.843l0.12,-19.849l-11.863,-29.568l-22.712,-32.129l-29.864,-30.462l-28.672,-30.937l-26.944,-29.149l-22.592,-28.136l-16.035,-23.784l-8.287,-15.798l-4.769,-12.816l-3.337,-15.975l0.715,-17.049l1.192,-3.993l5.067,-8.882l5.484,-6.975l11.564,-10.611l27.958,-23.665l32.965,-31.176l24.916,-29.507l16.692,-24.678l10.907,-27.243l10.075,-36.779m741.73,22.89l-12.518,23.426l-20.446,38.39l-3.697,6.915l-34.156,57.166l-21.698,36.362l-72.724,88.999l-82.561,69.505l-4.769,4.053l-119.696,55.617l-9.002,4.172l-100.503,19.135l-18.717,6.08l-61.876,15.975l-0.239,0.06m629.783,-678.542l6.557,-1.312l19.134,6.974l15.261,15.677l11.386,27.242l18.3,34.276m-89.058,55.736l35.289,-16.392m-1186.9,93.11l6.556,-34.574l10.611,-32.308l15.32,-33.799l17.466,-35.647l18.897,-42.324l20.804,-46.198l16.988,-51.92l10.909,-37.793m1254.86,-96.986l-23.546,32.548m-1292.05,408.806l-5.961,-8.583l3.576,-21.638l9.18,-28.375l13.651,-29.15l15.26,-27.837l15.319,-35.231l14.725,-35.408l20.207,-48.94l21.877,-43.277l27.719,-29.745m984.762,107.179l-30.998,-26.586m57.166,-53.888l-1.728,-9.716m120.174,-118.864l-3.517,9.359l-9.597,27.541l10.372,27.599l10.611,30.758l3.755,36.96l-10.432,42.382l-26.049,45.304l-44.946,37.436l-39.642,2.264l-0.357,0l-0.179,0.179l-24.858,27.362l2.98,15.378l1.075,32.905l4.827,29.389l1.669,41.964m-1090.09,-79.34l-13.889,24.798l-11.684,24.857l-7.153,20.684l-1.074,5.961l-2.563,0.955l-1.072,3.04l-9.835,12.995l-14.427,-1.729l-16.691,-11.922l-2.205,-26.765l7.332,-29.925l11.862,-31.056l14.009,-32.726l14.664,-33.383l18.419,-42.083l22.712,-44.947l18.896,-53.888l11.148,-33.56l6.02,-34.275l3.874,-42.861m1191.37,-793.412l34.217,57.404l28.016,47.033l40.953,78.387l12.041,84.468l-23.368,93.648l30.402,96.569l6.795,111.232l-52.159,64.081l-0.119,84.587l-20.208,78.09l-31.235,30.639m-1284.12,-91.859l20.506,10.193l8.822,11.207l23.904,2.683l41.787,-5.008l64.855,-5.245l66.645,-3.339l62.947,7.332l66.168,17.406l74.752,23.844l72.545,28.971l59.015,32.249l49.893,33.501l38.926,34.097l32.01,35.767l31.415,43.217l28.135,52.874l22.891,61.1l16.93,64.678l16.035,63.484l14.425,58.12l13.949,53.649l11.445,42.443m350.747,-495.54l0.418,12.578l-9.061,16.632l-24.739,37.017m-58.656,-71.472l6.318,-19.732l2.684,-8.345l4.59,-14.425l5.066,-6.199l7.391,-17.645l5.902,-11.327l4.351,-8.464l34.634,-33.143l56.69,-20.804l59.789,3.874l4.948,5.664l25.036,28.315l2.324,2.622m-354.621,1124.19l28.195,-35.647l53.709,-42.74l67.539,-57.226l62.71,-55.914l49.238,-47.569l15.677,-7.511l3.219,-1.192l11.267,-5.722m-263.359,217.874l-45.72,-40.177l-39.224,-11.206l-41.071,-10.551l-57.822,-12.101l-61.637,-17.287l-58.24,-12.817l-60.444,-7.272l-54.96,-6.319l-46.08,-9.477l-36.72,-12.817l-26.526,-52.1l-25.633,-37.732m-539.472,-1211.46l-0.597,5.185l-5.006,49.597l-5.068,49.536l20.804,33.083l18.599,42.622l22.533,33.321l19.194,15.499l16.393,1.968l15.201,5.722l18.12,5.961l11.088,13.89l21.103,6.437l48.165,0.596l71.533,-5.365l72.962,1.908l69.863,10.252l72.486,20.328l80.414,27.182l74.871,31.116l61.22,34.515l52.993,34.932l44.112,33.143l39.282,32.726l36.065,42.621l30.163,52.219l21.757,59.67l17.764,60.266l15.201,57.046l14.425,52.1l14.843,46.496l11.327,35.171l9.477,21.22l7.095,9.717l7.212,6.676l18.182,7.57l36.182,9.897l44.767,7.451l36.602,3.934l38.448,3.279l33.918,5.603l29.21,-4.949m130.963,-488.565l45.84,-4.709m-2.682,-67.122l-40.893,21.52l-2.265,50.311l-6.199,48.761l-0.06,0.119l-7.451,12.519l-36.899,61.815l-56.749,40.416l-40.416,27.123l-39.878,20.565l-37.675,1.371l-6.378,-5.842l-34.216,-31.176l-37.555,-10.074l-39.103,8.882l-49.298,20.208l-55.975,32.667l-60.325,36.541l-59.55,32.964l-59.135,29.507l-58.536,23.13l-62.175,16.512l-64.676,9.596l-79.461,-3.754l-72.485,-54.425l-53.292,-46.794l5.782,-42.801l5.902,-46.078l3.934,-50.371l3.933,-42.503l-3.158,-32.368l-3.756,-14.604l-3.398,-2.622l-2.086,-4.232l-2.027,-6.558l-18.836,-9.001l-14.248,-11.743l-13.114,-12.459l-11.266,-9.121l-7.63,-7.987l-3.816,-8.406l-2.145,-8.106l2.444,-11.445l5.603,-9.359l7.451,-9.836l10.372,-5.723l15.44,-0.476l1.013,0.954l2.445,4.47l-1.312,4.173l-3.756,10.432l-1.49,15.2l6.438,4.949l9.359,4.648l11.863,4.114l13.233,3.219l16.035,3.218l5.722,0.776l1.371,0.298l-2.205,20.267l-0.119,0.239l-7.75,13.233l-9.12,6.438l-1.908,0.476l-1.787,-1.192l-5.306,-2.563l-6.558,-1.609l-1.132,-0.358l-1.312,-0.536l-1.072,-0.298l-1.132,-0.716l-7.452,-5.603l-0.775,-0.597l-2.504,-0.774l-9.896,-6.677l-1.072,-0.894l-10.73,-10.789l-8.584,-7.868l-6.259,-5.246l-3.397,-9.419l-3.04,-6.855l2.085,-8.285l5.426,-8.585l6.377,-7.332l9.419,-5.484l1.251,0l0.478,1.192l2.443,2.207l-0.476,1.609l3.576,9.597l6.2,3.815l9.24,4.053l11.444,4.471l11.922,3.636l14.129,-0.834l3.1,-0.716l1.608,-0.416l2.385,-0.537l8.166,-1.908l0.06,0.059l0.238,0.12l9.717,3.398l4.828,0.774l20.686,12.459l0.297,2.503l1.908,-0.595l7.391,-7.153l4.352,-6.08l3.338,-3.697l9.479,-12.756l13.233,-18.241l0.239,-0.239l16.51,-22.652l23.309,-26.884l33.858,-31.295l39.819,-34.931l37.257,-32.905l35.766,-32.905l39.582,-34.813l46.853,-38.985l55.08,-46.794l63.843,-54.126l66.704,-58.239l63.305,-59.133l48.822,-62.531l18.598,-73.202l-10.551,-65.989l-29.746,-74.989l-34.514,-69.863l-46.198,-66.168l-57.106,-65.511l-70.818,-55.02l-72.963,-30.701l-69.029,-8.822l-78.506,12.28l-74.334,32.547l-27.778,12.161l-90.37,45.185l-17.047,8.464l-43.934,13.89m376.32,1673.08l22.533,41.429l-11.864,65.989l-18.12,72.784l-20.626,80.891m-235.043,-262.165l-7.927,47.091l-12.519,23.785l-19.91,7.272m780.478,-816.898l3.695,-7.154m-1051.23,511.516l3.935,-17.466l5.125,-10.849l12.221,-16.274l30.819,-42.025m957.758,-168.459l-7.631,25.096l-4.112,36.005l-14.009,51.504m-310.332,-350.27l-45.959,-28.852l-53.231,-37.256l-60.743,-37.376l-72.547,-35.229l-82.917,-30.581l-79.877,-23.247l-75.348,-14.306l-79.103,-3.1l-75.347,-2.087l-50.728,-1.371l-21.58,-10.432l-18.24,-11.623l-18.3,-7.69l-18.42,-5.961l-16.393,-4.471l-19.672,-12.459l-23.128,-32.189l1.192,-65.154l-0.239,-0.358l-20.625,-29.031l-9.12,-22.592l0.537,-6.021l0.655,-3.039m5.604,-42.741l6.676,12.697l15.975,20.387l21.759,17.584l21.102,10.671l23.009,7.332l24.56,10.551l28.732,12.101l32.07,12.399l38.389,13.71l55.676,14.962l73.737,16.273l0.656,0.179l80.415,18.838l83.514,25.573l86.852,31.236l80.95,38.15l70.042,41.608l59.73,42.324l47.688,42.919l30.76,42.322l9.178,53.649m482.547,-138.711l-21.819,-22.296m-209.828,206.252l3.578,-54.662l5.603,-14.307l12.756,-32.846l31.414,-31.414l1.55,-1.371l0.239,-0.417l1.371,-2.504l1.967,-3.576l0.12,-0.06l0.059,-0.059m-628.471,846.764l55.139,-0.716l28.554,25.573l9.12,47.389l2.505,60.743l1.548,77.851m-575.953,-437.896l-0.12,-0.239l-0.119,-0.179l-6.259,-10.908l-0.834,-1.55l-5.187,-12.459l-2.981,-19.731l5.724,-23.665l-3.696,-5.365l-2.682,-3.994l-9.061,-14.664l-1.073,-27.36l1.728,-14.963l6.617,-12.578l5.901,-20.565l2.563,-19.075l1.311,0.356l1.908,1.074l4.173,0.416l2.445,0.657l3.933,1.371l2.563,3.279l6.498,8.344l0,15.5l6.677,4.411l17.287,4.411l31.772,7.571l49.298,3.993l41.489,-39.282l20.804,-32.012l4.887,-30.342l-29.089,-25.691l-35.409,-21.818l-36.84,-23.904l-38.687,-5.304l-22.949,25.632l-30.103,-5.127l-31.296,-2.98l-28.792,-5.961l-23.665,-9.061l-10.372,-7.927l-0.774,-8.645l14.783,-25.751l4.113,-6.498l8.404,-17.823l5.127,-10.79l-1.55,-3.338l3.041,-6.318l0.358,-0.835l-0.478,-2.265l-0.893,-38.568l4.59,-40.535l9.119,-35.945l12.638,-36.005l2.384,-22.354l0.656,-12.28l-2.326,-7.867l-14.425,-1.729l-8.285,-3.935l-2.266,-6.199l-1.072,-5.127l-4.471,-6.735l-3.577,-5.485l-0.239,-0.358l-0.655,-1.608l-2.682,-8.824l-1.014,-3.098l-0.536,-1.61l-0.119,-0.477l-1.431,-16.453l1.073,-5.246l-2.623,-19.73l-0.477,-3.756l0.537,-0.655l0.476,-0.537l1.014,-9.3l-0.239,-1.966l-3.814,-3.338l-0,-7.034l-0.597,-4.829l-0.119,-1.192l-0.239,-2.087l-1.013,-1.967l-1.371,-3.695l-5.782,-2.802l-9.478,-20.268l-8.584,-24.977l-0.417,-1.132l-3.16,-20.328l-1.132,-3.576l-6.021,-36.541l5.723,-41.31l8.941,-45.363l9.895,-39.582l0.895,-5.067l0.655,-3.039l5.604,-42.741l14.903,-54.483l1.966,-0.895l12.817,6.677l19.672,11.802l23.545,9.36l29.269,6.854l28.553,13.83l38.926,10.968l36.958,17.586l51.562,15.139l57.406,23.19l71.771,26.824l77.195,29.805l83.096,32.249l86.852,37.376l79.163,41.548l69.684,43.516l58.239,44.528l47.748,45.066l35.408,45.006l29.567,47.092l34.693,49.178l43.993,58.776l61.041,11.445l60.802,3.16l23.188,-14.485l0.716,-3.04l5.842,-24.68l9.12,-35.348l11.087,-16.632l5.902,-17.346l4.291,-1.788l7.274,-6.14l5.961,-4.233l12.517,-11.981l-2.861,-15.5l2.147,-2.324l30.937,-17.704l4.471,-2.861l14.902,-3.696l16.811,-4.173l5.245,-1.311l18.062,0.774l27.123,1.253l10.312,14.545l13.234,18.538l5.364,24.977l0.537,2.444l-1.729,55.854l-4.232,55.378l-0.119,1.014l-1.61,13.174l-31.653,71.89l-58.18,43.336l-42.024,40.475l-42.98,21.938l-46.614,7.987l-40.237,-22.175l-39.224,-15.32l-28.971,7.809l-41.489,25.931l-53.291,39.461l-59.491,42.979l-62.591,36.9l-62.71,30.281l-61.339,23.308l-60.623,16.869l-60.386,11.803l-59.073,12.638l-45.781,15.559l-40.535,8.941l-40.774,3.874l-40.416,2.563l-0.416,0l-30.641,-0.476l-15.497,-3.099l-7.452,-2.684l-4.53,-1.431l-3.04,-1.311l-1.133,-0.476l-1.848,-0.835l-6.916,-2.861l-7.033,-1.312l-19.493,-3.814l-4.946,4.708l-1.61,1.55l-1.074,-0.119l-31.474,-3.576l-1.668,-0.477l-14.129,-3.994l-16.273,-3.04l-3.219,-2.682l-22.294,-7.631l-1.252,-0.417l-19.075,-7.929l-6.08,-2.563l-12.817,-5.125l-4.531,-1.789l-14.485,-3.159l-6.556,-2.028l-4.471,3.339l-6.856,27.718l2.206,21.102l-0.656,0.955l1.55,4.887l0.239,0.537l0.537,1.192l7.867,15.738l18.003,13.412l5.186,21.757l-0.238,30.759l-0.953,36.601l23.486,15.916l5.185,39.819l15.201,35.826l34.992,16.333l51.264,7.928l23.903,27.898l59.79,-5.663l59.67,-9.656l61.876,-15.798l70.577,-22.055l81.429,-26.765l85.838,-29.686l15.38,-40.655l4.292,-55.794l-2.505,-62.71l-5.722,-68.612l-6.616,-68.372l-11.683,-70.997l-19.196,-71.055l-29.805,-71.473l-38.807,-64.737l1.253,-32.368l-12.936,-25.871l-30.818,-24.38l-25.036,3.695l-33.382,-18.598l-36.899,-15.499l-37.376,-11.862l-1.49,-1.55l2.206,-14.604l3.099,-21.341l6.617,-25.751l14.962,-29.508l28.196,-34.633l37.316,-38.33l37.972,-36.66l37.018,-36.719l41.369,-38.211l50.251,-43.098l61.817,-51.563l71.652,-59.015l76.896,-61.16l71.115,-53.649l46.377,-33.56m-755.56,1398.99l-30.997,-15.975l-36.065,-16.692l-27.599,-17.167l-23.248,-30.58l-13.472,-24.798l-12.16,-32.487l-1.55,-36.124l-2.265,-21.46m278.976,-1495.98l59.073,23.247l60.386,31.296l64.617,40.774l67.24,49.297l67.837,55.498l66.584,57.881l61.935,60.325l58.776,61.16l51.027,58.24l46.616,55.199l45.899,55.736l41.25,53.112l35.647,50.133l24.797,43.039l20.746,40.593l18.777,38.032l12.101,27.718l3.754,4.233l-0.714,2.683l-4.829,8.584l-17.525,27.599l-15.798,36.004l-10.907,3.697l-24.023,-3.697l-21.759,-28.673l-22.83,-34.811l-28.315,-36.779l-32.845,-41.192l-38.389,-44.886l-46.317,-47.689l-54.306,-48.164l-61.577,-48.106l-69.028,-50.43l-77.732,-53.41l-78.269,-51.325l-78.626,-47.211l-74.333,-41.311l-67.241,-33.321l-62.054,-28.434l-53.947,-22.116l-56.928,-15.618l-33.56,-15.261l-33.502,-7.748l-26.228,-1.908l-21.878,2.444l-8.464,11.386m163.988,-111.769l46.914,12.517l53.589,20.209l57.762,27.004l63.365,34.275l68.851,42.144l73.201,49.357l74.513,54.662l72.724,57.406l69.507,59.013l61.219,55.319l53.947,52.159l49.417,52.039l43.814,50.789l36.719,46.555l29.984,42.026l23.188,34.216l21.52,32.726l15.082,23.128l11.206,7.332l8.346,7.452l-7.929,51.802l-22.354,42.561l12.459,44.887l-21.639,53.112l-11.802,64.2l-3.755,50.848l-19.732,64.141m-332.804,-1277.63l61.339,53.53l55.975,62.055l47.39,64.616l39.342,63.486l28.911,60.088l14.545,50.191l45.662,23.785l46.913,52.517l47.748,55.675l40.953,55.258l37.911,60.685l26.11,64.497l8.046,69.089m100.444,38.508l-29.686,-64.678m-312.239,1277.27l16.811,-70.042l52.696,-72.068l67.895,-72.069l61.041,-64.856l55.199,-32.369l31.713,-21.043m-28.195,-80.949l-34.217,18.597l-71.83,6.379m-1171.4,-596.699l-2.386,-7.451l-0.356,-76.718m1456.93,-96.867l-2.324,4.232l-34.992,64.618m37.316,-68.85l-2.087,3.994l-34.453,67.002m-547.282,768.436l81.546,11.922l64.618,13.65l56.212,13.352l42.979,17.05l41.966,56.57l46.377,84.348m-758.182,-1914.09l47.926,-17.525l22.413,-8.167l12.697,-4.65m787.094,1840.94l-42.085,-78.09l-30.699,-83.395l-20.268,-111.291l-1.252,-110.697l10.134,-97.641l1.192,-11.446l5.783,-17.227m-747.394,115.347l32.846,87.328l6.14,73.679l-21.103,71.948l-46.317,72.249l-81.666,33.321l-67.121,11.922l-64.379,5.067m1096.35,24.501l-40.535,-84.708l-20.863,-59.907l-6.976,-21.221l-0.714,-1.252l-3.994,-15.201l-20.923,-81.011l1.727,-10.133l-21.637,-94.423l-0.239,-1.073l1.013,-109.206m5.008,-16.69l-8.942,6.318l-5.185,12.638l-0.06,0.537l-18.659,87.03l-3.398,15.797l-12.756,108.551l-17.644,123.273l-55.677,117.671l-65.452,97.879l-52.397,91.622l-41.608,87.746m275.757,-623.166l-0.179,-97.76m-19.015,-10.193l-1.67,5.126l-8.285,25.095l-23.129,70.281l-29.149,109.147l-34.276,117.253l-43.576,109.92l-60.802,100.504l-55.139,95.496l-51.624,86.972m253.702,-699.945l-5.006,8.346l-34.039,57.285l-50.609,112.784l-56.927,107.119l-60.386,104.437l-64.319,104.318l-50.251,89.296l-46.735,89.892m403.383,-683.372l-39.224,85.363l-40.774,110.398l-48.88,113.974l-48.582,103.781l-61.697,102.292l-55.854,94.959l-50.252,88.283m418.047,-170.128l-48.046,-93.29l-47.33,-109.385l-55.08,-9.299l-51.206,-7.213l-52.814,-14.306l-46.794,-16.572l-23.367,-19.015l-4.709,-16.87l70.221,-78.805l29.685,-49.656l18.479,-30.818l1.014,-2.682l24.499,-62.71l9.24,-19.91l-2.981,-7.034l-4.649,-11.028l-8.703,-20.327m-977.608,-1012.66l-18.42,26.885l-8.584,11.386m533.631,-377.751l27.718,-4.948l45.424,-8.046l11.743,-2.087l22.652,-3.994l87.209,-10.073l109.565,-0.299l87.567,6.497l77.314,37.972l113.976,40.118m-1097.13,1544.03l0.179,0.656l0.238,0.536l6.557,23.01l9.717,15.318l3.576,28.912l-1.788,31.773l0.417,18.955l1.133,17.169l13.234,21.518l6.974,20.149l5.424,15.618l28.613,17.525l22.234,30.222l30.283,20.208l36.779,12.459l46.974,4.471l26.287,1.609l26.288,-0.656l28.673,-5.663l11.981,-5.961l50.311,-13.532l60.207,-19.61l22.055,-7.095l53.53,-17.167l16.572,-5.663l69.268,-23.606l27.897,-27.48l84.348,-34.157l9.777,-5.127l65.75,-34.574l6.974,-3.695l76.123,-58.717l64.676,-69.982l37.495,-57.881l0.955,-25.036l-9.837,-28.793l-13.711,-39.58l-11.683,-43.158l-12.517,-50.252l-13.592,-57.583l-18.837,-60.385l-32.13,-55.08l-39.403,-53.412l-57.941,-18.299l-39.103,29.924l-46.675,26.407l-48.225,22.533l-48.224,10.73l-47.629,-0.656l-38.509,-10.193l-27.002,-7.869l-13.95,8.346l-23.189,6.736l-27.957,10.312l-31.056,5.187l-30.402,-0.239l-1.311,-0.418l-25.215,-7.988l-2.623,-0.834l-3.398,-2.622l-20.148,-6.976l-3.577,-2.503l-15.677,-10.849l-0.238,-0.12l-1.073,-6.258l3.516,-4.828l3.697,-7.452l1.251,-6.02l0.06,-0.776l-0.776,-2.026l1.669,-4.113l-3.933,-11.505l-2.921,0.417l-2.087,-2.027l-2.444,-19.909l0.299,-2.087l2.264,-15.975l-0.953,-4.292l0.774,-1.729l11.803,0l3.697,-2.443l11.862,2.742l3.696,5.125l5.723,0.895l17.525,6.081l4.829,4.411l2.562,3.159l1.968,8.405l1.073,21.102l2.682,1.431l-0,0.119l0.656,0.119l42.442,6.378l0.179,-0.179l-1.55,-11.684l1.55,-1.192l24.976,13.353l13.771,7.75l3.636,1.788l2.802,2.145l1.55,1.252l-2.326,3.577l-11.802,5.663l-15.976,6.677l-17.763,5.305l-3.578,0.059l-21.816,3.458l-24.143,-1.073l-12.994,-3.278l-3.16,-3.578l-2.266,-1.072l-7.093,-14.248l-2.563,-13.054l-0.953,-15.677l0.714,-16.572l2.384,-14.783l2.684,-5.842l-3.1,-2.92l-2.623,2.025l-3.398,-0.953l-3.338,-0.953l-9.001,-4.531l-8.882,-4.411l-3.815,-6.08l-0.537,-0.239l-3.458,-1.132l-10.073,-2.266l-17.525,-9.419l-25.036,-17.048l-20.627,-21.936l-7.272,-34.514l8.645,-45.722l18.299,-46.495l24.56,-52.278l33.321,-56.274l0.239,-0.356l45.424,-61.459l55.02,-68.79l69.564,-78.387l89.535,-78.15l106.345,-69.445l113.379,-50.37l108.61,-31.238l106.761,-16.63l103.841,7.273l101.1,37.614l84.825,52.933l71.771,82.024l49.535,88.581l-45.243,87.269l-71.473,88.164l-73.022,58.954l-65.81,47.569l-51.743,42.682l-47.032,44.588l-44.29,40.595l-44.886,40.832l-49.835,40.118l-62.83,32.427l-57.762,44.351l-53.947,29.448l-54.304,24.499l-56.035,9.836l-67.002,-5.127l-51.025,-29.089l-28.553,13.353l-34.575,6.854l-34.753,5.663l-34.395,-2.563l-32.904,-8.942l-26.527,-10.61l-22.83,-14.127l-19.97,-14.545l-15.082,-10.969l-14.962,-9.299l-18.717,8.524l-20.447,16.036l-19.73,31.355l-17.109,33.142l-16.632,38.092l-11.444,32.129l-5.068,26.765l-0.416,12.877l17.585,15.141l13.054,26.347l-4.292,30.341l-20.923,18.778l-25.155,1.908l-11.148,-2.504l-4.292,-1.133l-10.253,-2.861l-6.675,-1.848l-0.358,-0.536l-1.312,-1.848l-11.922,-0.776l-9.06,0.657l-8.763,0.893l-2.266,4.531l-4.053,13.114l-0,0.537l-8.882,5.127l-19.731,-0l-9.24,-0.895l-12.816,-3.16l0,-0.059l-19.373,-14.008l-8.703,-27.481l-23.367,-6.914l-9.24,-9.598l2.205,-11.922l4.411,-22.533l9.121,-32.903l14.783,-33.92l1.015,-5.842l10.431,-24.082l-0.477,-1.966l-0.06,-0.12l-8.524,-36.601l3.576,-8.345l11.387,-9.955l12.219,-9.538l12.16,-9.12l8.227,-5.066l0.894,-1.789l3.637,-3.338l4.53,-5.902l10.074,-28.315l8.225,-23.01l5.545,-24.201l3.16,-13.71l-2.803,-8.643l-0.237,-9.419l-1.194,-0.358l-1.192,-8.822l0.299,-5.603l-0.478,-0.955l-16.691,-0l-18.001,-1.192l-0.298,-0.06l-15.798,-4.827l-11.444,-6.08l-3.339,-4.591l-1.013,-1.848l-3.1,-5.364l-0.119,-0.179l-0.537,-2.624l2.147,-8.166l-3.875,-11.564l-1.133,-2.326l-0.655,-1.906l-1.49,-10.79l-0.06,-3.875l-2.206,-19.909l-0.476,-0.836l-0.716,-1.43l0.119,-1.431l1.073,-9.895l0.059,-0.298l1.312,-0.953l1.49,-1.491l3.159,-0.656l1.134,0.06l2.921,-0.418l4.53,-0.655l5.007,-0.298l0.298,0.06l0.537,-1.431l3.337,2.682l1.61,2.206l-1.907,1.61l-1.253,7.272l-2.921,13.948l-1.072,15.738l1.609,15.379l8.524,4.709l3.577,13.77l0.06,0.12l3.398,12.636l1.847,2.207l0.418,0.893l2.921,0.955l4.291,1.43l4.889,-0.835l7.988,-8.285l5.961,-11.445l1.847,-17.407l-0.715,-5.722l-2.027,-2.504l-11.683,-10.431l-1.491,-1.133l-1.132,-0.656l-6.557,-23.665l-2.981,-10.909l-0.595,-0.894l-0.657,-1.014l-22.771,-34.633l-26.467,-43.694l5.663,-45.185l-0.536,-51.384l-0.716,-57.286l4.352,-61.696l10.193,-68.075l6.379,-22.056l14.843,-51.861l2.027,-4.709l33.679,-78.208l8.584,-11.386l2.027,-3.934l4.113,-6.259l55.199,-81.071l10.372,-10.014l30.521,-29.567l41.727,-40.356l28.434,-18.002l36.6,-8.405l106.525,-70.4l51.86,-1.49l117.79,-57.702l64.975,10.551l67.419,27.599l65.154,42.919l133.647,-37.971l128.519,-14.843l124.049,10.909l52.398,75.764l27.421,83.514l10.372,91.085l-5.664,91.561l-33.142,92.455l-49.775,93.469l-55.438,67.479l-58.835,56.928l-55.855,51.502l-51.324,46.198l-47.093,41.311l-42.8,36.242l-37.733,30.701l-34.752,27.897l-34.753,26.586l-37.018,27.957l-38.389,26.884l-36.303,23.249l-32.249,17.047l-47.807,-27.956l-54.902,-23.606l-0.238,-0.298l-56.392,-18.241l-50.906,-13.651l-47.391,-7.332l-47.985,0.775l-42.682,4.71l-34.812,-20.507l-15.26,-35.408l1.967,-45.602l14.485,-53.947l26.467,-59.551l33.024,-63.187l47.629,-72.366l54.602,-76.361l67.42,-85.303l90.667,-86.196l111.709,-75.586l122.499,-53.947l119.937,-36.779l119.637,-21.877l111.59,0.476l117.493,23.189l99.37,49.834l82.619,82.74l-15.021,93.468l-35.945,90.19l-59.254,89.118l-71.114,79.163l-64.081,61.397l-52.159,50.312l-52.219,45.601l-47.151,41.429l-46.019,39.165l-45.424,35.885l-42.441,25.87l-32.905,8.942l-30.997,-27.659l-49.298,-38.627l-60.028,-40.655l-70.758,-38.269l-82.202,-34.336l-82.978,-26.407l-82.977,-20.804l-81.785,-9.06l-73.44,-9.36l-55.498,-6.02l-26.586,-10.193l-23.247,-13.472l-23.844,-9.24l-21.401,-9.3l-20.684,-5.126l-17.227,-10.312l-2.027,-81.25l4.948,-87.567l18.359,-91.263l36.422,-97.88l62.651,-99.966l5.901,-5.842l78.745,-77.613l2.801,-3.159l1.908,-1.49l12.398,-7.869l49.001,-31.891l19.194,-12.578l17.227,-11.266l25.991,-13.353l22.473,-11.565l47.629,-24.44l55.258,-18.181l62.233,-5.543l118.385,-51.445l18.003,-2.622l11.028,-4.173l12.577,0.715l74.632,-10.788l78.389,7.57l118.743,-1.372l109.98,37.316l81.31,40.774l72.187,57.881l92.992,78.269l39.224,83.811l26.765,41.371l37.197,57.642l46.555,114.213l6.14,63.784l3.398,35.289l4.65,48.403l-1.013,58.895l-19.254,127.03l-7.81,22.533l-24.5,70.995l-8.763,25.394l-23.963,26.646l-15.32,36.779l1.967,5.425l0.776,2.146l8.643,23.724l2.682,67.122l-18.002,78.209l-44.708,75.585l-66.226,53.172l-47.867,44.708l-13.353,9.538l-0.775,0.537l-5.008,16.69l-9.119,2.266l-10.492,-1.431l-0.596,0.418l-10.85,7.688l-7.987,2.266l-35.111,9.895l-19.194,5.366l-14.605,-2.981l-17.704,-3.696l-8.822,-1.848l-17.228,11.565l-42.322,53.232l-43.635,56.152l-4.292,5.545l-60.267,63.424l5.068,27.778l1.55,18.54l-77.732,59.073l-6.021,4.59l-80.653,39.939l-13.89,6.915l-73.737,27.182l-20.386,7.511l-39.403,24.142l-18.717,6.08l-38.509,15.679l-34.097,5.543l-13.234,2.205l-3.635,0.596l-3.637,1.073l-6.974,2.027l-30.342,8.822l-33.918,8.644l-19.91,7.272l-29.626,6.08l-46.377,5.842l-46.793,3.339l-26.111,-15.201l-51.86,-5.245l-23.307,-30.581l-14.666,-37.494l-6.974,-41.37l-2.682,-40.237l-3.933,-32.488l-8.287,-22.652l-24.143,-10.908l-12.696,-13.83l-10.611,-9.538l-5.662,-11.922l-3.339,-20.863l-19.612,-13.532l-12.161,-17.704l-1.966,-18.896l3.934,-10.014l0.06,-0.179l-2.682,-3.935l-4.77,-5.066l-2.383,-5.128l-1.908,-4.47l-5.424,-4.411l-4.055,-5.424l-4.113,-3.458l-2.146,-2.086l-3.278,-23.428l-0.238,-13.591l1.132,-6.139l0.834,-7.451l1.432,-5.604l5.782,-25.514l10.611,-5.483l18.478,-0l0.358,0.059l20.923,5.187l21.282,-1.908l25.81,-3.279l36.243,-6.259l1.192,0.119l5.782,22.354l12.996,43.158l33.202,33.858l29.21,30.104l26.407,26.169l20.267,22.653l8.941,20.803l-2.443,22.056l-15.499,21.222l-25.394,16.154l-31.831,10.491l-33.502,1.192l-14.425,-21.401l-8.405,-14.425l-5.186,-13.412l-3.994,-19.075l1.966,-24.262l1.371,-2.563l-0.774,1.252l-31.057,-3.518l-24.142,-5.185l-20.386,-7.929l-19.195,-13.352l-2.027,-2.623l-2.266,-3.398l-6.974,-13.353l-3.279,-5.961l-2.622,-4.769l-1.013,-25.87l4.053,-14.426l5.722,-8.942l6.618,-10.312l5.662,-14.127l-0.417,-15.977l-4.173,-7.63l-4.65,-2.682l-1.251,-0.894l-5.068,-0.895l-1.311,-0.356l-5.424,-2.921l-4.709,2.205l-1.133,11.267l-7.69,19.73l-4.769,13.055l-1.192,15.26l1.67,26.348l7.451,8.285l11.624,8.882l16.273,5.723l17.169,4.53l20.505,10.492l25.99,15.141l5.843,13.651l-4.889,7.033l-2.146,28.136l3.935,20.625l6.198,12.698l9.121,12.399l28.971,2.145l31.892,-3.575l31.831,-9.121l24.976,-12.877l15.261,-13.768l3.637,-13.472l-6.737,-4.352l-4.59,-0.776l-3.1,-1.012l-1.728,0.238l-0.775,0.953l1.729,6.14l3.993,5.007l7.571,7.274l16.691,11.683l28.971,10.848l39.282,6.737l44.29,7.57l44.113,2.145l50.49,-6.138l56.033,-12.579l60.863,-16.154l62.768,-17.644l65.036,-26.349l65.392,-32.785l64.915,-41.847l59.491,-48.999l50.549,-48.403l36.841,-34.515l-7.035,-34.574l-4.708,-44.529l-5.068,-56.987l-6.676,-73.738l32.01,-66.108l35.17,-51.206l37.853,-45.243l41.847,-32.905l34.275,-24.262l40.952,-17.763l20.686,3.458l21.817,-8.287l39.104,-79.103l-5.782,-101.873l-28.018,-84.706l-42.978,-75.169l-57.225,-55.08l-54.067,-45.066l-71.771,-42.859l-78.805,-0.774l-75.764,25.274l-85.959,50.966l-87.627,63.307l-79.877,64.618l-67.121,59.67l-54.067,51.025l-41.369,44.351l-33.144,41.548l-34.871,39.82l-29.925,41.249l-21.878,37.555l-8.941,32.249l2.624,26.765l5.543,22.294l42.264,12.698l46.139,15.26l45.541,19.493l22.951,-13.949l26.287,-19.732l31.057,-24.857l36.184,-29.15l37.495,-30.818l35.468,-29.865l35.05,-29.566l39.224,-32.905l43.635,-37.555l50.191,-43.634l56.213,-50.073l59.373,-55.199l59.61,-60.683l52.814,-63.663l43.456,-82.86l5.245,-85.539l-13.472,-91.025l-26.765,-76.66l-34.573,-78.804l-51.802,-68.194l-73.32,-55.14l-73.38,-33.858l-125.6,18.12l-122.439,53.174l-123.154,59.133l-59.611,-11.982l-114.272,73.44l-97.702,95.675l-39.105,-4.71l-31.89,2.683l-23.07,11.146l-42.919,64.379l-16.393,22.951l-2.147,3.934l-33.619,91.383l-18.956,83.514l-7.035,81.785l0.537,69.863l-0,0.835l23.249,28.136l-1.313,69.207l-0.416,57.881l3.695,49.477l4.172,3.458l25.991,21.341l10.432,-1.134l7.988,3.458l9.298,53.351l-3.277,30.342l3.04,29.745l-8.824,42.74l-21.16,47.51l-18.778,45.543l-21.519,42.919l-16.512,36.004l-17.049,33.68l-8.882,34.097l-7.987,34.932l15.379,29.626l16.691,4.769l20.267,-0.656l21.878,-5.603l23.784,-3.697l25.335,1.074l2.92,2.145l12.221,1.55l12.338,0.418l27.481,5.305l19.075,2.325l9.18,3.934l1.192,0.119l26.051,-17.883l6.615,-30.937l-11.206,-34.813l1.67,-33.62l8.225,-31.534l13.114,-32.726l16.691,-34.216l0.12,-0.179l16.691,-29.626l16.751,-20.267l14.007,-18.48l8.406,-7.332l3.397,-6.438l3.875,-6.319l8.226,-4.708l4.769,-3.875l0.239,-2.563l-0.537,-4.292l-0,-0.298l-0.12,-0.834l-0.119,-0.716l-1.49,-3.339l-1.907,-1.072l0.06,-7.511l-0.537,-6.14l0.298,-2.862l0.715,-1.132l-0.179,-1.43l-6.377,-2.326l-8.585,-2.205l-6.378,-4.292l-11.147,-3.279l-23.069,-7.212l-30.819,-3.16l-39.104,-15.499l-28.971,-24.202l-3.398,-4.172l-4.65,-1.55l-41.309,-1.907l-16.811,-3.875l-16.273,-11.147l-1.013,-45.662l-8.703,-55.675l0.894,-58.418l3.159,-70.699l4.173,-78.685l13.651,-89.356l21.519,-92.634l40.178,-103.067l73.916,-107.595m510.979,1794.27l34.514,-87.449l40.834,-86.554l50.43,-106.165l-15.559,-54.544l-1.132,-26.765l6.08,-23.486l0.12,-34.157l-7.81,-48.82l-11.564,-57.763l-12.101,-63.067l-12.994,-67.42l-15.679,-67.777l-21.996,-63.843l-27.777,-54.483l-28.673,-44.231l-25.931,-37.733l-33.143,-33.977l-43.754,-32.905l-53.769,-30.641l-64.797,-26.944l-66.405,-21.22l-60.147,-14.665l-54.961,-6.198l-58.418,4.47l-56.867,6.139l-34.098,10.194l-8.763,-5.544l-12.219,-12.161l-20.863,-20.625l-5.008,-4.947l-1.61,-54.96l11.445,-58.717l16.691,-63.961l21.043,-75.646l32.726,-82.023l43.038,-88.224l58.657,-96.866l87.746,-100.86l112.068,-89.238l127.386,-66.704l129.593,-49.536m-376.438,61.697l-103.96,96.568l-87.27,110.339l-38.508,100.444l-28.196,93.826l-17.644,86.077l-7.332,77.434l-6.14,67.36l-4.113,58.179l1.49,53.411" style="fill:none;stroke:#f0f0f0;stroke-width:5.21px;"/></g><g><path d="M2403.73,2137.56l-11.501,10.083l-83.083,72.875l-95.457,157.708l-96.25,155.375l-97.209,127.709l-99.916,9.375l-97.875,26.208l-96.458,8.334l-98.917,40.79l-99.751,67.792l-100.791,79.25l-95.667,-38.041l-94.208,-35.25l-92.958,-37.583l-91.708,-38.293l-90.46,-38.916l-89.082,-35l-102.667,49.459" style="fill:none;stroke:#030404;stroke-width:8.33px;"/><path d="M1420.89,2998.19l102.668,-65.5l100.791,-85.916l99.417,-88.667l64.166,-39.833l34.501,-21.375l58.578,-54.042l38.291,-35.334l95.297,-138.916l98.453,-58.124l94.959,-152.709l71.047,-70.5l23.25,-23.083l76.791,-20.167" style="fill:none;stroke:#030404;stroke-width:8.33px;"/><path d="M949.271,2796.27l102.709,-52.376l100.708,-66.874l91.833,39.208l99.374,-68.917l98.126,-67l96.375,-84.457l94.917,-98.418l93.958,-97.583l93.292,-72.833l37.5,-22.5l54.874,-33l0.084,-0l91.376,-39.875l90.498,11.708l88.996,23.5l40.171,3.083" style="fill:none;stroke:#030404;stroke-width:8.33px;"/><path d="M4135.52,2519.77l-107.041,-34.959l-105.625,-34.458l-104.25,-34.041l-102.875,-33.584l-101.542,-33.166l-100.249,-32.709l-98.958,-32.334l-97.709,-31.874l-96.501,-31.5l-95.29,-31.125l-94.084,-30.708l-92.917,-30.334l-91.791,-29.958l-78.709,20.625l-60.083,-19.875l-29.625,-9.834l-1.125,-0.374l-79.874,10.624l-81.085,11.209l-82.249,6.167l-90.208,-41.084l-83.71,3.709l-85,10.333l-86.415,-3.375l-87.797,-4.709l-89.246,-2.083l-89.791,53.834l-91.167,43.416l-92.833,24.625l-94.001,33.875l-93.666,94.375l-95.041,83.084l-95.917,89.25l-97.5,77.958l-99.291,64.333l-100.835,59.875l-102.624,52.625l-89.125,-38.166l-87.875,-37.626l-86.709,-37.124l-85.5,-36.625l-84.375,-36.125" style="fill:none;stroke:#030404;stroke-width:8.33px;"/><path d="M528.145,2533.73l101.334,-37.709l99.917,-37.124l98.458,-36.667l97.166,-36.083l95.751,-35.625l94.458,-35.125l93.166,-34.667l91.917,-34.166l90.625,-33.709l89.459,-33.292l88.25,-32.791l32.625,-12.125l54.458,-20.25l85.958,-32.001l48.167,-17.916l36.625,-13.583l83.704,-31.166l82.672,-30.709l81.583,-30.334l80.536,-29.958l84.375,26.125l85.464,26.917l86.458,26.25l87.541,25.499l88.625,27.626l89.709,28.417l78.874,-20.125" style="fill:none;stroke:#030404;stroke-width:8.33px;"/><path d="M2846.69,2099.02l-90.668,-29.583l-89.541,-29.25l-88.5,-28.917l-87.417,-28.5l-86.375,-28.209l-79.374,27.209l-80.459,21.958l-81.5,23.667l-82.666,21.125l-65.291,14.375l-16.459,3.417l-13.292,0.292l-56.917,-2.835l-17.005,-0.833l-23.327,1.501l-65.918,4.25l-36.583,20.999l-53.166,30.542l-91.251,37.542l-92.667,30.375l-93.791,40.708l-24.708,21.417l-69.084,59.875l-95.084,76l-95.957,83.584l-97.292,78.666l-99.167,64l-100.791,57.583l-87.834,-34.541l-86.708,-35.084l-85.541,-35l-84.21,-31.625l-102.833,38.209" style="fill:none;stroke:#030404;stroke-width:8.33px;"/><path d="M629.479,2496.02l84.208,29.876l99.917,-39.251l85,20.042l98.251,-47.666l85.791,6.5l96.208,-70.334l86.791,-9.041l89.418,27.417l91.124,42.25l92.209,40.042l94.125,68.207l94.791,47.542l95.543,19.417l96.452,-23.501l98.001,-50.791l100.13,-23.125l102.083,-9.75l96.666,-95.208l95.501,-78.084l94.165,-68.167l93.126,-84.916l92,-82.5" style="fill:none;stroke:#030404;stroke-width:8.33px;"/><path d="M827.854,2422.23l84.209,24.375l97,-40.875l84.458,0.917l5.458,-3.125l89.833,-51.75l85.043,-26.875l52.541,-36.792l6.583,-4.625l34.833,-24.416l17.584,-10.083l66.584,-34.792l9.124,-4.668l60.25,-25.624l6.167,-2.625l25.916,-11.042l87.542,-12.458l89.625,19.833l90.875,19.167l91.001,-57.458l89.917,-49.875l89.373,31.624l87.667,18.251l86.125,-7.417l7.542,4.666" style="fill:none;stroke:#030404;stroke-width:8.33px;"/><path d="M4135.52,2519.77l-76.542,38.041l-77.582,38.584l-78.708,39.124l-79.959,39.751l-81.083,40.334l-82.291,40.916l-83.584,41.541l-84.792,42.167l-86.125,42.792l-108.376,-64.375l-105.749,-105.208l-104.124,-128.751l-102.167,-175.416l-65.542,-140.667l-21.667,-46.542l-7.666,-16.416l-6.083,-13.083l-56.46,-32.001l-46.708,-26.499l-41.333,-8.834l-48,-10.25l-56,-0.374l-46.875,-0.251l-60.376,2.792l-30.999,1.417l-44.876,9.166l-48.124,9.834l-24.625,6.458l-48.084,-13.125l-35.374,-9.667l-14.793,10.042l-6.707,4.583l-1.042,0.708l-41.213,28.043l-7.829,5.332l-2.832,1.918l-17.792,12.333l-0.75,0.291l-31.334,34.167l-62.583,68.166l-94.167,181.792l-97.13,9.375l-94.619,153.042l-96.875,74.209l-95.418,-20.042l-94.833,-51.042l-93.708,-53.834l-91.917,-34.666l-97.75,74.291l-99.666,57.084l-90.333,-31.917l-89.126,-32.708l-87.75,-30.25l-86.624,-31.125l-85.168,-25.125l-101.332,39.458l-102.668,42.709" style="fill:none;stroke:#030404;stroke-width:8.33px;"/><path d="M1553.44,2170.23l48.417,-21.458l42.625,-18.917l32.167,-13.208l57.709,-23.751l26.374,-7.291l61.25,-16.916l89.583,11.666l9.001,0.917l81.834,8.167l34.666,20.208l57.832,33.708l77.537,22.625l15.922,4.625l14.958,13.459" style="fill:none;stroke:#030404;stroke-width:8.33px;"/></g></g></svg>