<?xml version="1.0" encoding="UTF-8" standalone="no"?><!DOCTYPE svg PUBLIC "-//W3C//DTD SVG 1.1//EN" "http://www.w3.org/Graphics/SVG/1.1/DTD/svg11.dtd"><svg width="100%" height="100%" viewBox="0 0 3520 3537" version="1.1" xmlns="http://www.w3.org/2000/svg" xmlns:xlink="http://www.w3.org/1999/xlink" xml:space="preserve" xmlns:serif="http://www.serif.com/" style="fill-rule:evenodd;clip-rule:evenodd;stroke-miterlimit:10;"><g id="Grids"><g id="_25"><g><path d="M2174.42,193.151c295.708,132.625 541.5,348.416 721.25,617.5c183.458,274.625 293.833,596.583 322.792,925.208c16.75,189.917 3.208,379.458 -35.417,565.917c96.375,-27.084 240.25,-76.459 241.208,-198.417c0.917,-113.25 -111.916,-208.083 -192.875,-271.583c-192.083,-150.542 -423.625,-253.542 -649.583,-341.834c-229.417,-89.625 -465.708,-161.958 -704.917,-220.5c-239.458,-58.625 -482.708,-103.625 -727.875,-130.208c-239.666,-26 -488.875,-40.5 -727.666,0.792c-103.292,17.875 -250.167,48.625 -307.125,148.125c-61.292,107.125 40.625,222.458 115.666,290.708c175.917,160.083 404.334,265.792 621.959,356.125c230.208,95.583 468.458,171.917 709.625,234.5c237.125,61.542 478.125,109.542 721.208,140.5c241.125,30.708 489.542,49.042 731.833,21.375c56.917,-6.5 112.834,-16.375 168.542,-29.667c69.208,-334.166 51.708,-679.541 -53.25,-1004.58c-101.292,-313.792 -280.333,-604.25 -525.75,-825.708c-137.75,-124.334 -294.458,-221.834 -465.5,-293.292c11.958,5 23.917,10 35.875,15l-0,0.042Z" style="fill:none;fill-rule:nonzero;stroke:#fff;stroke-width:12.5px;"/><path d="M2138.54,178.151l-0.958,3.916l0.958,-3.916Z" style="fill:none;fill-rule:nonzero;stroke:#fff;stroke-width:12.5px;"/><path d="M3187.96,2259.94c60.208,-327.666 37.958,-664.75 -67.792,-981.083c-101.917,-304.917 -277.917,-587.208 -517.083,-803.25c-137.792,-124.458 -294.292,-222.083 -465.459,-293.583c307.042,128.25 563.875,346.666 749.542,622.208c185.208,274.792 297.333,596.875 327.292,926.583c17.333,191.125 4,381.959 -34.875,569.625c-232.834,55.459 -478.209,48.5 -715.167,27.959c-245.458,-21.292 -489.083,-62.917 -729.208,-117.625c-239.625,-54.584 -476.375,-123.375 -707.084,-208.209c-228.5,-84.041 -458,-182.458 -660.208,-319.625c-91.542,-62.083 -193.25,-136.916 -244.625,-237.875c-64.042,-125.833 25.167,-216.333 139.083,-260.791c217.292,-84.792 476.375,-74.334 704.959,-59.5c243.958,15.833 486.541,53.166 725.583,103.958c244.417,51.917 486,118.333 721.875,200.875c230.375,80.625 459.917,175.125 668.417,303.083c139.583,85.625 502.708,340.125 251.083,504.375c-47.208,30.834 -100.833,48.167 -154.708,63.334l8.416,-40.542l-0.041,0.083Z" style="fill:none;fill-rule:nonzero;stroke:#fff;stroke-width:12.5px;"/><path d="M1396.87,3379.82c301.25,106.375 626.917,115.042 926.209,-3.958c294.083,-116.917 533.75,-343.375 686.25,-618.75c79.416,-143.417 133.416,-297.25 170.208,-456.625c96.167,-27 239.667,-76.25 240.625,-197.917c0.917,-112.958 -111.708,-207.666 -192.417,-270.916c-191.625,-150.209 -422.583,-252.917 -648,-340.959c-228.875,-89.416 -464.583,-161.541 -703.208,-219.958c-237.292,-58.083 -478.292,-102.75 -721.208,-129.375c-239.334,-26.25 -487.5,-40.5 -726.084,-0.542c-104.166,17.459 -250.666,47.75 -309.666,146.459c-63.584,106.375 37.666,222.5 112.708,290.958c176.583,161.042 406.167,267.208 624.833,357.75c230.084,95.25 468.084,171.417 709.042,233.792c235.5,60.916 474.833,108.5 716.208,139.166c240.209,30.5 487.625,48.75 729,21.167c56.792,-6.5 112.542,-16.333 168.125,-29.583c-69.375,300.541 -207.375,582.458 -431,798.75c-226.208,218.791 -526.166,352.125 -841.375,364.125c-187.916,7.166 -371.541,-30.417 -546.458,-97.417l36.125,13.833l0.083,0Z" style="fill:none;fill-rule:nonzero;stroke:#fff;stroke-width:12.5px;"/><path d="M1360.75,3365.98l-0.958,3.875l0.958,-3.875Z" style="fill:none;fill-rule:nonzero;stroke:#fff;stroke-width:12.5px;"/><path d="M1359.79,3369.86l36.25,13.875c-12.292,1.958 -77.417,-2.625 -77.75,-21.958c-0.333,-18.417 60.75,-1.875 69.333,4.625c9,6.833 19.5,8.75 8.417,17.333l-36.25,-13.875Z" style="fill:none;fill-rule:nonzero;stroke:#fff;stroke-width:12.5px;"/><path d="M3183.04,2301.78c-68.083,294.875 -201.75,571.666 -417.917,786.958c-221.083,220.167 -515.291,357.542 -827.208,377.208c-185.292,11.709 -367.5,-20.625 -541.917,-82.208c33.75,-26.042 -141.958,-40.167 -51.083,-6.375c15.792,5.875 34.417,9.083 51.083,6.375c302.625,106.875 629.667,115.25 930.167,-4.667c294,-117.291 533.833,-344.083 686.25,-619.541c79.542,-143.792 133.708,-297.917 170.625,-457.75c-233.417,55.625 -479.375,48.625 -716.917,28.041c-246.041,-21.333 -490.25,-63.083 -730.958,-117.916c-240.208,-54.709 -477.542,-123.667 -708.833,-208.709c-227.667,-83.708 -455.417,-181.958 -657.5,-317.5c-93.125,-62.458 -195.584,-137.958 -248.584,-239.666c-64.666,-124.125 20.334,-215.709 133.667,-261.209c216.708,-87 477.5,-76.416 706.208,-61.875c244.834,15.542 488.334,52.834 728.25,103.625c244.75,51.792 486.792,118.042 723,200.584c231.084,80.75 460.625,175.25 670.292,302.666c140.542,85.417 510.375,342.792 256.458,508.542c-47.333,30.917 -101.083,48.292 -155.083,63.5l-0,-0.083Z" style="fill:none;fill-rule:nonzero;stroke:#fff;stroke-width:12.5px;"/><path d="M3183.04,2301.78l32.75,-9.209l30.5,-10.083l28.208,-10.917l25.917,-11.75l23.542,-12.583l21.125,-13.375l18.708,-14.125l16.25,-14.917l13.75,-15.625l11.208,-16.333l8.709,-17.042l6.125,-17.708l3.583,-18.333l1,-18.917l-1.542,-19.5l-4.125,-20.042l-6.666,-20.583l-9.25,-21.042l-11.75,-21.5l-14.292,-21.916l-16.792,-22.292l-19.25,-22.667l-21.708,-22.958l-24.125,-23.25l-26.5,-23.5l-28.875,-23.708l-31.167,-23.875l-33.416,-24l-35.584,-24.084l-37.75,-24.166l-39.833,-24.167l-41.833,-24.167l-43.792,-24.125c-15.25,-8 -30.458,-16 -45.708,-24c-15.834,-7.958 -31.667,-15.916 -47.5,-23.875c-16.417,-7.916 -32.834,-15.833 -49.25,-23.708c-17,-7.833 -33.959,-15.667 -50.959,-23.542c-17.5,-7.75 -35,-15.541 -52.541,-23.291c-18,-7.667 -36.042,-15.334 -54.042,-23c-18.5,-7.584 -37,-15.125 -55.458,-22.709c-18.917,-7.458 -37.875,-14.916 -56.792,-22.333c-19.375,-7.333 -38.708,-14.625 -58.083,-21.958c-19.75,-7.167 -39.5,-14.375 -59.209,-21.542c-20.083,-7.042 -40.208,-14.083 -60.291,-21.083c-20.417,-6.875 -40.834,-13.75 -61.292,-20.625c-20.708,-6.709 -41.417,-13.417 -62.167,-20.084c-21,-6.5 -41.958,-13.041 -62.958,-19.541c-21.208,-6.334 -42.417,-12.667 -63.625,-18.959c-21.417,-6.125 -42.792,-12.25 -64.208,-18.375c-21.584,-5.916 -43.125,-11.833 -64.709,-17.75c-21.708,-5.708 -43.375,-11.375 -65.083,-17.083c-21.792,-5.458 -43.583,-10.917 -65.375,-16.375c-21.833,-5.208 -43.708,-10.458 -65.542,-15.667c-21.875,-4.958 -43.75,-9.958 -65.625,-14.916c-21.875,-4.709 -43.75,-9.459 -65.625,-14.167c-21.833,-4.458 -43.666,-8.917 -65.458,-13.375c-21.75,-4.208 -43.5,-8.375 -65.25,-12.583c-21.625,-3.917 -43.292,-7.834 -64.917,-11.75c-21.5,-3.625 -43,-7.25 -64.5,-10.917c-21.333,-3.333 -42.625,-6.708 -63.958,-10.042c-21.125,-3.041 -42.208,-6.125 -63.333,-9.166c-20.875,-2.75 -41.75,-5.5 -62.584,-8.25c-20.583,-2.459 -41.166,-4.917 -61.791,-7.375c-20.292,-2.167 -40.584,-4.292 -60.834,-6.459l-59.833,-5.541c-19.583,-1.542 -39.167,-3.084 -58.708,-4.584c-19.167,-1.208 -38.334,-2.416 -57.5,-3.666c-18.75,-0.917 -37.5,-1.792 -56.209,-2.709c-18.291,-0.583 -36.583,-1.166 -54.833,-1.75c-17.792,-0.25 -35.583,-0.541 -53.375,-0.791c-17.292,0.041 -34.542,0.083 -51.833,0.166c-16.75,0.375 -33.459,0.75 -50.209,1.084l-48.5,2.041l-46.708,3l-44.875,3.917l-42.958,4.875l-40.959,5.792l-38.916,6.708l-36.834,7.625l-34.666,8.5l-32.417,9.417l-30.167,10.25l-27.833,11.125l-25.5,11.958l-23.125,12.75l-20.667,13.542l-18.208,14.333l-15.75,15.083l-13.208,15.792l-10.709,16.5l-8.166,17.167l-5.584,17.833l-3.041,18.458l-0.459,19.042l2.084,19.625l4.666,20.125l7.209,20.625l9.75,21.125l12.25,21.542l14.75,21.958l17.25,22.333l19.708,22.667l22.125,22.958l24.5,23.209l26.833,23.458l29.167,23.625l31.417,23.792l33.625,23.916l35.791,24l37.875,24.042l39.917,24.042l41.917,24c14.625,8 29.208,15.958 43.833,23.958c15.208,7.958 30.458,15.917 45.667,23.833c15.833,7.917 31.625,15.792 47.458,23.709c16.375,7.833 32.75,15.708 49.167,23.541c16.916,7.792 33.875,15.542 50.791,23.334c17.459,7.708 34.875,15.375 52.334,23.083c17.916,7.583 35.875,15.208 53.791,22.792c18.417,7.5 36.792,15 55.209,22.5c18.833,7.375 37.666,14.75 56.5,22.166c19.25,7.25 38.5,14.5 57.708,21.75c19.625,7.125 39.25,14.25 58.833,21.334c19.959,6.958 39.917,13.916 59.875,20.916c20.292,6.792 40.542,13.625 60.834,20.417c20.583,6.625 41.125,13.292 61.708,19.917c20.833,6.458 41.625,12.916 62.458,19.375c21.042,6.25 42.084,12.541 63.125,18.791c21.25,6.084 42.459,12.125 63.709,18.209c21.375,5.875 42.791,11.708 64.166,17.583c21.5,5.625 43.042,11.292 64.542,16.917c21.625,5.416 43.208,10.833 64.833,16.25c21.667,5.166 43.334,10.375 65,15.541c21.709,4.917 43.375,9.875 65.084,14.792c21.708,4.667 43.375,9.375 65.083,14.042c21.667,4.416 43.292,8.875 64.958,13.291c21.584,4.167 43.167,8.334 64.709,12.5c21.458,3.875 42.958,7.792 64.416,11.667c21.334,3.625 42.667,7.25 64,10.875c21.167,3.333 42.334,6.667 63.5,10c20.959,3.042 41.917,6.083 62.875,9.167c20.709,2.75 41.459,5.5 62.167,8.291l61.375,7.375l60.5,6.5c19.833,1.875 39.667,3.709 59.5,5.584c19.458,1.541 38.958,3.125 58.417,4.666c19.083,1.25 38.166,2.5 57.25,3.75c18.666,0.917 37.333,1.875 56,2.792l54.666,1.875c17.75,0.292 35.5,0.625 53.25,0.917l51.75,-0c16.709,-0.334 33.417,-0.625 50.167,-0.959l48.5,-1.875l46.75,-2.833l44.958,-3.75l43.084,-4.708l41.125,-5.625l39.125,-6.542l37.041,-7.417l34.917,-8.333l-0.25,0.042Z" style="fill:none;fill-rule:nonzero;stroke:#fff;stroke-width:12.5px;"/><path d="M3074.04,1145.82c61.167,-17.166 139,-42.833 169.458,-104.416c27.375,-55.375 -2.125,-114.667 -37.166,-159c-106.542,-134.75 -283.75,-218.667 -436.875,-287.959c-190.334,-86.166 -389.834,-152.25 -591.584,-205.75c-207.375,-55 -418.958,-96 -632.333,-118.75c-178.458,-19 -364.667,-29.208 -542.292,2.5c-115.666,20.625 -304.083,85.834 -221.875,236.834c78.417,144.041 265,233.125 406.459,301.25c181.166,87.25 372.125,154.625 565.375,209.583c208.75,59.333 421.833,105.042 637.166,132.5c182.834,23.333 370.792,37.25 554.584,16.292c43.541,-4.959 86.583,-12.375 129.083,-23.084Z" style="fill:none;fill-rule:nonzero;stroke:#fff;stroke-width:12.5px;"/><path d="M2346.96,281.359c82,-19.125 -4.75,-81.75 -38.084,-99.167c-80.708,-42.083 -174.583,-65.833 -264.708,-75.458c-30.292,-3.25 -164.958,-19.042 -157.375,39.958c7.292,56.75 137.958,91.917 179.417,104.709c80.375,24.833 173.666,46.083 258.25,34.25c7.625,-1.084 15.125,-2.417 22.541,-4.334l-0.041,0.042Z" style="fill:none;fill-rule:nonzero;stroke:#fff;stroke-width:12.5px;"/><path d="M2819.54,710.484c85.083,-22.667 160.75,-80.333 100.542,-170.042c-66.084,-98.458 -196.709,-159.291 -300.584,-207.166c-262.666,-121.042 -553.291,-195.417 -840.25,-227.625c-87.833,-9.875 -634.208,-60.709 -553.458,149.458c39.167,101.875 176.958,168.25 267.625,213.583c126.583,63.25 260.75,111.292 396.417,150.875c267.416,77.959 568.833,141.209 848.416,106.125c27.334,-3.416 54.584,-8.166 81.292,-15.208Z" style="fill:none;fill-rule:nonzero;stroke:#fff;stroke-width:12.5px;"/><path d="M3219.75,1804.65c79.959,-22.625 184.959,-56.167 218.959,-141.125c34.5,-86.25 -32.834,-174.375 -90.167,-232.459c-159.375,-161.333 -381.792,-264.666 -587.708,-352.083c-231.042,-98.083 -471,-175.5 -714.084,-237.75c-241.041,-61.75 -486.291,-109.042 -733.666,-136.708c-233.459,-26.125 -477.542,-41.334 -710.084,0.583c-89.916,16.208 -199.375,40.917 -263.916,111.167c-61.334,66.75 -39.75,150.833 8.583,218.416c125.542,175.375 354.75,283.625 545.25,370.792c223.458,102.25 456.833,182.625 693.417,248.542c253.791,70.666 512.666,124.958 774.041,158.458c233.292,29.917 473.959,47.958 708.334,19.667c51,-6.167 101.083,-15.417 151.041,-27.417l0,-0.083Z" style="fill:none;fill-rule:nonzero;stroke:#fff;stroke-width:12.5px;"/><path d="M2930.46,2884.32c78.125,-21.791 181.291,-54 214.666,-136.958c33.542,-83.292 -32.041,-168.5 -87.375,-224.5c-154.5,-156.375 -369.791,-256.333 -569.25,-341.458c-229.541,-97.959 -468.166,-174.667 -709.75,-236.792c-237.25,-61 -478.75,-107.625 -722.208,-135.208c-232.625,-26.375 -476.75,-42.292 -708.417,0.666c-84.833,15.709 -187.916,40 -248.916,106.209c-59.959,65.083 -38,147 9.416,212.458c126.5,174.625 357.25,281.292 548.084,367.417c220.041,99.333 449.666,177.291 682.25,241.458c232.583,64.167 492.125,119.125 742.875,151.833c231.291,30.167 470.041,48.75 702.583,21.084c49.292,-5.875 97.75,-14.709 146.042,-26.125l-0,-0.084Z" style="fill:none;fill-rule:nonzero;stroke:#fff;stroke-width:12.5px;"/><path d="M2085.75,3444.03c45.167,-11.667 115.084,-36.709 113.625,-94.334c-4.25,-92.083 -135.166,-159.958 -204.083,-197.625c-113.792,-62.125 -236.458,-108.333 -360.042,-146.75c-244.125,-75.958 -508.25,-131.583 -765.125,-120.666c-66.708,2.833 -258,10.458 -254.125,113.541c4.625,77.084 100.584,135.084 158.625,170.584c95.167,58.166 199.417,101.708 304.209,139.125c213.875,76.333 439.791,128.666 666.166,148.541c111.917,9.834 230.834,15.334 340.709,-12.416l0.041,-0Z" style="fill:none;fill-rule:nonzero;stroke:#fff;stroke-width:12.5px;"/><path d="M1652,3451.48c12.792,-3.083 25.25,-8.083 35.75,-16.125c62.417,-49.417 -113.333,-126.167 -138.291,-136.5c-118.084,-49 -251.375,-81.083 -379.625,-82.125c-39.042,-0.333 -90.084,-0.875 -122.709,24.333c-5.166,4.167 -8.916,9.75 -10.791,16.125c-9.834,59.709 110.208,104.084 149.416,120.334c102.125,42.375 213.292,69.5 323.417,79.166c47,4.125 96.625,6.25 142.792,-5.208l0.041,0Z" style="fill:none;fill-rule:nonzero;stroke:#fff;stroke-width:12.5px;"/><path d="M2622.54,3212.07c103.458,-28.125 233.25,-93.916 170.042,-220.166c-80.542,-160.834 -299.625,-258.709 -452.5,-330.042c-194.042,-90.542 -398.084,-160.125 -604.292,-217.125c-200.667,-55.5 -405.083,-98.417 -611.417,-126.458c-220.958,-30 -454.458,-50.792 -675.458,-10.834c-95.833,17.334 -277.042,65.667 -240.167,199.959c17.334,63.041 71.125,114.416 119.417,155.083c80.667,68 173.792,121.583 267.5,169.25c194.458,98.917 401.667,173.5 610.792,234.792c200.208,58.666 404.333,104.833 610.583,136.458c220.833,33.833 449.417,56.417 672.417,32.042c44.916,-4.917 89.125,-12.625 133.083,-22.959Z" style="fill:none;fill-rule:nonzero;stroke:#fff;stroke-width:12.5px;"/><path d="M2487.5,2353.94c72.417,-299.041 101.292,-611.041 89.75,-918.333c-10.833,-288.792 -55.083,-584.083 -165.375,-852.75c-62.208,-151.542 -147,-297.708 -273.291,-404.667l-0.959,3.875c212.334,179.667 313.917,465.375 372.584,729.167c59.75,268.5 76.625,546.458 62.916,820.792c-14.458,289.666 -63.166,579.458 -153,855.5c-84.208,258.708 -206.25,525.625 -407.083,714.916c-160.667,151.5 -382.417,230.334 -585.167,110.25c-23.5,-13.916 -45.708,-29.75 -67.125,-46.75l-0.958,3.917c168.042,133 372.125,137.5 550,19.583c214.333,-142.083 350.083,-386.75 445.708,-618.916c55.459,-134.625 99.292,-274.792 132,-416.625l0,0.041Z" style="fill:none;fill-rule:nonzero;stroke:#fff;stroke-width:12.5px;"/><path d="M1562.46,2212.69c70.583,-288.458 144.041,-576.208 221.458,-862.916c73.708,-273 149.375,-545.625 232.875,-815.834c36.917,-119.5 73.583,-240.291 121.75,-355.833c-62.333,185.708 -127.042,369.875 -182.458,558.167c-69.334,235.583 -134.709,472.333 -197.792,709.666c-65.083,244.917 -127.958,490.459 -188.292,736.584c-57.791,235.833 -113.583,472.25 -164.375,709.708c-22.083,103.208 -43.416,206.625 -61.75,310.542c-10.958,62.208 -33,137.958 -25.208,201.791c0.875,7.209 1.25,12.625 4.375,19.125c0.542,0.292 1.125,0.584 1.708,0.875l1.959,-0.166c17.25,-13.292 25.666,-39.084 34.041,-58.5c-6.666,20.5 -17.416,49 -35.041,62.541l-1.959,0.167c-0.583,-0.292 -1.125,-0.583 -1.708,-0.875c-14.458,-30.708 -0.833,-80.667 3.542,-112.5c9.875,-72.125 23.333,-143.75 37.166,-215.208c36,-186.292 77.875,-371.459 120.75,-556.25c25.667,-110.542 52.125,-220.875 79,-331.125l-0.041,0.041Z" style="fill:none;fill-rule:nonzero;stroke:#fff;stroke-width:12.5px;"/><path d="M704.541,1898.94c82.75,-332.791 226.333,-652.333 417.583,-936.791c166.834,-248.209 375.667,-480.875 632.834,-637.792c118,-72 246.5,-125.292 383.583,-146.208l-0.958,3.875c-261.125,38.916 -490.334,196.916 -677,376.25c-236.459,227.125 -422.209,507.083 -561.334,802.875c-143.583,305.375 -241.958,640 -262.5,977.875c-15.416,253.541 11,529.916 147,750.833c108.125,175.625 288.334,284.833 496.542,281.958c26.917,-0.375 53.708,-2.791 80.417,-5.833l-0.959,3.917c-209.916,25 -408.541,-47.875 -538.125,-218.25c-151.458,-199.167 -192.833,-463.75 -191.208,-707.792c1.25,-183.25 28.458,-367.583 74.083,-544.875l0.042,-0.042Z" style="fill:none;fill-rule:nonzero;stroke:#fff;stroke-width:12.5px;"/><path d="M169.333,1568.86c86.916,-337.125 264.375,-642.042 515.75,-883.375c245.833,-236.042 555.291,-406.375 888.416,-480.25c185.792,-41.208 376.209,-49.333 565.042,-27.083l-0.958,3.875c-335.084,-39.5 -674.042,22.666 -976,172.833c-302.792,150.583 -563.584,381.417 -748.584,664.583c-184.583,282.5 -291.25,618.292 -287.666,956.792c3.291,312.292 105.291,620.875 298.125,867.542c202.791,259.416 497.708,435.25 819.083,502.208c39.167,8.167 78.625,14.167 118.208,19.958l-0.958,3.917c-321.5,-47.083 -620,-182.333 -847.708,-417.792c-216.5,-223.875 -348.334,-519.791 -381.917,-828.416c-20.333,-186.542 -3.208,-372.584 39.208,-554.834l-0.041,0.042Z" style="fill:none;fill-rule:nonzero;stroke:#fff;stroke-width:12.5px;"/><path d="M140.666,1276.32c83.542,-323.291 263.667,-614.666 523.875,-825.458c254.208,-205.917 573.083,-325.333 899.333,-343.042c195.334,-10.583 387.084,16.917 574.709,70.334l-0.959,3.875c-328.5,-93.584 -674.125,-98.959 -999.458,12.208c-308.708,105.5 -580.125,309.333 -765.667,577.833c-194.375,281.25 -289.208,626.125 -276.875,967c12.375,343.209 132.042,677.792 331.25,956.667c201.625,282.25 486.542,504.583 810.834,628.333c40.5,15.459 81.625,29.125 123.041,41.917l-0.958,3.917c-338.25,-104.625 -639.5,-304.167 -864.417,-578.292c-217.583,-265.292 -358.041,-592.125 -395.166,-933.5c-21.084,-193.917 -8.292,-392.792 40.458,-581.792Z" style="fill:none;fill-rule:nonzero;stroke:#fff;stroke-width:12.5px;"/><path d="M619.333,1158.78c71.041,-279.125 190.708,-550.542 388.5,-763.75c180.291,-194.334 426.166,-331.167 695.75,-332.209c153.916,-0.583 299.708,44.125 434.958,115.334l-0.958,3.875c-248.625,-130.917 -531,-154.084 -789.292,-34.709c-264.5,122.25 -458.625,358.625 -584.5,616.084c-141.542,289.5 -206.208,617 -207.708,938.125c-1.5,320 58.375,642.166 185.708,936.291c113.833,262.959 286.917,511.625 527.583,672.834c29.667,19.875 60.25,37.833 91.375,55.291l-0.958,3.917c-267,-149.792 -462.542,-393 -592.167,-667.417c-141.833,-300.208 -210.791,-632.791 -214.291,-964.166c-2.084,-195.5 21.25,-389.334 66.041,-579.542l-0.041,0.042Z" style="fill:none;fill-rule:nonzero;stroke:#fff;stroke-width:12.5px;"/><path d="M1464.58,1218.07c55,-222.25 119.208,-443.125 205.333,-655.541c34.125,-84.167 71.75,-167.375 116.625,-246.417c43.5,-76.625 96.417,-166.167 174.958,-211.542c77.917,-45.041 139.709,2.584 177.084,73.584l-0.959,3.875c-122.041,-233.625 -306.875,52.958 -372.791,177.208c-111.292,209.708 -185.709,440.208 -249.25,668.167c-74.584,267.5 -131.75,540 -173.959,814.416c-39.708,258.042 -66.583,518.459 -73.875,779.5c-6.083,218.417 -8,456.5 60.667,666.584c8.75,26.791 19.083,53.166 32.375,78.041l-0.958,3.917c-55.125,-103.958 -71.334,-229.708 -82.375,-345.417c-12.667,-133.166 -14.667,-267.375 -10.917,-401.041c8.417,-298.542 41.792,-596.375 91.792,-890.709c29.333,-172.708 64.291,-344.541 106.291,-514.666l-0.041,0.041Z" style="fill:none;fill-rule:nonzero;stroke:#fff;stroke-width:12.5px;"/><path d="M2398.54,1466.36c65.792,-275.458 118,-561.583 106.583,-846.042c-5.708,-141.833 -21.041,-358.291 -155.208,-445.041c-65.958,-42.625 -144.167,-28.667 -211.375,2.916l-0.958,3.875c144.916,-67.833 261.458,0.292 315.25,143.917c77.083,205.833 57.75,449.333 32.625,662.75c-38.542,327.083 -123.125,649.75 -231.084,960.375c-105.625,303.917 -236.333,602.583 -403.708,877.833c-113.625,186.875 -249.917,394.792 -440.292,512.125c-16.041,9.875 -32.625,18.959 -49.708,26.917l-0.958,3.917c198.666,-93.209 340.833,-303.25 454.958,-481.959c172.208,-269.625 305.25,-564.916 414.75,-864.916c66.542,-182.334 122.292,-368.292 169,-556.625l0.125,-0.042Z" style="fill:none;fill-rule:nonzero;stroke:#fff;stroke-width:12.5px;"/><path d="M3127.37,1800.57c68,-292.708 78.334,-603.25 -17.791,-891.333c-87.25,-261.5 -261.959,-490.625 -509.292,-618.125c-143.667,-74.083 -300.917,-107.625 -461.75,-112.958l-0.958,3.875c294.875,9.791 571.916,126.791 763.416,355.541c197.584,236 279.292,547.917 275.875,851.459c-3.583,316 -94.375,630.291 -241.625,908.708c-145.083,274.292 -346.166,518.625 -590.916,709.833c-249.334,194.792 -552.709,335.625 -871.417,356.125c-37.417,2.417 -74.75,2.667 -112.208,2.292l-0.959,3.917c337.084,3.458 657.459,-120.084 928.625,-316.125c261.209,-188.834 477,-439.584 631.959,-721.709c91.875,-167.25 161.958,-345.958 206.958,-531.416l0.083,-0.084Z" style="fill:none;fill-rule:nonzero;stroke:#fff;stroke-width:12.5px;"/><path d="M3414.29,2130.73c75.917,-331 52.5,-675.208 -82.083,-988.458c-132.834,-309.209 -363.584,-570.625 -649.542,-746.959c-168.125,-103.666 -352.042,-173.25 -544.125,-217.125l-0.958,3.875c340.291,77.792 652.166,244.834 890.916,501.834c225.75,243 373.25,554.333 414.625,883.583c43.084,342.708 -33.25,695.833 -206.875,993.708c-171.833,294.792 -435.916,529.209 -743.375,675.167c-314.458,149.25 -671.083,201.042 -1015.21,150.792c-39.208,-5.709 -78.083,-13.209 -116.917,-21.167l-0.958,3.917c340.375,69.625 692.625,46.333 1017.5,-79.542c321.792,-124.625 606.208,-344.167 801,-629.792c110.333,-161.791 187.5,-340.416 236,-529.833Z" style="fill:none;fill-rule:nonzero;stroke:#fff;stroke-width:12.5px;"/></g></g></g></svg>