<?xml version="1.0" encoding="UTF-8" standalone="no"?><!DOCTYPE svg PUBLIC "-//W3C//DTD SVG 1.1//EN" "http://www.w3.org/Graphics/SVG/1.1/DTD/svg11.dtd"><svg width="100%" height="100%" viewBox="0 0 1506 1507" version="1.1" xmlns="http://www.w3.org/2000/svg" xmlns:xlink="http://www.w3.org/1999/xlink" xml:space="preserve" xmlns:serif="http://www.serif.com/" style="fill-rule:evenodd;clip-rule:evenodd;stroke-linecap:round;stroke-linejoin:round;stroke-miterlimit:2;"><path d="M1079.08,77.767l-49.108,-18.354l-59.488,2.866l-58.758,-22.112l-63.246,-14.946l-65.967,-7.404l-66.858,0.317l-65.896,8.041l-63.108,15.559l-43.534,-8.346l-74.583,28.734l-48.958,18.833m797.229,1262.96l43.179,-41.921l11.5,-11.167l14.225,-15.158l52.071,-51.892l30.067,-43.595l25.995,-37.692l38.163,-73.4l17.892,-84.954l-3.663,-94.13l-25.787,-100.425l-47.671,-103.433l-68.409,-102.845l-87.108,-98.538l-102.896,-90.576l-115.025,-79.207l-122.95,-64.901l-126.329,-48.274l-113.821,63.824l-111.004,80.313l-104.016,93.963l-93.146,104.158l-78.854,110.433l-61.821,112.592l-42.834,110.637l-22.762,104.801l-2.446,95.503l17.312,83.288l35.838,68.779l52.667,51.354l14.325,14.959l11.72,11.133l43.617,41.425m863.309,-1228.25l-61.346,-24.862l-73.742,-4.867l-84.142,16.05l-36.225,-19.93l-40.62,-15.378l-43.821,-10.409l-45.759,-5.162l-46.396,0.225l-45.708,5.6l-43.716,10.833l-40.463,15.772l-36.029,20.287l-84.363,-15.242l-44.5,35.008l-35.325,39.859l-96.35,26.058l-32.475,55.741l-86.737,53.213l-68.479,67.233l-45.046,75.184m1268.77,66.908l-91.405,-86.908l-108.262,-77.229l-121.421,-64.625l-130.229,-49.576l-134.296,-32.699l-137.812,1.399l-4.109,0.592l-128.387,18.512m226.721,1280.82l-7.459,-8.95l-5.983,-32.55l-4.25,-56.087l-2.287,-78.646l-0.176,-99.204l2.013,-116.721l4.175,-130.258l6.221,-139.001l8.041,-142.441l9.559,-140.35l10.683,-132.862l11.392,-120.438l11.658,-103.812l96.846,-57.604l92.008,-37.159l30.754,23.937l24.334,27.28l17.137,29.845l9.346,31.55l1.192,32.317l-7.092,32.109l-15.246,30.9l-23.016,28.72l-30.142,25.613l-36.363,21.662l-41.466,16.992l-45.271,11.746l-47.629,6.1l-48.442,0.242l-47.692,-5.621l-45.404,-11.292l-41.654,-16.579l-36.604,-21.304l-30.421,-25.317l-23.329,-28.5l-15.575,-30.754l-7.433,-32.042l0.854,-32.338m270.308,-20.503l-12.379,-83.788l-11.588,-61.629l-10.437,-38.254l-8.996,-14.6m157.871,260.971l11.858,-14.426l7.967,-15.575l3.854,-16.241l-0.35,-16.404l-4.525,-16.079l-8.537,-15.263l-12.267,-13.999l-15.625,-12.317l-18.496,-10.284l-20.812,-7.95l-22.504,-5.392l-23.538,-2.67l-23.875,0.112l-23.504,2.904l-22.454,5.613l-20.73,8.149l-18.391,10.464l-15.492,12.47l-12.129,14.117l-8.375,15.346l-4.358,16.124l-0.179,16.413l4.029,16.209l8.129,15.495l12.012,14.308l15.538,12.676l18.587,10.642l21.088,8.258l22.912,5.62l24.038,2.792l24.408,-0.121l24.004,-3.033l22.854,-5.841l20.988,-8.468l18.479,-10.82l15.396,-12.829Zm10.379,-252.013l-26.429,12.729l-30.233,36.104l-33.154,59.25l-35.034,81.23l-35.696,101.02l-35.046,117.609l-33.05,130.1l-29.745,137.758l-25.275,140.137l-19.834,137.092l-13.683,128.829l-7.129,115.863l-0.467,98.933l5.996,78.992l12.029,57.013l17.413,34.008l22.02,10.867m298.13,-1.655l21.916,-11.113l17.075,-34.191l11.45,-57.134l5.2,-79.033l-1.475,-98.907l-8.308,-115.746l-14.996,-128.654l-21.237,-136.856l-26.709,-139.845l-31.166,-137.433l-34.392,-129.746l-36.267,-117.25l-36.754,-100.658l-35.883,-80.884l-33.792,-58.933l-30.625,-35.813l-26.591,-12.475m811.974,425.367l-45.774,-74.708l-69.038,-66.479l-39.587,-65.688l-80.613,-42.033l-45.962,-50.342l-86.276,-14.259l-44.837,-34.566l-52.571,-28.713l-67.796,24.833l-74.279,46.805l-78.35,67.888l-79.696,87.142l-78.104,103.616l-73.55,116.475l-66.137,125.033l-56.192,128.846l-44.167,127.754l-30.629,121.88l-16.237,111.633l-1.617,97.633l12.592,80.646l25.883,61.529l37.825,41.125m426.971,97.451l7.387,-9.035l5.667,-32.608l3.688,-56.129l1.491,-78.667l-0.833,-99.187l-3.2,-116.687l-5.517,-130.196l-7.65,-138.925l-9.512,-142.341l-11.005,-140.234l-12.066,-132.746l-12.642,-120.317l-12.75,-103.691l-79.067,-67.122l-74.787,-46.09l-68.096,-24.181l-59.396,-2.282l-66.654,37.096l-61.15,25.462m-322.054,774.596l19.612,86.408l18.242,43.396l19.859,47.246l38.954,73.033l26.45,37.467l30.533,43.262l52.667,51.354l23.612,21.071l46.05,46.446l56.804,37.437l28.392,18.713l79.179,35.521l18.808,8.441l107.555,30.08l113.441,15.016l115.375,-0.642l113.25,-16.275l107.184,-31.262l97.454,-45.025l28.196,-19.033l56.333,-38.025l45.542,-46.925l30.758,-65.192l14.387,-81.987l-3.066,-96.571l-20.967,-108.196l-38.592,-116.225l-55.179,-120.134l-69.946,-119.599l-82.195,-114.559l-91.367,-105.212l-97.046,-91.979l-99.075,-75.529l-97.458,-56.658l-92.425,-36.267l-30.517,24.241l-24.054,27.521l-16.833,30.017l-9.021,31.649l-122.5,35.922l-108.35,51.2l-90.763,64.383l-70.554,75.062l-5.771,81.921l14.759,82.088l35.4,79.649l55.425,74.555l74.121,66.858l90.695,56.725l104.45,44.433l114.75,30.417l121.092,15.188l123.179,-0.65l120.9,-16.466l114.363,-31.622l103.904,-45.517l90.016,-57.637l73.33,-67.592l54.579,-75.079l34.512,-79.954l13.879,-82.171l-6.62,-81.808l-71.217,-74.304l-23,-70.029l-87.175,-52.325l-33.025,-55.396l-96.521,-25.105l-35.717,-39.496l-98.225,5.421l-107.137,25.539l-112.471,45.287l-98.283,76.5l-96.121,92.954l-90.313,106.15l-81.066,115.424l-68.767,120.363l-53.991,120.75l-37.442,116.688l-19.883,108.474l-2.084,96.655l15.229,81.87l31.446,64.888l93.421,61.471l107.654,48.175l118.3,32.984l124.871,16.474l127.025,-0.7l124.658,-17.858l117.892,-34.283l107.058,-49.338l92.684,-62.458l23.362,-21.321l52.071,-51.892l35.1,-69.12l16.446,-83.413l-3.421,-95.408l-23.796,-104.492l-43.912,-110.117l-62.9,-111.887l-79.909,-109.575l-94.141,-103.166l-104.925,-92.897l-111.792,-79.195l-114.471,-62.7l-125.079,-30.071l-119.375,-11.092l-109.617,7.863l-24.987,43.607l-13.75,46.118l-1.917,47.287l10.163,47.017l22.133,45.283l33.588,42.088l44.124,37.504l53.367,31.629l60.959,24.667l66.599,16.829l70.059,8.383l71.191,-0.358l69.955,-9.1l66.395,-17.496l60.676,-25.28l53.004,-32.158l43.7,-37.928l33.116,-42.41l21.642,-45.482l9.662,-47.101l-2.408,-47.241l-14.225,-45.967l-25.425,-43.342l-109.608,-6.795l-119.204,12.258l-124.738,31.288l-133.454,-14.725l-127.833,3.579l-117.771,21.453l-103.838,38.192l-18.262,59.126l-3.217,60.804l12.25,60.642l27.654,58.583l42.484,54.604l56.204,48.77l68.296,41.238l78.258,32.217l85.692,22.004l90.245,10.975l91.755,-0.474l90.116,-11.901l85.417,-22.879l77.879,-33.008l67.808,-41.921l55.646,-49.321l41.871,-55l27.008,-58.829l11.605,-60.733l-3.85,-60.734l-18.867,-58.912l-104.121,-37.159l-117.896,-20.292l-127.804,-2.324l-133.275,16.025l-125.833,49.516l-122.321,66.121l-114.275,80.375l-102.042,91.642l-86.179,99.47l-67.437,103.604l-46.675,103.988l-24.8,100.763l-2.709,94.229l18.78,84.821l60.099,84.983l80.671,76.316l98.984,64.83l114.2,50.842l125.608,34.833l132.65,17.4l134.963,-0.742l132.42,-18.863l125.171,-36.2l113.571,-52.066l98.2,-65.871l79.775,-77.141l59.125,-85.567l37.096,-90.975l18.704,-86.546l-3.796,-92.78l-26.908,-96.17l-49.813,-96.425l-71.616,-93.35l12.97,-72.558l-5.312,-72.375l-91.308,-63.442l-108.763,-50.104l-122.775,-34.709l-128.508,-17.245l-4.117,-0.55l-137.8,-0.054l-137.991,17.812l-133.171,35.029l-123.563,50.871l-109.65,64.717l-92.108,76.05l-71.763,84.512l-49.512,89.921l-26.271,92.216l15.679,93.468l-2.854,92.883l38.933,92.229l61.567,86.516l82.754,77.734l101.621,66.054l117.317,51.821l129.087,35.508l136.359,17.746l138.741,-0.763l136.129,-19.229l128.638,-36.908l116.671,-53.071l100.82,-67.112l81.834,-78.567l60.571,-87.108l37.908,-92.567l14.708,-94.929l-3.825,-91.4l-27.166,-91.875l-50.355,-89.342l-72.525,-83.737l-92.77,-75.083l-110.205,-63.597l-123.991,-49.633l-133.467,-33.708l-138.15,-16.458l-133.962,34.021l-129.767,50.862l-120.833,65.846l-107.563,78.342l-90.612,87.874l-70.75,94.134l-48.892,97l-25.971,96.517l38.788,90.883l61.304,85.242l82.392,76.582l101.154,65.076l116.775,51.05l128.479,34.979l135.716,17.475l138.084,-0.746l135.487,-18.949l128.034,-36.355l116.137,-52.28l100.367,-66.12l81.479,-77.404l60.329,-85.83l37.775,-91.217l14.679,-93.549l-8.166,-92.933l-26.609,-87.671l-28.771,-85.567l-45.774,-74.708l-2.401,-4.775l-0.32,-0.529l-43.284,-69.8l-61.541,-66.955l-55.759,-49.674l-67.92,-51.905l-43.605,-23.691l-35.458,-19.263l-49.108,-18.354l-1.034,-0.458l-37.758,-14.171l-36.046,-13.375l-80.225,-18.917l-83.575,-9.367l-84.675,0.409l-83.491,10.166l-80.051,19.688l-35.937,13.729l-37.558,14.504l-1.088,0.501l-48.958,18.833l-35.279,19.612l-43.388,24.121l-67.437,52.588l-55.317,50.241l-60.904,67.6l-42.634,70.271l-0.254,0.433l-2.416,4.929l-45.046,75.184l-27.913,85.916l-6.687,88.867l15.379,89.167l37.617,86.637l59.266,81.204l79.513,72.909l97.508,61.917l112.467,48.549l123.679,33.25l130.6,16.617l132.871,-0.712l130.379,-18.008l123.258,-34.568l111.863,-49.724l96.758,-62.913l78.65,-73.7l58.338,-81.763l36.654,-86.962l14.421,-89.254l-7.609,-88.729l-49.366,-82.421l-26.367,-78.996l-44.817,-73.962l-62.62,-57.063l-54.68,-59.566l-71.895,-32.809l-57.371,-43.958l-66.996,-36.438l-74.667,-28.012l-43.408,8.758l-49.658,31.567l-54.471,54.233l-57.538,75.838l-58.608,95.4l-57.538,111.937l-54.245,124.563l-48.838,132.583l-41.525,135.533l-32.642,133.283l-22.612,125.996l-11.929,114.134l-1.075,98.404l9.475,79.667l19.337,58.862l28.158,36.912l35.742,14.697l39.871,11.154l34.758,9.725l19.204,5.371l33.721,4.471l65.159,8.628l100.529,-0.557l5.967,-0.855l59.083,-8.5l33.671,-4.842l19.158,-5.591l34.6,-10.096l39.754,-11.6l35.588,-15.088l27.783,-37.212l18.729,-59.051l8.667,-79.741l-2.079,-98.354l-13.084,-113.959l-23.891,-125.708l-33.992,-132.896l-42.9,-135.062l-50.188,-132.05l-55.516,-123.996l-58.684,-111.345l-59.608,-94.817l-58.337,-75.271l-55.054,-53.713l-50.017,-31.087l-58.542,22.678l-52.296,29.226l-73.754,5.588l-56.95,44.524l-71.637,33.526l-54.1,60.128l-38.946,66.113l-22.288,70.296l-4.562,72.471l13.746,72.466l32.087,70.179l49.809,65.567l66.291,58.7l80.871,49.721l92.925,38.904l101.942,26.608l107.479,13.279l109.308,-0.574l107.313,-14.397l101.608,-27.662l92.458,-39.854l80.275,-50.538l65.609,-59.345l49.07,-66.037l31.305,-70.459m-544.338,-509.717l-8.821,14.692l-10.025,38.346l-10.933,61.742l-11.496,83.9m-731.204,697.479l-15.725,-94.842l2.9,-91.509l7.204,-93.082l25.754,-88.001l48.596,-82.975l25.571,-79.308l44.096,-74.45l62.121,-57.713l80.266,-42.841l45.471,-50.813l86.204,-15.104l98.346,4.475l107.45,24.496l112.95,44.188l80.596,86.349l79.162,102.821l74.726,115.708l67.391,124.322l57.479,128.216l45.438,127.233l31.85,121.501l17.358,111.403l2.613,97.563l-11.767,80.746l-25.242,61.779l-37.387,41.525" style="fill:none;stroke:#fff;stroke-width:6.25px;"/></svg>