<?xml version="1.0" encoding="UTF-8" standalone="no"?><!DOCTYPE svg PUBLIC "-//W3C//DTD SVG 1.1//EN" "http://www.w3.org/Graphics/SVG/1.1/DTD/svg11.dtd"><svg width="100%" height="100%" viewBox="0 0 1821 1138" version="1.1" xmlns="http://www.w3.org/2000/svg" xmlns:xlink="http://www.w3.org/1999/xlink" xml:space="preserve" xmlns:serif="http://www.serif.com/" style="fill-rule:evenodd;clip-rule:evenodd;stroke-linejoin:round;stroke-miterlimit:2;"><path d="M1466.62,979.917c-8.333,-4.167 -17.042,-7.875 -25.667,-11.459c-34.126,-14.139 -69.541,-24.939 -105.75,-32.25c-3.75,25 -7.916,49.195 -12.5,72.584c-7.353,39.404 -17.816,78.164 -31.291,115.916c15.808,-5.205 31.085,-11.902 45.625,-20c48.166,-27.125 92.25,-69.625 129.583,-124.791Z" style="fill:#010005;fill-rule:nonzero;"/><path d="M1583.67,548.458c-0.625,-22.666 -2.209,-45.541 -4.792,-68.208c-11.75,-103.583 -41.417,-199.625 -86.25,-280.042c-13.278,6.806 -26.861,13.084 -40.75,18.834c-35.506,14.704 -72.322,26.018 -109.958,33.791c11.321,98.138 17.094,196.837 17.291,295.625l224.459,0Z" style="fill:#010005;fill-rule:nonzero;"/><path d="M1466.08,156.958c-36.666,-53.958 -94.416,-117.166 -175,-144.375c6.5,17.459 11.709,35.209 16.334,52.459c11.703,44.553 20.774,89.756 27.166,135.375c45.354,-9.4 89.477,-23.982 131.5,-43.459Z" style="fill:#010005;fill-rule:nonzero;"/><path d="M1612.38,120.75c-0.975,1.748 -2.418,3.191 -4.167,4.167c-22.701,18.559 -46.646,35.543 -71.666,50.833c3.583,7.458 6.958,14.75 10,21.792c44.25,101.291 67.833,219.375 70.333,351.083l203.417,0c-5.405,-166.926 -79.635,-324.395 -204.959,-434.792c-0.508,2.482 -1.515,4.835 -2.958,6.917Z" style="fill:#010005;fill-rule:nonzero;"/><path d="M1359,589.167c0,27.25 -0.667,53.208 -1.5,78.625c-2.625,81.083 -7.708,152.541 -15.625,217.916c52.153,11.003 102.697,28.588 150.417,52.334c6.75,-12.084 13.208,-24.584 19.333,-37.5c44.417,-94.292 69.083,-201.375 72.042,-311.375l-224.667,-0Z" style="fill:#010005;fill-rule:nonzero;"/><path d="M1509.79,1012.58c-18.899,32.245 -41.102,62.435 -66.25,90.084c42.036,-17.361 81.926,-39.522 118.875,-66.042c-15.611,-11.333 -31.653,-21.847 -48.125,-31.542c-1.667,2.5 -3.042,5.042 -4.5,7.5Z" style="fill:#010005;fill-rule:nonzero;"/><path d="M1813.75,589.917c-2.75,-0 -5.458,-0.25 -8,-0.5c-1.292,-0 -2.458,-0.25 -3.333,-0.25l-185.417,-0c-0.5,28.291 -1.875,55.875 -4.167,82.208c-9.75,108.792 -35.333,206.375 -76.125,291c25.476,15.376 49.816,32.558 72.834,51.417l0.25,0.208c2.984,2.598 4.985,6.144 5.666,10.042c125.347,-110.388 199.606,-267.856 205.042,-434.792c-2.22,0.459 -4.483,0.682 -6.75,0.667Z" style="fill:#010005;fill-rule:nonzero;"/><path d="M1441.58,33c27.841,30.152 52.112,63.413 72.334,99.125c16.666,-9.583 32.764,-19.986 48.291,-31.208c-37.43,-27.253 -77.912,-50.047 -120.625,-67.917Z" style="fill:#010005;fill-rule:nonzero;"/><path d="M583.667,1121.75c4.958,6.5 11.958,13.708 19.541,15.625l7.959,0c11.25,-3.208 20.833,-17.25 26.833,-27.833c14.875,-25.417 24.083,-54.167 31.792,-81.292c8.953,-32.358 16.185,-65.168 21.666,-98.292c-56.147,-7.654 -113.093,-7.388 -169.166,0.792l1.125,6.542c6.489,39.05 15.791,77.581 27.833,115.291c7.542,22.709 16.875,48.75 32.417,69.167Z" style="fill:#010005;fill-rule:nonzero;"/><path d="M353.5,157.583c8.583,4.167 17.208,7.959 25.958,11.584c34.221,14.174 69.734,25.002 106.042,32.333c1.792,-12 3.667,-23.875 5.667,-35.542c6.94,-43.554 16.894,-86.574 29.791,-128.75c2.459,-7.75 5.125,-15.833 8.042,-24c-25.188,8.458 -49.04,20.468 -70.833,35.667c-41.329,29.43 -76.823,66.295 -104.667,108.708Z" style="fill:#010005;fill-rule:nonzero;"/><path d="M509.875,1117.67c6.333,2.708 12.75,5.041 19.208,7.166c-22.666,-58 -34.458,-121.666 -43.583,-187.5c-45.235,9.421 -89.244,23.989 -131.167,43.417c35.459,52.083 86.5,107.25 155.542,136.917Z" style="fill:#010005;fill-rule:nonzero;"/><path d="M859.833,979.917c-8.333,-4.167 -17.041,-7.875 -25.708,-11.459c-34.166,-14.146 -69.624,-24.947 -105.875,-32.25c-3.75,25 -7.917,49.195 -12.5,72.584c-7.357,39.399 -17.806,78.158 -31.25,115.916c15.791,-5.213 31.054,-11.91 45.583,-20c48.375,-27.125 92.625,-69.625 129.75,-124.791Z" style="fill:#010005;fill-rule:nonzero;"/><path d="M976.875,548.458c-0.667,-22.666 -2.25,-45.541 -4.792,-68.208c-11.75,-103.583 -41.666,-199.625 -86.25,-280.042c-13.472,6.778 -27.125,13.056 -40.958,18.834c-35.522,14.698 -72.352,26.012 -110,33.791c11.342,98.136 17.115,196.836 17.292,295.625l224.708,0Z" style="fill:#010005;fill-rule:nonzero;"/><path d="M514.125,878.583c61.268,-8.978 123.531,-8.81 184.75,0.5l0.458,0c12.889,-96.131 19.431,-193.008 19.584,-290l-224.209,0c0,8.334 0,16.667 0.25,25c1.029,88.474 7.429,176.803 19.167,264.5Z" style="fill:#010005;fill-rule:nonzero;"/><path d="M717.458,478.25c-2.067,-73.318 -8.006,-146.475 -17.791,-219.167c-29.967,4.386 -60.214,6.586 -90.5,6.584c-31.607,0.01 -63.17,-2.371 -94.417,-7.125l-0.542,-0l-1.625,12.5c-11.607,92.091 -17.59,184.805 -17.916,277.625l224.25,-0c-0.375,-24.125 -0.667,-47.667 -1.459,-70.417Z" style="fill:#010005;fill-rule:nonzero;"/><path d="M654.625,63.458c-8.333,-20.833 -17.542,-42.75 -32.625,-56.375c-3.761,-4.074 -8.93,-6.576 -14.458,-7c-0.913,0.003 -1.822,0.115 -2.709,0.334c-11.5,2.291 -25.791,18.875 -37.5,43.291c-23.75,50 -36.541,105.75 -45.833,163.917c56.349,7.744 113.509,7.506 169.792,-0.708c-2.417,-13.625 -4.959,-27 -7.709,-40.209c-6.756,-35.164 -16.443,-69.701 -28.958,-103.25Z" style="fill:#010005;fill-rule:nonzero;"/><path d="M859.292,156.958c-36.709,-53.958 -94.417,-117.166 -175,-144.375c6.5,17.459 11.666,35.209 16.333,52.459c11.663,44.562 20.734,89.763 27.167,135.375c45.351,-9.407 89.474,-23.988 131.5,-43.459Z" style="fill:#010005;fill-rule:nonzero;"/><path d="M1005.58,120.75c-1,1.729 -2.437,3.166 -4.166,4.167c-22.702,18.559 -46.647,35.543 -71.667,50.833c3.542,7.458 6.917,14.75 10,21.792c44.208,101.291 67.792,219.375 70.292,351.083l203.458,0c-5.42,-166.931 -79.665,-324.399 -205,-434.792c-0.494,2.48 -1.486,4.833 -2.917,6.917Z" style="fill:#010005;fill-rule:nonzero;"/><path d="M14.667,548.208c1.291,0 2.458,0.25 3.333,0.25l185.292,0c0.166,-9.666 0.458,-19.389 0.875,-29.166c5.666,-129.959 32.5,-245.542 79.708,-344c-25.513,-15.375 -49.882,-32.573 -72.917,-51.459l-0.25,-0.208c-2.984,-2.598 -4.985,-6.144 -5.666,-10.042c-125.349,110.404 -199.608,267.885 -205.042,434.834c4.85,-0.818 9.796,-0.888 14.667,-0.209Z" style="fill:#010005;fill-rule:nonzero;"/><path d="M752.167,589.167c-0,27.25 -0.667,53.208 -1.459,78.625c-2.625,81.083 -7.75,152.541 -15.625,217.916c52.151,11.011 102.694,28.596 150.417,52.334c6.708,-12.084 13.167,-24.584 19.292,-37.5c44.375,-94.042 69.125,-201.25 72.083,-311.25l-224.708,-0.125Z" style="fill:#010005;fill-rule:nonzero;"/><path d="M208.042,1016.88c0.975,-1.748 2.418,-3.191 4.166,-4.167c22.649,-18.469 46.523,-35.383 71.459,-50.625c-9.417,-19.75 -18.111,-40.416 -26.084,-62c-34.5,-93.833 -52.708,-198 -54.375,-310.916l-203.208,-0c5.403,166.938 79.632,324.42 204.958,434.833c0.526,-2.562 1.575,-4.988 3.084,-7.125Z" style="fill:#010005;fill-rule:nonzero;"/><path d="M957.083,1091.79c9.459,4.541 19,8.875 28.667,12.875c-6.042,-6.417 -11.958,-13.125 -17.75,-20.042c-3.625,2.417 -7.25,4.958 -10.917,7.167Z" style="fill:#010005;fill-rule:nonzero;"/><path d="M903,1012.58c-19.033,32.262 -41.376,62.453 -66.667,90.084c42.041,-17.352 81.932,-39.514 118.875,-66.042c-15.611,-11.333 -31.652,-21.847 -48.125,-31.542c-1.041,2.5 -2.625,5.042 -4.083,7.5Z" style="fill:#010005;fill-rule:nonzero;"/><path d="M1206.92,589.917c-2.709,-0 -5.417,-0.25 -7.959,-0.5c-1.291,-0 -2.5,-0.25 -3.375,-0.25l-185.375,-0c-0.541,28.291 -1.916,55.875 -4.166,82.208c-9.75,108.792 -35.334,206.375 -76.125,291c25.476,15.376 49.816,32.558 72.833,51.417l0.25,0.208c2.986,2.602 5,6.145 5.708,10.042c125.347,-110.388 199.606,-267.856 205.042,-434.792c-2.248,0.459 -4.539,0.683 -6.833,0.667Z" style="fill:#010005;fill-rule:nonzero;"/><path d="M461.417,548.458c-0,-9.958 0.208,-19.958 0.333,-30.083c0.993,-88.998 6.64,-177.883 16.917,-266.292c-52.273,-11.015 -102.931,-28.643 -150.75,-52.458c-13.033,23.716 -24.638,48.191 -34.75,73.292c-35.028,87.722 -54.147,180.988 -56.459,275.416l224.709,0.125Z" style="fill:#010005;fill-rule:nonzero;"/><path d="M968.125,52.875c5.042,-6 10.167,-11.958 15.583,-17.833c-8.541,3.541 -17,7.333 -25.416,11.291c3.291,2.167 6.583,4.334 9.833,6.542Z" style="fill:#010005;fill-rule:nonzero;"/><path d="M834.75,33c27.867,30.13 52.14,63.395 72.333,99.125c16.667,-9.583 32.764,-19.986 48.292,-31.208c-37.424,-27.262 -77.908,-50.056 -120.625,-67.917Z" style="fill:#010005;fill-rule:nonzero;"/><path d="M376.875,35.042c-41.966,17.365 -81.797,39.497 -118.708,65.958c15.639,11.333 31.666,21.833 48.083,31.5c19.819,-35.028 43.509,-67.719 70.625,-97.458Z" style="fill:#010005;fill-rule:nonzero;"/><path d="M378.917,1104.67c-27.925,-30.113 -52.242,-63.379 -72.459,-99.125c-16.5,9.583 -32.583,19.986 -48.25,31.208c37.459,27.254 77.969,50.047 120.709,67.917Z" style="fill:#010005;fill-rule:nonzero;"/><path d="M326,934.25c0.542,1.042 1.208,2.125 1.792,3.167c13.416,-6.778 27.069,-13.042 40.958,-18.792c35.507,-14.691 72.324,-25.991 109.958,-33.75c-11.449,-98.197 -17.237,-196.971 -17.333,-295.833l-224.75,-0c2.75,121.916 32.833,241.916 89.375,345.208Z" style="fill:#010005;fill-rule:nonzero;"/><path d="M1260.21,546.958l0,1.5l65.459,0c-0,-23.916 -0.625,-47.458 -1.417,-70.208c-2.059,-73.32 -8.012,-146.478 -17.833,-219.167c-29.953,4.387 -60.186,6.588 -90.459,6.584c-10.25,-0 -20.458,-0.334 -30.708,-0.834c45.925,87.188 71.552,183.641 74.958,282.125Z" style="fill:#010005;fill-rule:nonzero;"/><path d="M1153.33,210.417c48.261,4.602 96.901,3.399 144.875,-3.584c-2.416,-13.625 -5,-27 -7.75,-40.208c-6.784,-35.18 -16.541,-69.72 -29.166,-103.25c-8.334,-20.833 -17.5,-42.75 -32.584,-56.375c-3.766,-4.068 -8.931,-6.569 -14.458,-7c-0.926,0.006 -1.849,0.118 -2.75,0.333c-11.458,2.292 -25.792,18.875 -37.5,43.292c-20.125,42.458 -32.375,88.875 -41.292,137.5c7.223,9.611 14.098,19.375 20.625,29.292Z" style="fill:#010005;fill-rule:nonzero;"/><path d="M1005.58,120.75c-1,1.729 -2.437,3.166 -4.166,4.167c-22.702,18.559 -46.647,35.543 -71.667,50.833c3.542,7.458 6.917,14.75 10,21.792c44.208,101.291 67.792,219.375 70.292,351.083l203.458,0c-5.42,-166.931 -79.665,-324.399 -205,-434.792c-0.494,2.48 -1.486,4.833 -2.917,6.917Z" style="fill:#010005;fill-rule:nonzero;"/><path d="M1260.21,589.167l0,1.583c-3.408,98.371 -28.976,194.716 -74.791,281.833c40.199,-1.697 80.468,0.479 120.25,6.5l0.5,0c12.894,-96.13 19.422,-193.008 19.541,-290l-65.5,0.084Z" style="fill:#010005;fill-rule:nonzero;"/><path d="M1152.92,927.792c-6.167,9.416 -12.584,18.666 -19.25,27.75c5.99,32.836 14.147,65.24 24.416,97c7.5,22.75 16.667,48.791 32.375,69.208c4.959,6.5 12,13.708 19.542,15.625l8,0c11.25,-3.208 20.625,-17.25 26.833,-27.833c14.875,-25.417 24.042,-54.167 31.792,-81.292c8.938,-32.359 16.157,-65.169 21.625,-98.292c-48.179,-6.594 -96.98,-7.321 -145.333,-2.166Z" style="fill:#010005;fill-rule:nonzero;"/><path d="M1206.92,589.917c-2.709,-0 -5.417,-0.25 -7.959,-0.5c-1.291,-0 -2.5,-0.25 -3.375,-0.25l-185.375,-0c-0.541,28.291 -1.916,55.875 -4.166,82.208c-9.75,108.792 -35.334,206.375 -76.125,291c25.476,15.376 49.816,32.558 72.833,51.417l0.25,0.208c2.986,2.602 5,6.145 5.708,10.042c125.347,-110.388 199.606,-267.856 205.042,-434.792c-2.248,0.459 -4.539,0.683 -6.833,0.667Z" style="fill:#010005;fill-rule:nonzero;"/><path d="M1039.38,78.75c22.338,19.76 43.29,41.032 62.708,63.667c6.374,-35.559 14.917,-70.694 25.584,-105.209c2.416,-7.75 5.083,-15.833 8.041,-24c-25.192,8.448 -49.045,20.459 -70.833,35.667c-10.939,7.628 -21.441,15.863 -31.458,24.667l5.958,5.208Z" style="fill:#010005;fill-rule:nonzero;"/><path d="M1039.38,1058.96l-5.833,5.167c24.694,22.13 52.754,40.19 83.125,53.5c6.333,2.75 12.75,5.083 19.166,7.208c-15.605,-41.74 -27.103,-84.903 -34.333,-128.875c-19.235,22.403 -39.993,43.453 -62.125,63Z" style="fill:#010005;fill-rule:nonzero;"/></svg>