<?xml version="1.0" encoding="UTF-8" standalone="no"?><!DOCTYPE svg PUBLIC "-//W3C//DTD SVG 1.1//EN" "http://www.w3.org/Graphics/SVG/1.1/DTD/svg11.dtd"><svg width="100%" height="100%" viewBox="0 0 1606 1330" version="1.1" xmlns="http://www.w3.org/2000/svg" xmlns:xlink="http://www.w3.org/1999/xlink" xml:space="preserve" xmlns:serif="http://www.serif.com/" style="fill-rule:evenodd;clip-rule:evenodd;stroke-linecap:round;stroke-linejoin:round;stroke-miterlimit:2;"><g><g><g><path d="M1116.3,1317.38l-171.767,9.22l-190.096,-5.304l-189.958,-20.013l-171.441,-32.166" style="fill:none;stroke:#000;stroke-width:6.25px;"/><path d="M662.516,4.152l163.866,8.216l163.714,15.02" style="fill:none;stroke:#000;stroke-width:6.25px;"/><path d="M1263.28,1295.29l-146.981,22.088l-30.922,-27.312l-31.735,-23.121l-1.232,0.073l-140.289,7.209l-0.738,-0.018l-155.441,-4.501l-156.042,-16.335l-17.634,21.84l-17.788,26.068" style="fill:none;stroke:#000;stroke-width:6.25px;"/><path d="M612.305,878.4l-108.003,3.558l-113.43,12.4l-98.176,20.328l-79.301,27.757l-56.137,34.935l-28.074,41.699l4.872,45.465l37.942,45.356l68.777,43.521l1.445,0.56l95.31,39.175l45.453,-13.241l44.685,-13.854l43.417,-16.793l41.614,-22.045l39.465,-29.535l36.843,-39.273l33.816,-47.778l30.807,-53.181l27.568,-57.357l23.995,-60.364l20.189,-62.317l16.021,-63.048l11.592,-62.675l6.837,-61.264l1.054,-52.457l-4.183,-51.389l-8.978,-49.494l-13.399,-46.835l-18.679,-5.582l-14.058,-6.051l-8.708,-6.37" style="fill:none;stroke:#000;stroke-width:6.25px;"/><path d="M911.709,104.982l79.747,11.047l71.253,13.639l60.759,15.689l47.93,17.248l32.556,18.327l14.404,18.86l-6.123,17.789l-26.144,15.244l-44.431,12.233l-60.657,8.707" style="fill:none;stroke:#000;stroke-width:6.25px;"/><path d="M595.383,897.762l-66.494,2.254l-102.271,11.378l-88.232,18.469l-70.878,25.227l-49.709,31.563l-24.298,37.618l5.395,40.836l34.893,40.612l62.242,38.808l54.466,-9.585l52.942,-12.67l50.833,-18.101l48.145,-25.833l44.828,-35.901l41.047,-44.806l37.263,-50.52l33.177,-55.114l28.771,-58.501l23.996,-60.84l18.851,-61.998l13.311,-62.06l7.388,-60.981l0.362,-52.614l-6.103,-51.952l-8.63,-3.845l-5.411,-4.066l-1.763,-4.142" style="fill:none;stroke:#000;stroke-width:6.25px;"/><path d="M51.88,134.584l64.218,6.748l65.539,2.849l65.937,1.275l65.325,2.052l63.781,5.128l41.846,7.158l19.41,3.331l42.793,13.394l14.993,4.711l40.447,21.188l1.415,0.763l11.497,6.002" style="fill:none;stroke:#000;stroke-width:6.25px;"/><path d="M47.586,98.155l63.344,9.59l64.839,5.847l65.466,4.337l65.108,5.088l63.8,8.082l61.498,13.311l58.241,20.757l53.898,30.428l26.229,21.102l0.502,0.425" style="fill:none;stroke:#000;stroke-width:6.25px;"/><path d="M3.125,1016.32l62.288,-0.733l63.771,3.486l64.317,5.194l63.998,4.33l62.835,0.977l60.766,-4.94l57.842,-13.387l54.146,-24.387l48.178,-33.394l1.567,-1.069l20.976,-19.203l6.751,-6.178l9.106,-8.322l8.411,-7.704l11.459,-13.359l16.495,-19.333l6.775,-9.938l4.828,-5.616l5.402,-8.145l3.495,-4.005l26.892,-38.878l3.823,-7.59l25.18,-48.126" style="fill:none;stroke:#000;stroke-width:6.25px;"/><path d="M730.7,637.98l-15.667,59.717l-22.193,57.289l-0.436,0.938l-1.507,2.736l-23.651,45.47l-4.036,6.957l-2.813,3.174l-23.866,36.337l-8.07,13.136l-5.655,4.63l-10.501,10.036l-16.922,19.362l-1.344,1.57l-7.461,6.585l-10.147,8.949l-2.087,1.857l-8.626,7.546l-11.33,10.001l-1.183,1.052l-2.572,1.988l-16.007,10.095l-0.479,0.302l-9.261,5.991l-7.99,3.016l-39.272,14.726l-50.077,6.331l-52.219,-2.412l-53.581,-8.432l-54.239,-11.837l-54.113,-12.647l-53.322,-10.832l-51.808,-6.493l-69.026,41.386l-36.114,49.82l3.242,54.621l43.31,54.871l81.147,52.917l115.859,48.655l146.358,41.731l32.792,-23.078l32.888,-18.874l141.222,26.199l17.445,-19.977l17.153,-20.417l16.771,-23.118l16.277,-27.992l15.835,-35.078l15.271,-44.377l14.572,-52.258l13.654,-57.102l12.678,-60.724l11.501,-63.169l10.153,-64.488l8.736,-64.624l7.097,-63.664l5.313,-61.631l2.859,-52.165l0.887,-50.512l-0.929,-48.124l-2.629,-44.991l-4.305,-40.958l-5.845,-36.097l-1.192,-4.9" style="fill:none;stroke:#000;stroke-width:6.25px;"/><path d="M1462.86,1220.63l-58.961,-17.986l-76.529,37.884l-107.463,29.735l-134.522,19.809l-156.796,8.25l-16.46,-24.089l-16.567,-22.248l-16.111,-22.629l-15.296,-25.222l-14.001,-30.015l-12.38,-36.969l-10.341,-46.063l-8.279,-53.782l-6.525,-58.483l-4.85,-61.87l-3.182,-64.173l-1.483,-65.236l0.165,-65.206l1.852,-64.063l3.564,-61.721l4.882,-52.02l6.778,-50.114l8.482,-47.467l9.921,-44.058l11.168,-39.906l12.191,-34.829l1.854,-4.168" style="fill:none;stroke:#000;stroke-width:6.25px;"/><path d="M1513.88,1118.2l-60.99,-9.026l-63.112,-5.043l-63.942,-3.483l-63.541,-4.237l-61.993,-7.461l-59.081,-12.991l-55.115,-21.008l-49.876,-31.352l-39.817,-36.782l-0.577,-0.535l-3.731,-3.44l-15.834,-19.208l-11.484,-13.951l-0.961,-1.165l-5.199,-6.323l-5.211,-6.363l-8.263,-13.049l-6.806,-10.681l-6.619,-10.472l-11.365,-17.996l-2.755,-6.378l-1.466,-3.359l-2.04,-3.723l-20.685,-42.973l-1.098,-2.638" style="fill:none;stroke:#000;stroke-width:6.25px;"/><path d="M97.435,172.327l61.533,3.665l62.602,-0.364l62.776,-1.964l61.963,-1.141l60.314,2.027l57.7,7.542l37.354,15.476l7.334,3.038l25.468,7.231" style="fill:none;stroke:#000;stroke-width:6.25px;"/><path d="M49.677,1125.82l60.643,-10.042l61.678,-5.876l61.791,-4.179l61.058,-4.976l55.65,34.199l8.135,3.288l69.036,27.829l95.826,26.522l111.047,20.391l122.37,12.766l122.536,3.616l111.374,-5.459l96.41,-13.595l77.975,-20.668l56.753,-26.556l33.042,-31.43l7.292,-35.235l-18.992,-36.051l-41.795,-33.875l-59.926,-30.37l-1.1,-0.566l-76.908,-27.089l-87.595,-21.922l-2.406,-0.603l-4.764,2.018" style="fill:none;stroke:#000;stroke-width:6.25px;"/><path d="M682.12,120.138l-60.899,3.167l-51.698,6.237l-40.6,9.16l-27.337,11.927l-11.704,14.538l5.84,16.063l22.835,16.204l17.198,8.734l14.184,5.236l2.824,0.386l3.91,1.381l0.05,0.03l13.788,3.921l3.403,0.94l7.996,2.29" style="fill:none;stroke:#000;stroke-width:6.25px;"/><path d="M852.511,585.735l-0.738,2.702l-0.726,1.793l-0.013,1.557l-0.511,42.298l-0.178,15.67" style="fill:none;stroke:#000;stroke-width:6.25px;"/><path d="M1095.25,247.551l57.01,-20.152l59.971,-9.818l62.27,-1.763" style="fill:none;stroke:#000;stroke-width:6.25px;"/><path d="M83.82,66.077l59.2,11.983l60.861,8.382l61.642,6.964l61.542,7.702l60.479,10.648l58.494,15.777l32.663,-13.787l50.222,24.956l46.714,34.349l37.558,38.006l28.066,-6.828" style="fill:none;stroke:#000;stroke-width:6.25px;"/><path d="M446.038,127.533l55.548,23.096l51.553,32.614l22.498,-10.192l33.653,-7.87l43.12,-5.41" style="fill:none;stroke:#000;stroke-width:6.25px;"/><path d="M916.14,873.897l1.566,3.246l2.655,6.491l-3.45,9.301l-10.677,8.1l-17.111,6.639l-22.721,5.044l-27.413,3.158l-31.214,1.074l-34.112,-1.207l-34.064,-3.42l-31.126,-5.335l-27.275,-6.891l-22.466,-8.1l-16.83,-8.972l-10.372,-9.503l-3.896,-10.774l-0.272,-1.653l5.674,-6.492" style="fill:none;stroke:#000;stroke-width:6.25px;"/><path d="M1480.51,1064.02l-57.19,-4.525l-59.39,-0.524l-60.382,1.082l-60.244,0.311l-58.879,-2.948l-56.395,-8.623l-52.682,-16.788l-25.858,-21.814" style="fill:none;stroke:#000;stroke-width:6.25px;"/><path d="M1380.21,1262.4l-52.846,-21.878l-54.188,-17.892l-97.727,26.638l-121.805,17.677l-31.761,-21.304l-125.045,6.295l-1.282,0.043l-2.478,-0.065l-136.663,-3.995l-139.029,-14.534l-125.967,-23.233l-108.438,-30.243l-81.616,-33.199l-5.336,-2.187l-55.256,8.892l-55.327,10.551l-54.624,14.763" style="fill:none;stroke:#000;stroke-width:6.25px;"/><path d="M550.38,937.809l-14.163,9.254l-0.481,0.302l-8.22,5.365l-5.433,3.536l-19.449,12.706l-51.885,20.758l-55.215,9.528l-14.434,25.38l5.529,27.25l24.972,26.843l42.671,25.44l58.427,23.05l71.949,19.579l82.941,15.062l91.229,9.464l91.332,2.791l83.233,-3.874l72.422,-9.894l59.103,-15.106l43.529,-19.584l26.025,-23.369l6.757,-26.331l-13.192,-27.17l-30.791,-25.707l-45.701,-23.545l-31.325,-11.194l-18.554,-6.565" style="fill:none;stroke:#000;stroke-width:6.25px;"/><path d="M1129.61,240.365l56.483,-7.54l58.737,0.657l60.519,6.476l61.722,9.82l62.266,10.709l62.317,9.142l61.795,4.968" style="fill:none;stroke:#000;stroke-width:6.25px;"/><path d="M554.388,934.27l-55.928,6.397l-68.614,14.736l-54.518,19.956l-37.579,24.842l-17.415,29.377l5.692,31.693l28.316,31.251l49.097,29.75l67.646,26.994l83.563,22.966l96.664,17.622l106.38,11.077l106.459,3.201l96.965,-4.64l84.142,-11.713l68.356,-17.773l50.065,-23.029l29.541,-27.293l7.08,-30.734l-15.878,-31.538l-36.151,-29.743l-53.156,-27.189l-62.839,-22.292l-4.578,-1.615l-43.195,-10.886l-0.833,-0.206" style="fill:none;stroke:#000;stroke-width:6.25px;"/><path d="M553.139,183.243l40.43,35.693l1.017,0.891l3.394,3.789" style="fill:none;stroke:#000;stroke-width:6.25px;"/><path d="M181.992,209.873l55.24,0.493l56.066,-3.647l56.063,-5.256l55.178,-4.378l78.761,22.606l1.684,0.478l74.328,15.291l25.314,5.218l30.988,-6.71l29.267,-0.767" style="fill:none;stroke:#000;stroke-width:6.25px;"/><path d="M877.257,481.239l-1.469,3.676l-0.923,2.017l-0.63,1.983l-13.181,42.691l-1.219,4.601l-0.021,3.285l-7.303,46.243l-1.439,3.151l-4.236,2.694l-6.701,2.195l-8.805,1.596l-10.616,0.961l-12.023,0.219l-13.169,-0.507l-13.123,-1.297l-11.992,-1.904l-10.575,-2.414l-8.783,-2.812l-6.618,-3.093l-4.162,-3.279l-0.513,-52.984l-1.459,-3.491l-9.08,-55.637l-14.213,-46.658l-1.615,-4.226" style="fill:none;stroke:#000;stroke-width:6.25px;"/><path d="M153.959,40.508l52.65,13.789l54.31,10.336l80.942,-16.387l100.424,-10.859l36.641,11.379l36.857,12.189l93.587,-4.368l6.784,0.031l97.424,0.424l3.717,0.18l108.811,5.369l112.445,10.362l13.148,-10.617l12.984,-9.79l12.788,-10.994l12.625,-14.164l152.04,20.547l137.538,25.337l119.522,29.414l97.232,32.701" style="fill:none;stroke:#000;stroke-width:6.25px;"/><path d="M860.8,533.229l-0.965,2.978l-0.807,1.815l-0.282,1.672l-6.182,39.511l-0.791,9.232l0.663,3.102l-0.517,54.77l-1.574,3.446l0.166,1.422l4.029,38.011l2.384,22.616l13.514,61.995l20.09,60.783l26.383,58.353l4.048,6.85l28.286,47.959l4.899,6.489l33.058,43.567l43.408,44.185l49.28,35.224l54.572,25.081l58.758,17.394l61.781,11.962l63.628,8.876l64.238,8.105l63.59,9.705l61.712,13.621" style="fill:none;stroke:#000;stroke-width:6.25px;"/><path d="M1414.24,1013.65l-51.05,-0.483l-2.641,-1.318l-82.703,-40.586l-106.064,-36.493l-122.81,-30.254l-117.953,-19.912l-8.942,-1.474" style="fill:none;stroke:#000;stroke-width:6.25px;"/><path d="M1091.63,250.771l50.027,-5.713l52.151,2.646l51.017,-14.222l29.677,-17.664l63.918,3.877l64.957,7.093l65.357,7.935l65.186,6.34l64.366,2.332" style="fill:none;stroke:#000;stroke-width:6.25px;"/><path d="M936.493,258.918l26.259,-39.311l29.332,-35.911" style="fill:none;stroke:#000;stroke-width:6.25px;"/><path d="M652.41,159.771l24.908,39.746l20.565,41.41" style="fill:none;stroke:#000;stroke-width:6.25px;"/><path d="M251.786,21.452l44.235,15.063l45.84,11.731l46.703,10.449l90.362,-9.929l6.65,-0.303l95.616,-4.363l2.643,-0.12l5.055,0.022l109.969,0.534l1.554,0.005l2.759,0.15l6.733,0.325l116.168,5.764l125.628,11.56l116.305,15.886l82.354,15.436l15.902,2.964l6.37,1.219l3.096,0.762l79.77,20.104l7.169,1.778l46.302,-3.846l45.66,-5.27l44.567,-8.687" style="fill:none;stroke:#000;stroke-width:6.25px;"/><path d="M302.252,245.552l45.508,-2.631l46.061,-6.825l46.014,-8.438l45.15,-7.484l43.613,-4.055l33.863,0.757l7.529,1.035" style="fill:none;stroke:#000;stroke-width:6.25px;"/><path d="M992.084,183.696l43.045,11.445l33.563,12.618l22.438,13.286l9.378,13.655l-5.254,12.851l-6.455,3.595" style="fill:none;stroke:#000;stroke-width:6.25px;"/><path d="M1320.92,968.24l-43.075,3.021l-45.047,7.219l-46.099,8.928l-46.222,8.141l-45.365,4.931l-43.58,-0.943l-29.353,-6.762l-7.592,-1.752" style="fill:none;stroke:#000;stroke-width:6.25px;"/><path d="M516.896,956.714l-42.495,3.727l-44.555,-5.038l-45.532,-11.076l-45.928,-14.464l-45.69,-15.177l-44.939,-13.35l-43.574,-8.928" style="fill:none;stroke:#000;stroke-width:6.25px;"/><path d="M682.12,120.138l21.149,36.845l16.758,40.088l14.964,45.766l0.861,3.349" style="fill:none;stroke:#000;stroke-width:6.25px;"/><path d="M696.444,309.884l20.366,37.146l28.695,6.078l32.777,4.889l35.831,3.42l35.809,1.569l32.802,-0.294l28.698,-2.081l25.975,-33.322" style="fill:none;stroke:#000;stroke-width:6.25px;"/><path d="M671.254,307.523l21.838,32.522l22.555,44.627l17.555,48.002l12.106,50.377l11.395,3.532l13.772,3.064l15.67,2.423l17.102,1.648l17.104,0.699l15.693,-0.216l13.795,-1.171l11.437,-1.917l8.684,-2.686l5.458,-3.283" style="fill:none;stroke:#000;stroke-width:6.25px;"/><path d="M973.643,258.746l25.098,-29.375l36.388,-34.23l43.384,-29.73l44.955,-20.054l45.988,-12.695l55.729,19.764l38.217,21.073l60.585,-2.085l20.749,24.787l-6.313,23.494l-33.076,20.263l-57.738,16.336l-79.896,11.777l-44.041,-10.183l-42.669,-4.123l-14.082,0.904l-4.745,0.33l-14.002,0.881l-8.772,0.595l-1.87,0.115l-17.101,1.069l-12.589,0.848l-1.443,0.086l-32.756,0.153l-37.15,0.172l-13.916,0.083l-2.244,0l-21.983,-1.023l-0.263,-0.016l-39.503,-1.826l-0.252,0.025l-32.563,-1.539l-8.9,-0.838l-41.308,-3.885l-0.304,-0.005l-39.405,-3.708l-4.738,-0.449l-7.864,-1.16l-4.988,-0.728l-20.379,-2.922l-36.25,-5.292l-16.752,-2.434l-13.33,-2.708l-3.743,-0.761l-28.629,-5.835l-1.199,-0.281l-5.346,-1.105l-2.688,-0.528l-8.036,-1.631l-11.92,-2.441l-2.054,-0.095l-5.475,-0.94l-7.427,-3.22l-4.762,-1.337l-15.635,-4.693l-25.626,-7.02l-50.994,-4.599l-53.478,1.078l-58.23,-24.562l-33.41,-25.015l-6.556,-24.491l20.722,-21.909l44.327,-17.741l54.463,12.665l55.897,-11.96l44.948,19.156l42.823,26.314l39.767,35.639l31.971,39.048l36.057,-4.712l42.709,-2.446l47.997,-0.118l52.099,2.445l52.06,4.872l47.933,6.847l42.636,8.49l35.989,9.764l28,10.708l41.951,-32.32l50.329,-27.501l27.294,15.774l11.737,16.17l-5.788,15.197l-22.656,12.966l-37.975,10.406l-2.834,0.375l-21.018,3.032l-5.605,0.821" style="fill:none;stroke:#000;stroke-width:6.25px;"/><path d="M1067.78,254.178l32.727,-19.478l57.544,-22.498l60.306,-12.41l62.472,-4.537" style="fill:none;stroke:#000;stroke-width:6.25px;"/><path d="M371.968,8.958l34.472,15.826l35.845,12.603l110.864,-4.95l5.331,-0.237l1.555,0l124.203,0.677l3.067,0.015l0.833,0.047l5.383,0.271l132.526,6.582l138.636,12.754l128.483,17.519l101.55,18.937l14.26,2.63l35.784,-7.485l34.914,-10.875" style="fill:none;stroke:#000;stroke-width:6.25px;"/><path d="M641.261,204.229l20.372,31.406" style="fill:none;stroke:#000;stroke-width:6.25px;"/><path d="M533.649,947.626l-35.189,-6.959l-35.826,-13.001l-36.016,-16.272l-35.746,-17.036l-35.085,-15.057l-33.993,-10.689" style="fill:none;stroke:#000;stroke-width:6.25px;"/><path d="M1205.54,928.734l-33.76,6.034l-35.38,10.267l-36.359,12.085l-36.473,11.34l-35.874,8.113l-29.782,1.898" style="fill:none;stroke:#000;stroke-width:6.25px;"/><path d="M655.529,306.022l19.768,26.433l26.292,46.166l1.564,3.721l19.124,45.508l14.401,51.356l7.599,52.54l7.134,3.257l9.475,2.969l11.398,2.582l12.974,2.028l14.134,1.369l14.181,0.58l12.974,-0.216l11.423,-1.007l9.522,-1.66l7.195,-2.284l8.593,-28.639l2.261,-7.47l4.027,-13.557l0.392,-1.271l14.746,-32.713l2.234,-5.004l5.002,-11.057l22.012,-36.182l4.602,-7.584l1.255,-2.065l28.383,-35.913l4.761,-6.03l11.013,-6.377" style="fill:none;stroke:#000;stroke-width:6.25px;"/><path d="M976.049,328.998l-23.094,22.881l-17.838,5.066l-23.695,3.666l-24.362,40.268l-20.686,44.455l-16.535,47.696l-11.869,50.278l-6.64,52.063l-2.05,61.57l2.698,63.657l7.143,64.618l11.535,64.426l15.746,63.076l19.844,60.504l23.768,56.813l27.711,51.912l31.971,43.858l36.109,34.544l39.453,27.43l41.973,22.521l43.679,19.732l44.541,19.24l44.452,20.989l43.381,25.033l116.928,-32.89l82.644,-41.776l45.313,-48.675l5.709,-53.753l-33.371,-54.184l-66.265,-50.368l-7.097,-3.439l-86.222,-41.969l-7.661,-2.639l-107.718,-36.867l-7.026,-1.731l-126.189,-30.941l-147.676,-24.847l-10.289,-1.025" style="fill:none;stroke:#000;stroke-width:6.25px;"/><path d="M944.536,1326.6l-15.951,-28.282l-173.209,-4.935l-173.106,-18.168l-156.437,-29.176l-133.928,-37.874l-45.222,19.221" style="fill:none;stroke:#000;stroke-width:6.25px;"/><path d="M635.791,850.581l-30.199,-1.096l-143.088,4.511l-5.739,0.165l-127.588,13.67l-7.383,0.781l-117.611,23.796l-95.918,32.71" style="fill:none;stroke:#000;stroke-width:6.25px;"/><path d="M738.872,92.779l11.417,27.471l10.112,36.726l7.623,39.977l6.496,45.718l0.737,7.223" style="fill:none;stroke:#000;stroke-width:6.25px;"/><path d="M510.081,3.125l23.674,16.112l140.82,0.843l8.268,0.413l143.253,7.151l151.375,13.908l140.468,19.075l24.197,-12.692" style="fill:none;stroke:#000;stroke-width:6.25px;"/><path d="M754.44,1321.3l0.936,-27.913l0.57,-23.673l0.471,-21.789l0.494,-22.185l0.781,-24.807l1.126,-29.605l1.75,-36.591l2.49,-45.679l3.097,-53.525l3.578,-58.142l3.93,-61.646l4.18,-63.914l4.341,-65.078l4.432,-65.061l4.473,-63.951l4.433,-61.695l3.87,-52.093l3.855,-50.233l3.768,-47.664l3.658,-44.398l3.44,-40.239l3.177,-35.292l0.42,-4.688" style="fill:none;stroke:#000;stroke-width:6.25px;"/><path d="M1007.84,258.507l18.899,-18.428" style="fill:none;stroke:#000;stroke-width:6.25px;"/><path d="M1072.33,896.062l-23.355,8.452l-24.6,12.8l-25.355,14.643l-25.448,13.978l-7.605,-1.317" style="fill:none;stroke:#000;stroke-width:6.25px;"/><path d="M613.195,211.057l14.613,18.675" style="fill:none;stroke:#000;stroke-width:6.25px;"/><path d="M980.904,329.244l-16.936,16.258l-3.402,4.196l-3.153,3.827l-28.801,35.164l-1.995,3.17l-1.975,3.078l-25.821,40.618l-2.288,4.802l-19.276,40.882l-1.469,3.676l-0.929,3.919l-13.805,42.772l-1.82,4.936l-4.547,2.822l-0.153,1.034l-3.156,20.959l-4.542,30.223l-0.353,21.585l-0.642,39.573l1.287,14.066l4.475,48.635l12.158,63.051l18.288,62.261l24.185,60.284l29.757,57.098l35.146,52.756l40.271,47.275l45.925,38.63l51.104,28.865l55.242,21.318l58.28,16.099l60.276,13.101l61.002,12.431l60.658,14.034l42.562,-44.31l6.431,-49.158l-29.571,-49.683l-60.125,-46.326l-53.15,3.577l-54.293,5.266l-54.243,4.477l-53.235,1.184l-51.035,-4.587l-47.749,-12.895l-25.83,-14.185l-9.067,-4.979l-6.443,-3.572l-6.491,-5.673l-3.74,-3.307l-12.716,-11.159l-1.53,-1.831l-14.544,-17.14l-0.319,-0.388l-2.841,-3.335l-0.631,-0.736l-10.443,-12.333l-6.941,-8.141l-0.083,-0.149l-13.659,-21.219l-12.13,-18.912l-0.967,-1.509l-3.406,-4.476l-3.417,-6.114l-0.189,-0.855l-20.685,-42.973l-1.098,-2.638l-19.645,-56.243l-13.915,-60.763l-6.387,-57.011l-1.106,-1.384l-5.423,3.576l-7.124,2.393l-9.437,1.81l-11.281,1.055l-12.872,0.276l-14.038,-0.533l-14.003,-1.361l-12.813,-2.071l-11.278,-2.614l-9.334,-3.095l-7.087,-3.398l-4.41,-3.557l-1.464,-3.663l8.194,-60.076l0.133,-51.388l-7.76,-51.376l-2.05,-6.007l-14.213,-46.658l-1.615,-4.226l-19.085,-42.8l-1.423,-3.198l-26.008,-43.351l-2.586,-4.31l-14.823,-19.134" style="fill:none;stroke:#000;stroke-width:6.25px;"/><path d="M1026.74,240.079l18.551,11.356l2.882,4.445" style="fill:none;stroke:#000;stroke-width:6.25px;"/><path d="M1280.83,195.255l-6.325,20.563" style="fill:none;stroke:#000;stroke-width:6.25px;"/><path d="M1027.54,1004.49l8.686,19.107l-5.618,18.386l-19.202,16.179l-31.45,13.481l-42.233,10.302l-51.416,6.649l-58.88,2.489l-64.371,-2.029l-64.363,-6.649l-58.61,-10.442l-51.078,-13.552l-41.762,-15.976l-30.877,-17.701l-18.474,-18.755l-4.806,-19.117l9.546,-17.892l18.4,-12.595l3.852,-2.679" style="fill:none;stroke:#000;stroke-width:6.25px;"/><path d="M574.344,916.723l-20.657,0.691l-91.053,10.252l-78.32,16.661l-62.567,22.6l-43.532,28.215l-20.716,33.459l5.663,36.233l31.685,35.909l59.495,-8.221l57.259,-13.791l54.23,-21.82l50.537,-32.175l46.221,-41.454l41.967,-47.644l27.778,-39.117l9.568,-13.496l18.072,-31.582l14.181,-24.879l26.856,-59.194l20.975,-60.845l14.588,-61.325l7.857,-60.676l-0.154,-52.778l-4.521,-3.485" style="fill:none;stroke:#000;stroke-width:6.25px;"/><path d="M631.301,303.705l17.008,-7.82l6.459,0.59l36.188,3.453l35.78,3.39l100.348,9.509l39.755,1.801l42.809,1.928l34.858,1.567l25.422,1.133l35.698,1.643l157.693,-1.241l3.484,-0.033l33.307,10.056" style="fill:none;stroke:#000;stroke-width:6.25px;"/><path d="M920.333,259.001l16.455,5.016l16.802,11.267l17.061,14.951l130.187,-0.819l111.972,-7.562l45.775,14.851l46.079,13.258l46.062,9.035" style="fill:none;stroke:#000;stroke-width:6.25px;"/><path d="M985.2,967.312l6.903,15.53l-4.901,14.958l-16.065,13.089l-26.152,10.888l-34.971,8.258l-42.376,5.292l-48.488,1.976l-52.995,-1.772l-52.888,-5.382l-48.298,-8.518l-42.146,-10.996l-34.531,-13.004l-25.703,-14.349l-15.509,-15.283l-4.247,-15.598l7.8,-15.091l2.572,-1.988" style="fill:none;stroke:#000;stroke-width:6.25px;"/><path d="M718.262,243.849l16.729,-1.012l39.529,-0.166l42.91,1.986l6.773,0.635l36.125,3.383l39.473,5.719l16.15,3.242l6.626,1.365" style="fill:none;stroke:#000;stroke-width:6.25px;"/><path d="M731.114,245.737l-15.04,2.801l-15.496,-2.254l-35.336,-5.107l-49.628,-7.209l-17.084,-3.51l-18.506,-3.816l-8.765,-1.781l-42.661,-8.742l-7.057,-2.004l-63.524,-18.108l-51.394,-21.457l-29.944,-21.918l-6.536,-21.533l17.401,-19.343l38.311,-15.724l52.846,17.714l47.999,-10.518l60.912,-7.123l71.411,-3.549l79.849,0.223" style="fill:none;stroke:#000;stroke-width:6.25px;"/><path d="M565.718,924.269l-12.031,-6.855l-24.798,-17.398l-24.587,-18.058l-24.107,-16.115l-23.43,-11.682" style="fill:none;stroke:#000;stroke-width:6.25px;"/><path d="M947.951,923.408l5.463,12.424l-4.169,11.912l-13.254,10.389l-21.331,8.597l-28.414,6.492l-34.4,4.134l-39.221,1.464l-42.892,-1.431l-42.812,-4.342l-39.078,-6.818l-34.213,-8.775l-28.075,-10.343l-20.999,-11.473l-12.816,-12.168l-3.663,-12.476l5.962,-11.662" style="fill:none;stroke:#000;stroke-width:6.25px;"/><path d="M664.287,324.59l11.01,7.865l17.795,7.59l23.718,6.985l17.516,43.224l22.537,4.844l25.724,3.857l28.086,2.701l28.081,1.236l25.728,-0.287l22.578,-1.726l18.677,-2.919l14.074,-4.138l8.801,-5.133" style="fill:none;stroke:#000;stroke-width:6.25px;"/><path d="M626.808,861.762l-9.193,-0.328l-137.42,4.409l-124.408,13.458l-108.03,22.035l-87.684,30.275l-62.596,38.186l-32.064,45.794l4.17,50.057l40.737,50.126l75.128,48.196l106.457,44.197l45.675,-14.983l121.141,33.983l32.7,-17.011l32.073,-17.575l31.154,-20.349l30,-25.432l28.561,-32.683l26.876,-42.152l24.884,-50.334l22.874,-55.402l20.63,-59.241l18.174,-61.947l15.496,-63.554l12.631,-63.947l9.499,-63.233l6.134,-61.464l1.877,-52.289l-1.809,-50.907l-5.205,-48.785l-8.407,-45.764l-11.358,-41.99l-14.063,-37.292l-22.726,-4.751" style="fill:none;stroke:#000;stroke-width:6.25px;"/><path d="M816.869,253.784l0.561,-9.127l2.693,-45.259l2.221,-39.479l1.834,-36.105l1.142,-26.826l0.564,-19.691l0.221,-14.71l-0.033,-11.811l-0.025,-10.984l0.048,-12.152l0.287,-15.272" style="fill:none;stroke:#000;stroke-width:6.25px;"/><path d="M924.653,871.215l-6.59,5.659" style="fill:none;stroke:#000;stroke-width:6.25px;"/><path d="M715.435,422.79l6.842,5.06l10.925,4.824l14.523,4.415l17.545,3.773l19.946,3.084l21.799,2.108l21.818,0.896l19.999,-0.255l17.542,-1.361l14.541,-2.407l11.027,-3.274l6.879,-4.098" style="fill:none;stroke:#000;stroke-width:6.25px;"/><path d="M1039.4,256.475l5.89,-5.04l45.838,-30.39l55.185,-25.013l57.639,-15.1l59.448,-7.433l17.428,21.756l63.945,0.936l64.702,4.055l64.866,4.83l64.493,3.291l63.433,-0.653" style="fill:none;stroke:#000;stroke-width:6.25px;"/><path d="M893.339,827.394l-2.811,7.188l-8.479,6.169l-13.523,5.067l-17.87,3.824l-21.536,2.394l-24.527,0.741l-26.75,-0.948l-26.743,-2.675l-24.453,-4.113l-21.454,-5.308l-17.69,-6.237l-13.348,-6.932l-8.23,-7.32l-2.715,-8.157l3.703,-6.435" style="fill:none;stroke:#000;stroke-width:6.25px;"/><path d="M858.584,256.136l1.744,-7.461l11.855,-44.405l12.081,-38.598l13.784,-35.001l13.661,-25.689" style="fill:none;stroke:#000;stroke-width:6.25px;"/><path d="M621.997,867.288l-4.382,-5.854l-12.023,-11.949" style="fill:none;stroke:#000;stroke-width:6.25px;"/><path d="M872.672,768.32l-2.234,5.479l-6.677,4.691l-10.612,3.852l-14.028,2.874l-16.828,1.772l-19.183,0.553l-20.926,-0.79l-20.931,-2.085l-19.11,-3.179l-16.761,-4.071l-13.883,-4.76l-10.488,-5.286l-6.519,-5.622l-2.088,-5.824l0.436,-0.938" style="fill:none;stroke:#000;stroke-width:6.25px;"/><path d="M858.757,707.557l-1.833,4.247l-5.321,3.635l-8.475,2.975l-11.15,2.184l-13.448,1.338l-15.255,0.399l-16.659,-0.645l-16.627,-1.648l-15.215,-2.502l-13.371,-3.172l-11.053,-3.71l-8.364,-4.133l-5.234,-4.372l-1.719,-4.456" style="fill:none;stroke:#000;stroke-width:6.25px;"/><path d="M825.769,254.622l0.736,4.333l0.322,10.486l0.088,14.26l0.028,15.311l0.141,13.815l0.458,9.543" style="fill:none;stroke:#000;stroke-width:6.25px;"/><path d="M898.35,257.978l1.451,-3.584l20.315,-43.277l21.21,-37.39l24.839,-33.535l25.291,-24.163l25.516,-16.931l82.225,15.601l36.731,-9.898l70.035,17.764l10.042,2.516l46.662,-4.592l3.142,1.095l62.09,21.589l6.855,2.382l50.431,26.843l24.292,27.848l-6.097,26.542l-36.311,22.99l-64.417,18.61l-55.002,-12.105l-53.839,-8.579l-70.139,10.184l-53.01,3.454l-33.679,2.171l-34.473,0.184l-33.271,0.164l-32.451,0.156l-40.675,-1.855l-38.502,-1.793l-31.106,-1.414l-11.958,-1.136l-38.383,-3.595l-39.191,-3.722l-20.899,-1.964l-16.138,8.967l-56.916,-8.31l-58.394,-8.517l-32.226,10.282l-112.565,-23.302l-90.474,-26.195l-65.016,-27.803l-36.771,-28.204l-6.339,-27.527l24.288,-24.523l50.595,-19.784l72.446,-14.927l46.874,11.245l46.314,14.132l70.46,-8.035l35.4,20.068l33.609,27.2l31.189,36.466l50.859,-2.788l57.132,-0.007l61.943,2.943l61.92,5.753l57.062,8.055l50.758,9.969l34.807,-31.776l35.818,-22.252l36.488,-14.969l70.259,17.963l46.549,-7.581l63.823,22.416l44.159,23.917l61.198,0.984l61.089,1.707l28.069,30.971l-5.606,29.647l-39.402,25.764l-70.986,20.985l-55.697,-13.084l-89.842,13.466l-45.097,-13.783l-99.165,6.571l-58.727,0.333l-55.332,0.283l-0.899,0.026l-62.304,-2.845l-64.459,-2.998l-49.185,-4.612l-77.706,-7.324l-16.935,12.589l-130.601,-19.134l-32.896,11.323l-125.683,-26.187l-100.523,-29.377l-71.728,-31.091l-39.934,-31.451l-5.867,-30.585l28.112,-27.15l57.038,-21.809l55.198,8.985l55.275,9.749l64.046,-13.427l80.345,-8.985l36.429,15.082l82.393,-3.958l24.418,20.477l23.097,27.582l68.169,0.112l73.889,3.564l73.87,6.857l68.117,9.521l60.726,11.728l51.622,13.491l40.508,14.847l52.377,-17.653l53.787,-10.179l54.643,-4.929l54.926,-1.942l54.741,-1.202l56.779,29.752l60.507,0.178l59.366,-3.569l36.122,37l-3.98,35.681l-44.842,31.202l-83.545,25.62l-119.176,18.781l-11.81,0.852l-138.806,9.831l-9.814,0.098l-166.805,1.366l-17.865,-10.246l-17.61,-14.588l-17.365,-16.076l-143.736,-6.534l-48.578,-4.603l-95.336,-9.004l-17.336,13.648l-146.161,-21.459l-33.024,9.72l-32.567,5.497l-133.042,-28.028l-7.137,-1.504l-11.482,-2.416l-108.998,-32.319l-11.262,-3.36l-75.588,-33.572l-8.969,-3.974l-45.555,-37.743l-4.294,-36.429l36.234,-32.078l70.139,-25.569l97.827,-19.056l120.182,-12.494l138.113,-5.833l152.435,1.027l12.059,15.928l12.691,12.822l13.147,11.639l13.165,12.501l12.947,15.378l12.347,20.359l86.448,4.209l86.389,7.994l13.482,-18.513l13.36,-13.516l104.008,14.288l25.447,-9.015l25.16,-8.161l24.773,-9.438l107.876,19.994l18.945,3.526l109.869,27.226l88.911,30.326l63.241,32.584l32.055,34.084l-4.913,32.696l-42.271,28.566l-77.392,23.315l-109.596,17.019l-4.229,0.32l-133.632,9.342l-33.159,-14.324l-145.628,1.01l-116.462,-5.253l-44.611,-2.046l-105.612,-9.989l-38.302,-3.617l-17.364,-1.664l-17.356,12.143l-161.829,-23.882l-134.603,-28.215l-4.117,-0.867l-106.402,-31.332l-4.126,-1.223l-74.886,-32.888l-3.378,-1.486l-42.87,-34.66l-5.168,-33.587l32.09,-29.685l63.589,-23.763l89.412,-17.782l110.419,-11.731l127.315,-5.547l24.725,12.963l25.355,11.78l25.535,12.607l25.235,15.492l91.92,0.341l3.98,0.192l95.379,4.685l99.307,9.172l91.781,12.629l25.587,-11.857l84.687,15.93l8.682,1.63l36.704,-6.956l36.344,-6.213l97.912,24.493l2.081,0.518l6.844,2.341l71.728,24.687l1.954,0.682l54.045,-2.654l52.888,-6.312l69.719,35.327" style="fill:none;stroke:#000;stroke-width:6.25px;"/><path d="M738.894,577.904l1.375,3.341l-8.105,60.398l-15.412,60.51l-9.203,24.618l-13.057,34.977l-4.133,8.363l-24.434,49.133l-20.071,31.689l-14.324,22.589l-18.822,23.671l-20.968,26.277l-7.416,7.393l-37.244,37.136l-49.186,37.982l-53.73,28.332l-57.535,17.575l-60.603,9.383l-62.864,3.563l-64.266,0.273l-64.84,-0.565l-64.473,1.106l-63.216,5.297" style="fill:none;stroke:#000;stroke-width:6.25px;"/><path d="M551.961,211.221l-2.88,-2.038l-5.301,-13.588l9.359,-12.352" style="fill:none;stroke:#000;stroke-width:6.25px;"/><path d="M592.634,222.511l1.952,-2.684l18.609,-8.77" style="fill:none;stroke:#000;stroke-width:6.25px;"/><path d="M730.019,313.092l1.423,2.724l40.995,6.084l44.853,4.225l44.823,2.032l40.948,-0.333l1.53,-2.009" style="fill:none;stroke:#000;stroke-width:6.25px;"/><path d="M534.434,947.5l-0.785,0.126l-59.248,12.815l-46.854,17.33l-32.013,21.487l-57.785,0.943l-59.534,-5.059l-60.416,-8.489l-60.541,-9.275l-59.82,-7.571l-58.188,-3.264" style="fill:none;stroke:#000;stroke-width:6.25px;"/><path d="M453.913,277.5l9.303,1.376l168.085,24.829l18.163,1.751l3.545,0.339l2.52,0.227l4.961,0.475l10.764,1.026l25.19,2.361l12.272,1.181l21.303,2.027l0.394,0.024l40.832,3.884l0.396,0.023l46.069,4.414l9.832,0.933l36.031,1.596l0.394,0.023l40.269,1.792l0.355,0.034l16.681,0.726l16.125,0.748l24.155,1.085l14.497,0.624l4.855,0.246l42.587,1.901" style="fill:none;stroke:#000;stroke-width:6.25px;"/><path d="M934.209,902.04l4.746,0.792l24.504,4.142l60.915,10.34l112.03,27.721l96.397,33.445l77.241,38.262l53.885,42.225l25.849,45.164l-6.909,44.496l-39.63,39.981l-70.059,34.026l-54.421,-16.19l-53.551,-16.812l-51.592,-19.626l-48.706,-24.763l-44.874,-32.01l-40.076,-41.588l-34.973,-49.868l-30.325,-55.047l-25.537,-59.056l-20.597,-61.856l-15.377,-63.476l-10.021,-63.928l-4.411,-63.283l1.418,-61.356l7.357,-52.127l13.784,-50.535l19.639,-48.186l24.822,-44.967l29.38,-41.015l26.435,-28.571" style="fill:none;stroke:#000;stroke-width:6.25px;"/><path d="M518.557,197.434l-18.871,-5.332l-35.363,-10.01l-26.387,-18.967l-6.295,-18.715l14.397,-16.877" style="fill:none;stroke:#000;stroke-width:6.25px;"/><path d="M947.868,923.259l9.357,1.577l41.794,7.121l101.026,25.163l86.657,30.288l69.047,34.6l47.796,38.041l22.289,40.599l-7.205,39.874l-36.394,35.655l-63.478,30.267l-87.847,23.588l-109.025,15.613l-31.064,-21.75l-29.705,-24.403l-27.733,-29.249l-25.132,-36.252l-21.942,-45.395l-18.671,-53.269l-15.792,-57.971l-12.857,-61.48l-9.869,-63.84l-6.827,-65.048l-3.763,-65.052l-0.531,-63.94l2.715,-61.664l5.833,-52.017l9.497,-50.114l12.788,-47.506l15.65,-44.09l18.242,-39.913l20.337,-34.868l18.211,-1.283" style="fill:none;stroke:#000;stroke-width:6.25px;"/><path d="M1008.15,987.451l3.175,2.813l16.22,14.228l12.307,7.084l35.496,20.425l10.759,22.95l-6.214,22.258l-22.557,19.585l-37.299,16.439l-50.338,12.572l-61.445,8.186l-70.481,3.157l-77.202,-2.413l-77.144,-7.951l-70.215,-12.667l-61.045,-16.431l-49.747,-19.348l-36.586,-21.427l-21.667,-22.598l-5.222,-23.062l11.807,-21.521l26.875,-18.29" style="fill:none;stroke:#000;stroke-width:6.25px;"/><path d="M536.716,204.925l12.726,5.275l3.321,1.59l3.96,1.411" style="fill:none;stroke:#000;stroke-width:6.25px;"/><path d="M1006.4,258.593l1.166,0.161l29.418,4.759l31.565,11.129l32.29,14.774l32.806,15.885l124.941,-8.596l99.764,-15.233l55.911,11.472l55.642,7.273" style="fill:none;stroke:#000;stroke-width:6.25px;"/></g></g></g></svg>