<?xml version="1.0" encoding="UTF-8" standalone="no"?><!DOCTYPE svg PUBLIC "-//W3C//DTD SVG 1.1//EN" "http://www.w3.org/Graphics/SVG/1.1/DTD/svg11.dtd"><svg width="100%" height="100%" viewBox="0 0 1997 2846" version="1.1" xmlns="http://www.w3.org/2000/svg" xmlns:xlink="http://www.w3.org/1999/xlink" xml:space="preserve" xmlns:serif="http://www.serif.com/" style="fill-rule:evenodd;clip-rule:evenodd;stroke-miterlimit:2;"><path d="M1940.15,83.824c-1294.71,133.912 -2137.94,1333 -1883.42,2678.25c1294.71,-133.913 2137.95,-1333 1883.42,-2678.25Z" style="fill:none;stroke:#030404;stroke-width:10.2px;"/><path d="M216.217,2799.37l0.012,0.023c1232.13,-230.638 1932.53,-1463.12 1564.4,-2752.85l0.023,-0.012l-0.023,0.012c-1232.12,230.602 -1932.54,1463.09 -1564.41,2752.83Z" style="fill:none;stroke:#030404;stroke-width:10.2px;"/><path d="M1623.91,22.567c-1163.11,319.926 -1723.16,1573.87 -1250.94,2800.76c1163.09,-319.912 1723.16,-1573.87 1250.94,-2800.76Z" style="fill:none;stroke:#030404;stroke-width:10.2px;"/><path d="M525.8,2834.5l0.023,-0.012c1088.54,-401.475 1511.74,-1665.43 945.23,-2823.09c-1088.54,401.476 -1511.74,1665.44 -945.253,2823.1Z" style="fill:none;stroke:#030404;stroke-width:10.2px;"/><path d="M1323.12,12.362c-1009.42,475.111 -1300.13,1738.19 -649.361,2821.17c1009.39,-475.097 1300.13,-1738.19 649.361,-2821.17Z" style="fill:none;stroke:#030404;stroke-width:10.2px;"/><path d="M815.868,2821.16c926.576,-540.66 1090.05,-1792.66 365.153,-2796.41c-926.588,540.636 -1090.06,1792.63 -365.153,2796.41Z" style="fill:none;stroke:#030404;stroke-width:10.2px;"/><path d="M1045.56,47.813c-840.94,598.027 -883.148,1829.38 -94.27,2750.28c840.96,-598.038 883.171,-1829.39 94.27,-2750.28Z" style="fill:none;stroke:#030404;stroke-width:10.2px;"/><path d="M1079.37,2765.15c753.393,-647.247 680.92,-1849.1 -161.844,-2684.39l-0.012,-0.024l-0.023,0.012c-753.355,647.258 -680.895,1849.09 161.879,2684.4Z" style="fill:none;stroke:#030404;stroke-width:10.2px;"/><path d="M797.442,122.742c-664.711,688.388 -484.715,1852.63 401.993,2600.41c664.688,-688.377 484.727,-1852.61 -401.993,-2600.41Z" style="fill:none;stroke:#030404;stroke-width:10.2px;"/><path d="M1310.99,2673c575.664,-721.548 295.831,-1840.86 -625.095,-2500.07c-575.7,721.536 -295.829,1840.86 625.095,2500.07Z" style="fill:none;stroke:#030404;stroke-width:10.2px;"/><path d="M583.284,230.393c-487.084,746.911 -115.341,1814.79 830.309,2385.11c487.084,-746.912 115.353,-1814.76 -830.309,-2385.11Z" style="fill:none;stroke:#030404;stroke-width:10.2px;"/><path d="M1506.94,2551.62c399.597,-764.774 -55.738,-1775.42 -1017,-2257.34c-399.6,764.776 55.715,1775.43 1017,2257.34Z" style="fill:none;stroke:#030404;stroke-width:10.2px;"/><path d="M406.074,363.718c-313.879,775.364 216.556,1723.85 1184.72,2118.5c313.866,-775.386 -216.535,-1723.86 -1184.69,-2118.51l-0.024,0.012Z" style="fill:none;stroke:#030404;stroke-width:10.2px;"/><path d="M1665.01,2408.14c230.504,-779.064 -366.378,-1661.22 -1333.18,-1970.38c-230.48,779.05 366.378,1661.22 1333.18,1970.38Z" style="fill:none;stroke:#030404;stroke-width:10.2px;"/><path d="M267.304,515.632c-150.023,776.16 504.651,1588.62 1462.26,1814.67c150.034,-776.196 -504.626,-1588.63 -1462.23,-1814.68l-0.026,0.013Z" style="fill:none;stroke:#030404;stroke-width:10.2px;"/><path d="M1784.46,2249.52c72.943,-767.125 -630.885,-1507.27 -1572.04,-1653.11l-0.012,-0.024l0.012,0.024c-72.969,767.138 630.873,1507.25 1572.04,1653.11Z" style="fill:none;stroke:#030404;stroke-width:10.2px;"/><path d="M167.086,679.273c0.284,752.371 744.727,1418.29 1662.72,1487.38c-0.321,-752.383 -744.742,-1418.31 -1662.72,-1487.38Z" style="fill:none;stroke:#030404;stroke-width:10.2px;"/><path d="M1865.76,2082.45c-69.358,-732.295 -845.98,-1322.85 -1734.64,-1319c69.345,732.333 845.99,1322.87 1734.64,1319Z" style="fill:none;stroke:#030404;stroke-width:10.2px;"/><path d="M104.244,848.174c133.898,707.455 934.578,1222.14 1788.36,1149.56c-133.872,-707.468 -934.554,-1222.15 -1788.36,-1149.56Z" style="fill:none;stroke:#030404;stroke-width:10.2px;"/><path d="M1910.63,1913.18c-193.61,-678.271 -1010.42,-1117.22 -1824.4,-980.451c193.634,678.259 1010.46,1117.24 1824.4,980.451Z" style="fill:none;stroke:#030404;stroke-width:10.2px;"/><path d="M76.667,1016.42c248.379,645.223 1073.76,1009.25 1843.54,813.068c-248.379,-645.223 -1073.76,-1009.25 -1843.54,-813.068Z" style="fill:none;stroke:#030404;stroke-width:10.2px;"/><path d="M1921.71,1747.27c-297.953,-608.807 -1124.69,-899.214 -1846.55,-648.648l-0.025,0.013c297.968,608.829 1124.69,899.214 1846.57,648.635Z" style="fill:none;stroke:#030404;stroke-width:10.2px;"/><path d="M81.247,1178.79c342.263,569.535 1163.53,788.155 1834.37,488.349l-0.013,-0.023c-342.264,-569.535 -1163.53,-788.155 -1834.36,-488.326Z" style="fill:none;stroke:#030404;stroke-width:10.2px;"/><path d="M1902.4,1589.6c-381.257,-527.888 -1190.7,-677.095 -1807.93,-333.299l-0.023,0.012l0.012,0.024c381.27,527.851 1190.69,677.07 1807.94,333.263Z" style="fill:none;stroke:#030404;stroke-width:10.2px;"/><path d="M114.29,1330.77c414.879,484.284 1206.58,566.831 1768.29,184.357c-414.902,-484.273 -1206.6,-566.82 -1768.29,-184.357Z" style="fill:none;stroke:#030404;stroke-width:10.2px;"/><path d="M1856.71,1444.2c-443.256,-439.262 -1211.75,-458.291 -1716.54,-42.502c443.23,439.274 1211.75,458.291 1716.54,42.502Z" style="fill:none;stroke:#030404;stroke-width:10.2px;"/><path d="M171.559,1468.73c466.34,393.265 1206.75,352.256 1653.76,-91.559c-466.366,-393.252 -1206.75,-352.256 -1653.76,91.559Z" style="fill:none;stroke:#030404;stroke-width:10.2px;"/><path d="M1788.99,1314.34c-484.335,-346.672 -1192.19,-249.402 -1581.1,217.22c484.338,346.671 1192.21,249.426 1581.1,-217.22Z" style="fill:none;stroke:#030404;stroke-width:10.2px;"/><path d="M248.565,1589.92c497.34,299.913 1168.8,150.414 1499.74,-333.909c-497.329,-299.948 -1168.79,-150.449 -1499.75,333.886l0.012,0.023Z" style="fill:none;stroke:#030404;stroke-width:10.2px;"/><path d="M1703.85,1202.36c-505.551,-253.427 -1137.2,-55.893 -1410.83,441.174c505.551,253.427 1137.19,55.928 1410.83,-441.174Z" style="fill:none;stroke:#030404;stroke-width:10.2px;"/><path d="M340.678,1692.31c509.162,207.538 1098.13,-33.666 1315.52,-538.727c-509.173,-207.501 -1098.16,33.68 -1315.52,538.727Z" style="fill:none;stroke:#030404;stroke-width:10.2px;"/><path d="M1605.93,1109.83c-508.465,-162.574 -1052.42,117.81 -1214.96,626.264c508.429,162.562 1052.38,-117.823 1214.96,-626.264Z" style="fill:none;stroke:#030404;stroke-width:10.2px;"/></svg>