<?xml version="1.0" encoding="UTF-8" standalone="no"?><!DOCTYPE svg PUBLIC "-//W3C//DTD SVG 1.1//EN" "http://www.w3.org/Graphics/SVG/1.1/DTD/svg11.dtd"><svg width="100%" height="100%" viewBox="0 0 3706 2791" version="1.1" xmlns="http://www.w3.org/2000/svg" xmlns:xlink="http://www.w3.org/1999/xlink" xml:space="preserve" xmlns:serif="http://www.serif.com/" style="fill-rule:evenodd;clip-rule:evenodd;stroke-miterlimit:2;"><path d="M719.598,1937.04l579.997,-440.875c309.587,-235.25 570.003,-350.333 518.75,-229.208l-293.331,419.667c-102.917,126.666 -324.166,312.624 -533.333,448.291l-504.586,327.75c-270.833,175.625 -413.749,198.667 -304.582,49.042l168.75,-231.25c64.169,-88.125 204.167,-218.833 368.335,-343.417Z" style="fill:none;stroke:#030404;stroke-width:4.9px;"/><path d="M730.845,1916l595.003,-442.5c317.497,-236.084 581.665,-347.626 526.249,-222.042l-307.499,430.708c-107.503,129.459 -335.001,316.959 -548.751,451.958l-515.832,326.251c-276.668,174.833 -420.418,193.833 -305.835,40.416l176.249,-237.083c67.501,-90.292 212.085,-222.708 380.416,-347.708Z" style="fill:none;stroke:#030404;stroke-width:4.9px;"/><path d="M742.93,1894.25l610.002,-443.625c325.415,-236.709 593.75,-344.292 533.748,-214.25l-322.502,441.791c-112.081,132.25 -345.833,321.125 -563.749,455.334l-527.083,324.25c-282.499,173.749 -427.084,188.458 -307.499,31.291l185.001,-242.917c70.414,-92.541 219.58,-226.5 392.082,-351.874Z" style="fill:none;stroke:#030404;stroke-width:4.9px;"/><path d="M755.43,1871.84l625.415,-444.292c333.752,-237.041 605.42,-340.374 540.837,-205.75l-337.92,452.917c-116.247,135 -356.665,325.125 -579.166,458.25l-538.334,321.792c-287.915,172.375 -432.915,182.541 -307.915,21.583l192.916,-248.75c73.751,-94.75 227.499,-230.208 404.167,-355.75Z" style="fill:none;stroke:#030404;stroke-width:4.9px;"/><path d="M769.179,1848.75l640.418,-444.458c341.666,-237.083 616.666,-335.833 547.501,-196.583l-353.336,464.042c-120.834,137.791 -367.916,328.958 -595,460.833l-548.75,318.708c-294.165,170.792 -439.584,176.167 -308.749,11.417l201.669,-254.584c76.664,-96.999 235.416,-233.833 416.247,-359.375Z" style="fill:none;stroke:#030404;stroke-width:4.9px;"/><path d="M783.347,1824.92l655.416,-443.999c350,-236.876 628.333,-330.668 554.582,-186.709l-369.58,475.208c-125.834,140.459 -379.167,332.5 -610.836,462.917l-559.582,315.125c-300,168.833 -445,169.167 -308.749,0.667l210.417,-260.417c79.997,-99.208 243.331,-237.333 428.332,-362.792Z" style="fill:none;stroke:#030404;stroke-width:4.9px;"/><path d="M798.765,1800.38l670.414,-443c357.918,-236.333 639.168,-324.751 560.417,-176.042l-385.832,486.333c-130.416,143.167 -390.417,335.875 -626.249,464.584l-570.418,310.916c-305.835,166.625 -450.835,161.584 -308.749,-10.666l219.165,-266.209c83.749,-101.417 251.669,-240.708 441.252,-365.916Z" style="fill:none;stroke:#030404;stroke-width:4.9px;"/><path d="M814.597,1775.17l685.832,-441.416c365.833,-235.501 650,-318.167 566.252,-164.625l-402.503,497.458c-135.416,145.792 -402.083,339 -642.496,465.708l-580.835,306.125c-311.251,164.042 -456.25,153.459 -308.334,-22.542l228.752,-271.999c87.081,-103.625 259.582,-244 453.332,-368.709Z" style="fill:none;stroke:#030404;stroke-width:4.9px;"/><path d="M831.679,1749.17l700.419,-439.167c373.747,-234.292 660.832,-310.792 571.664,-152.334l-419.58,508.5c-140.418,148.417 -413.335,341.876 -658.334,466.334l-591.251,300.708c-316.667,161.125 -461.251,144.666 -307.085,-35.042l237.92,-277.75c90.832,-105.833 267.915,-247.167 466.247,-371.249Z" style="fill:none;stroke:#030404;stroke-width:4.9px;"/><path d="M849.18,1722.46l715.832,-436.25c381.67,-232.75 671.253,-302.708 576.669,-139.25l-437.5,519.5c-145.419,151 -425,344.458 -673.751,466.375l-601.668,294.667c-322.083,157.875 -465.833,135.208 -305.831,-48.167l247.497,-283.458c94.584,-107.959 276.669,-250.125 478.752,-373.417Z" style="fill:none;stroke:#030404;stroke-width:4.9px;"/><path d="M867.93,1695.04l730.416,-432.666c389.583,-230.834 681.669,-293.75 581.25,-125.334l-455.001,530.5c-150.83,153.459 -437.081,346.751 -689.998,465.875l-611.251,287.834c-327.499,154.25 -470.414,125.166 -304.167,-61.875l257.499,-289.084c97.917,-110.166 285.002,-253 491.252,-375.25Z" style="fill:none;stroke:#030404;stroke-width:4.9px;"/><path d="M887.514,1666.88l744.999,-428.334c397.502,-228.5 691.667,-284 585.417,-110.5l-473.332,541.334c-155.835,155.958 -448.751,348.75 -705.835,464.749l-620.833,280.376c-332.918,150.25 -474.585,114.375 -301.668,-76.292l267.085,-294.667c101.665,-112.25 293.75,-255.666 504.167,-376.666Z" style="fill:none;stroke:#030404;stroke-width:4.9px;"/><path d="M908.347,1637.96l759.583,-423.208c405.001,-225.834 700.834,-273.417 588.334,-94.75l-491.667,552.083c-161.25,158.292 -460.835,350.375 -721.667,463l-630.416,272.125c-337.5,145.792 -477.917,102.875 -298.751,-91.334l277.499,-300.166c105.42,-114.375 302.502,-258.167 517.085,-377.75Z" style="fill:none;stroke:#030404;stroke-width:4.9px;"/><path d="M930.015,1608.29l773.747,-417.333c412.919,-222.625 710.001,-261.833 591.666,-78.042l-510.831,562.75c-167.082,160.583 -472.917,351.626 -737.5,460.542l-639.584,263.125c-342.501,140.959 -481.25,90.667 -295.418,-107.083l287.919,-305.583c109.583,-116.417 311.251,-260.459 530.001,-378.376Z" style="fill:none;stroke:#030404;stroke-width:4.9px;"/><path d="M952.512,1577.88l787.92,-410.583c420.414,-219.083 718.75,-249.374 593.75,-60.375l-530.001,573.209c-172.083,162.833 -484.583,352.583 -752.918,457.416l-648.331,253.292c-347.087,135.75 -484.168,77.708 -291.252,-123.458l297.917,-310.917c113.749,-118.458 320.418,-262.583 542.915,-378.584Z" style="fill:none;stroke:#030404;stroke-width:4.9px;"/><path d="M976.263,1546.71l801.669,-403c427.913,-215 727.083,-235.917 595.833,-41.667l-550,583.542c-177.918,164.958 -496.668,353.125 -768.335,453.542l-656.665,242.666c-352.083,130 -486.67,63.917 -287.085,-140.625l308.748,-316.125c117.501,-120.416 329.167,-264.458 555.835,-378.333Z" style="fill:none;stroke:#030404;stroke-width:4.9px;"/><path d="M1000.85,1514.79l815.414,-394.501c435.001,-210.458 734.586,-221.5 596.667,-21.958l-569.584,593.708c-183.748,167.001 -508.748,353.209 -783.748,448.875l-664.999,231.125c-356.25,123.875 -488.753,49.417 -282.084,-158.416l319.999,-321.208c121.668,-122.417 337.915,-266.167 568.335,-377.625Z" style="fill:none;stroke:#030404;stroke-width:4.9px;"/><path d="M1026.68,1482.13l828.752,-385.041c442.082,-205.417 742.082,-206 597.082,-1.167l-589.998,603.625c-189.168,168.958 -520.833,352.875 -799.166,443.417l-672.501,218.75c-360.417,117.208 -489.999,34 -276.25,-177.042l330.831,-326.208c125.834,-124.25 347.087,-267.542 581.25,-376.334Z" style="fill:none;stroke:#030404;stroke-width:4.9px;"/><path d="M1053.76,1448.75l841.666,-374.666c448.751,-199.875 748.751,-189.459 596.668,20.708l-610.832,613.333c-194.999,170.792 -532.499,352.125 -813.749,437.126l-680.001,205.416c-364.168,110.042 -490.832,17.751 -269.584,-196.416l341.667,-330.959c130,-126.125 356.25,-268.708 594.165,-374.542Z" style="fill:none;stroke:#030404;stroke-width:4.9px;"/><path d="M1082.1,1414.59l853.748,-363.209c455.835,-193.75 755.001,-171.833 595.833,43.709l-631.665,622.792c-200.834,172.458 -544.999,350.833 -828.752,429.916l-686.665,191.125c-367.916,102.417 -491.252,0.667 -262.915,-216.5l353.332,-335.667c134.583,-127.874 365.418,-269.541 607.084,-372.166Z" style="fill:none;stroke:#030404;stroke-width:4.9px;"/><path d="M1111.27,1379.67l866.247,-350.708c462.085,-187.083 760.417,-153 593.75,67.875l-653.332,631.958c-206.665,174.083 -556.25,349.083 -842.916,421.834l-692.916,175.833c-371.252,94.25 -490.836,-17.375 -255.001,-237.417l364.584,-340.125c138.749,-129.583 374.581,-270.166 619.584,-369.25Z" style="fill:none;stroke:#030404;stroke-width:4.9px;"/><path d="M1141.68,1344.04l877.917,-337.125c468.331,-179.833 765.414,-133.041 591.248,93.209l-675,640.791c-212.5,175.542 -568.331,346.792 -857.499,412.834l-698.332,159.541c-374.17,85.458 -490.003,-36.333 -246.668,-259.166l376.25,-344.417c143.335,-131.208 384.167,-270.416 632.084,-365.667Z" style="fill:none;stroke:#030404;stroke-width:4.9px;"/><path d="M1173.35,1307.67l889.168,-322.375c474.581,-172 769.584,-111.833 587.5,119.792l-696.667,649.292c-218.75,176.833 -580.416,343.916 -871.249,402.749l-703.751,142.209c-377.084,76.167 -488.75,-56.208 -237.5,-281.708l388.334,-348.5c147.497,-132.75 392.916,-270.376 644.165,-361.459Z" style="fill:none;stroke:#030404;stroke-width:4.9px;"/><path d="M1206.26,1270.59l900,-306.5c480.001,-163.5 772.917,-89.375 582.914,147.584l-719.165,657.499c-224.585,178 -591.666,340.5 -884.582,391.667l-708.334,123.75c-379.166,66.291 -486.25,-77.083 -227.502,-305.084l400,-352.333c152.502,-134.249 402.502,-270 656.669,-356.583Z" style="fill:none;stroke:#030404;stroke-width:4.9px;"/><path d="M1240.85,1232.75l910.001,-289.333c485.417,-154.376 775.415,-65.625 577.499,176.666l-741.667,665.25c-230.835,179 -603.333,336.458 -897.917,379.541l-712.085,104.125c-381.665,55.834 -483.333,-98.916 -216.666,-329.249l412.085,-355.959c156.665,-135.625 411.25,-269.25 668.75,-351.041Z" style="fill:none;stroke:#030404;stroke-width:4.9px;"/><path d="M1276.26,1194.25l919.584,-270.959c490.418,-144.583 777.499,-40.583 570.834,207.084l-764.169,672.541c-237.08,179.875 -614.998,331.792 -910.831,366.334l-715.003,83.375c-383.333,44.708 -479.581,-121.834 -205.416,-354.334l424.585,-359.333c161.251,-136.917 420.415,-268.125 680.416,-344.708Z" style="fill:none;stroke:#030404;stroke-width:4.9px;"/><path d="M1312.93,1155.04l928.752,-251.291c495.414,-134.042 778.332,-14.084 563.334,238.833l-787.5,679.458c-242.92,180.5 -625.834,326.459 -922.917,351.917l-717.501,61.458c-384.582,32.917 -475,-145.833 -192.5,-380.333l436.25,-362.417c166.248,-138.083 430.001,-266.625 692.082,-337.625Z" style="fill:none;stroke:#030404;stroke-width:4.9px;"/><path d="M1351.26,1115.13l936.666,-230.209c499.585,-122.833 778.333,13.751 555.001,271.917l-810.832,685.875c-249.17,180.917 -637.085,320.458 -934.586,336.291l-719.58,38.292c-385.417,20.5 -469.585,-170.833 -179.167,-407.166l449.166,-365.25c170.833,-139.167 438.749,-264.667 703.332,-329.75Z" style="fill:none;stroke:#030404;stroke-width:4.9px;"/><path d="M1390.85,1074.59l944.165,-207.792c503.751,-110.874 777.502,43.042 545.003,306.458l-834.168,691.709c-255.415,181.208 -647.501,313.708 -945.833,319.458l-719.999,13.833c-386.251,7.417 -463.753,-196.958 -165.003,-434.916l461.251,-367.709c175.834,-140.125 447.917,-262.333 714.584,-321.041Z" style="fill:none;stroke:#030404;stroke-width:4.9px;"/><path d="M1431.68,1033.34l950.834,-183.875c507.499,-98.125 775.415,73.833 534.168,342.417l-857.919,697.041c-261.25,181.208 -658.333,306.208 -956.25,301.292l-720.414,-11.875c-385.836,-6.375 -456.25,-224.25 -149.585,-463.625l474.166,-369.875c180.416,-140.958 456.669,-259.542 725,-311.5Z" style="fill:none;stroke:#030404;stroke-width:4.9px;"/><path d="M1474.18,991.501l956.665,-158.541c510.417,-84.583 772.502,106.167 521.667,379.833l-881.665,701.75c-267.5,181.042 -668.335,297.959 -966.251,281.834l-719.165,-38.959c-385.836,-20.875 -448.336,-252.666 -133.334,-493.166l486.251,-371.751c185.417,-141.625 465.414,-256.208 735.832,-301Z" style="fill:none;stroke:#030404;stroke-width:4.9px;"/><path d="M1517.93,949.002l961.666,-131.625c513.334,-70.251 768.335,140.083 508.333,418.75l-905.831,705.874c-273.751,180.626 -678.336,288.876 -975.419,260.959l-717.501,-67.417c-384.582,-36.125 -439.164,-282.25 -116.247,-523.708l499.166,-373.167c190.417,-142.208 474.165,-252.458 745.833,-289.666Z" style="fill:none;stroke:#030404;stroke-width:4.9px;"/><path d="M1563.35,905.919l965.833,-103.167c514.998,-55.001 762.5,175.583 492.916,459.208l-929.582,709.292c-280.001,179.958 -688.334,278.999 -984.168,238.75l-714.583,-97.292c-383.333,-52.167 -429.167,-313.083 -97.917,-555.25l512.081,-374.208c195.004,-142.584 482.504,-248.167 755.42,-277.333Z" style="fill:none;stroke:#030404;stroke-width:4.9px;"/><path d="M1610.01,862.293l968.75,-73.083c516.666,-38.959 756.25,212.75 476.668,501.208l-953.752,712c-285.831,179.042 -697.497,268.208 -991.666,215.001l-710.832,-128.626c-381.25,-68.916 -417.916,-345.083 -78.333,-587.666l524.581,-374.875c200,-142.834 490.837,-243.334 764.584,-263.959Z" style="fill:none;stroke:#030404;stroke-width:4.9px;"/><path d="M1658.35,818.085l970.834,-41.291c517.501,-22.001 748.331,251.582 458.748,544.75l-977.917,714.041c-292.082,177.791 -706.665,256.5 -998.747,189.708l-706.25,-161.417c-378.337,-86.5 -405.42,-378.374 -57.503,-621.124l537.5,-375.084c204.585,-142.917 499.17,-237.958 773.335,-249.583Z" style="fill:none;stroke:#030404;stroke-width:4.9px;"/><path d="M1708.35,773.335l971.249,-7.75c518.335,-4.125 739.168,292.167 439.583,589.916l-1002.08,715.209c-298.332,176.333 -714.999,243.917 -1004.58,162.916l-700.419,-195.749c-375,-104.875 -391.667,-412.959 -35.832,-655.5l550,-374.875c210.002,-142.834 507.499,-231.959 782.084,-234.167Z" style="fill:none;stroke:#030404;stroke-width:4.9px;"/><path d="M1759.6,728.127l970.833,27.5c518.335,14.708 728.752,334.5 419.165,636.75l-1026.66,715.583c-304.167,174.542 -723.336,230.333 -1010,134.459l-692.916,-231.626c-370.833,-124.124 -377.083,-448.833 -12.915,-690.916l562.915,-374.167c214.584,-142.542 514.999,-225.375 789.584,-217.583Z" style="fill:none;stroke:#030404;stroke-width:4.9px;"/><path d="M1812.51,682.418l969.165,64.625c517.501,34.5 716.667,378.667 396.668,685.25l-1051.25,715.084c-310.001,172.416 -730.415,215.708 -1013.75,104.333l-684.167,-269.125c-366.667,-144.209 -361.666,-486.041 10.831,-727.333l575.835,-372.917c219.165,-142.083 522.501,-218.167 796.667,-199.917Z" style="fill:none;stroke:#030404;stroke-width:4.9px;"/><path d="M1866.68,636.293l966.666,103.625c515.833,55.25 702.918,424.625 372.498,735.417l-1075.41,713.625c-315.833,170.042 -737.915,200.125 -1017.08,72.542l-674.17,-308.25c-361.666,-165.209 -344.58,-524.584 36.251,-764.75l588.334,-371.167c224.166,-141.417 530.001,-210.333 802.918,-181.042Z" style="fill:none;stroke:#030404;stroke-width:4.9px;"/><path d="M1922.51,589.751l962.919,144.501c513.334,77.125 687.081,472.541 346.248,787.374l-1099.58,711.209c-321.667,167.25 -744.584,183.417 -1018.75,38.958l-663.334,-349.083c-355.416,-187.042 -325.834,-564.5 62.915,-803.167l600.834,-368.833c229.167,-140.5 537.085,-201.791 808.749,-160.959Z" style="fill:none;stroke:#030404;stroke-width:4.9px;"/><path d="M1980.43,542.876l956.665,187.376c510.417,99.958 670.833,522.375 318.75,841l-1123.75,707.791c-327.502,164.167 -750.419,165.625 -1019.58,3.583l-650.834,-391.583c-348.332,-209.833 -305.835,-605.833 91.252,-842.625l613.33,-365.916c233.752,-139.417 543.75,-192.584 814.168,-139.626Z" style="fill:none;stroke:#030404;stroke-width:4.9px;"/><path d="M2039.6,495.627l949.581,232.291c506.669,123.958 652.084,574.167 289.169,896.459l-1147.92,703.291c-332.499,160.667 -755.416,146.667 -1018.75,-33.708l-636.666,-435.834c-341.252,-233.541 -284.582,-648.583 120.414,-883.083l625.834,-362.416c238.335,-138.084 550,-182.625 818.335,-117Z" style="fill:none;stroke:#030404;stroke-width:4.9px;"/><path d="M2100.43,448.168l940.833,279.25c502.083,148.958 631.669,627.959 257.918,953.667l-1171.67,697.708c-338.334,156.75 -760.416,126.542 -1017.5,-72.916l-620.834,-481.875c-332.914,-258.25 -261.666,-692.75 151.254,-924.584l637.915,-358.25c242.915,-136.5 555.835,-171.916 822.082,-93Z" style="fill:none;stroke:#030404;stroke-width:4.9px;"/><path d="M2162.51,400.418l930.831,328.334c496.667,175.166 609.167,683.791 224.17,1012.71l-1195,690.958c-343.75,152.5 -764.165,105.167 -1014.17,-114.041l-603.751,-529.792c-323.751,-283.875 -237.5,-738.334 183.333,-967.041l650,-353.459c247.917,-134.667 561.666,-160.417 824.585,-67.667Z" style="fill:none;stroke:#030404;stroke-width:4.9px;"/><path d="M2226.68,352.502l918.75,379.583c490.003,202.541 585.002,741.75 188.754,1073.62l-1218.75,682.958c-348.336,147.792 -767.086,82.584 -1009.17,-157.25l-585.002,-579.5c-313.749,-310.5 -211.665,-785.458 216.667,-1010.58l662.085,-347.958c252.498,-132.584 567.082,-148.125 826.664,-40.875Z" style="fill:none;stroke:#030404;stroke-width:4.9px;"/><path d="M2292.51,304.418l904.582,433.125c482.918,231.042 558.748,801.792 151.249,1136.33l-1241.67,673.708c-353.332,142.667 -769.584,58.667 -1003.33,-202.5l-564.584,-631.125c-302.083,-338.167 -183.748,-834.083 252.084,-1055.17l674.165,-341.708c256.67,-130.208 571.668,-135 827.503,-12.667Z" style="fill:none;stroke:#030404;stroke-width:4.9px;"/><path d="M2359.6,256.293l889.168,488.833c474.581,260.834 530.416,864 111.666,1201l-1264.58,663.126c-358.333,137.083 -771.252,33.458 -995.833,-249.917l-542.086,-684.666c-290.413,-366.834 -154.581,-884.167 288.754,-1100.75l685.416,-334.751c261.247,-127.5 576.249,-121 827.499,17.125Z" style="fill:none;stroke:#030404;stroke-width:4.9px;"/><path d="M2428.76,208.127l871.667,546.916c465.003,291.792 499.585,928.417 69.169,1267.54l-1286.67,651.125c-362.915,131.083 -772.082,6.833 -986.246,-299.459l-517.92,-740.166c-277.499,-396.625 -123.747,-935.875 327.083,-1147.42l696.667,-326.958c265.418,-124.541 580.001,-106.125 826.25,48.417Z" style="fill:none;stroke:#030404;stroke-width:4.9px;"/><path d="M2499.18,159.96l852.083,607.417c454.582,324.041 467.082,995 25,1335.96l-1308.75,637.708c-367.086,124.542 -771.668,-21.166 -975,-351.249l-492.086,-797.709c-263.334,-427.417 -90.832,-989.042 367.086,-1195.04l707.499,-318.333c269.584,-121.292 583.333,-90.375 824.166,81.25Z" style="fill:none;stroke:#030404;stroke-width:4.9px;"/></svg>