<?xml version="1.0" encoding="UTF-8" standalone="no"?><!DOCTYPE svg PUBLIC "-//W3C//DTD SVG 1.1//EN" "http://www.w3.org/Graphics/SVG/1.1/DTD/svg11.dtd"><svg width="100%" height="100%" viewBox="0 0 3646 3646" version="1.1" xmlns="http://www.w3.org/2000/svg" xmlns:xlink="http://www.w3.org/1999/xlink" xml:space="preserve" xmlns:serif="http://www.serif.com/" style="fill-rule:evenodd;clip-rule:evenodd;stroke-miterlimit:2;"><path d="M1921.35,1767.02l-39.169,-15.033c-56.665,-21.854 -119.165,8.645 -138.749,68.126l-19.584,58.711l39.168,15.033c57.084,21.855 119.165,-8.644 138.75,-68.125l19.584,-58.712Z" style="fill:none;stroke:#030404;stroke-width:4.9px;"/><path d="M1720.93,1893.57l44.165,12.703c63.749,18.471 127.917,-20.87 143.75,-87.87l15.417,-66.138l-43.75,-12.703c-63.749,-18.472 -128.332,20.87 -143.75,87.87l-15.832,66.138Z" style="fill:none;stroke:#030404;stroke-width:4.9px;"/><path d="M1925.93,1735.85l-48.746,-9.713c-70.419,-14.118 -136.67,35.121 -147.087,109.971l-10.832,73.887l48.751,9.713c70.833,14.117 136.666,-35.122 147.498,-109.971l10.416,-73.887Z" style="fill:none;stroke:#030404;stroke-width:4.9px;"/><path d="M1719.26,1928.13l53.333,5.971c77.917,8.679 144.999,-51.542 149.166,-134.505l4.585,-81.895l-53.751,-5.971c-77.918,-8.68 -144.584,51.542 -149.166,134.505l-4.167,81.895Z" style="fill:none;stroke:#030404;stroke-width:4.9px;"/><path d="M1925.1,1697.81l-58.752,-1.4c-85.417,-2.035 -152.083,70.286 -148.751,161.537l2.918,90.074l58.752,1.4c84.998,2.034 151.664,-70.286 148.747,-161.538l-2.914,-90.073Z" style="fill:none;stroke:#030404;stroke-width:4.9px;"/><path d="M1723.85,1969.67l63.753,-4.083c92.497,-5.935 157.499,-91.488 145.834,-191.093l-11.67,-98.32l-63.749,4.084c-92.501,5.932 -157.915,91.485 -145.834,191.091l11.666,98.321Z" style="fill:none;stroke:#030404;stroke-width:4.9px;"/><path d="M1915.93,1652.8l-68.75,10.563c-99.585,15.355 -162.085,115.271 -139.584,223.167l22.083,106.509l68.335,-10.564c99.581,-15.354 162.081,-115.267 139.998,-223.167l-22.082,-106.508Z" style="fill:none;stroke:#030404;stroke-width:4.9px;"/><path d="M1738.01,2018.07l72.917,-18.125c106.665,-26.341 164.998,-141.716 130.416,-257.691l-33.749,-114.487l-73.335,18.125c-106.25,26.341 -164.584,141.715 -130.416,257.694l34.167,114.484Z" style="fill:none;stroke:#030404;stroke-width:4.9px;"/><path d="M1895.93,1601.16l-77.503,26.852c-112.5,39.024 -164.998,170.912 -116.666,294.578l47.501,122.076l77.499,-26.847c112.919,-39.028 165.002,-170.917 116.666,-294.582l-47.497,-122.077Z" style="fill:none;stroke:#030404;stroke-width:4.9px;"/><path d="M1764.26,2072.69l81.669,-36.812c118.331,-53.516 162.081,-202.899 98.331,-333.657l-63.334,-129.075l-81.25,36.813c-118.331,53.515 -162.5,202.899 -98.332,333.656l62.916,129.075Z" style="fill:none;stroke:#030404;stroke-width:4.9px;"/><path d="M1862.18,1543.9l-84.582,48.096c-122.917,69.916 -156.665,237.667 -75,374.687l80.416,135.253l85.001,-48.095c122.917,-69.916 156.25,-237.667 74.581,-374.687l-80.416,-135.254Z" style="fill:none;stroke:#030404;stroke-width:4.9px;"/><path d="M1806.35,2132.15l87.081,-60.759c126.668,-88.32 147.083,-275.179 45.834,-417.352l-100.416,-140.35l-87.084,60.758c-126.25,88.324 -146.668,275.179 -45.415,417.355l100,140.348Z" style="fill:none;stroke:#030404;stroke-width:4.9px;"/><path d="M1810.93,1482.83l-88.334,74.86c-128.748,108.812 -133.333,315.32 -9.998,461.253l121.664,144.059l88.753,-74.853c128.748,-108.814 132.914,-315.326 9.582,-461.259l-121.667,-144.06Z" style="fill:none;stroke:#030404;stroke-width:4.9px;"/><path d="M1867.6,2194.1l88.753,-90.426c129.167,-131.449 114.165,-357.945 -32.918,-505.9l-145.418,-146.045l-88.749,90.426c-129.167,131.449 -114.584,357.944 32.918,505.9l145.414,146.045Z" style="fill:none;stroke:#030404;stroke-width:4.9px;"/><path d="M1738.85,1420.86l-87.5,107.498c-127.083,156.262 -89.583,402.799 83.749,550.657l171.252,145.959l87.5,-107.497c127.499,-156.262 89.999,-402.799 -83.333,-550.657l-171.668,-145.96Z" style="fill:none;stroke:#030404;stroke-width:4.9px;"/><path d="M1951.35,2255.05l84.583,-126.066c123.332,-183.258 59.167,-449.562 -142.501,-594.808l-199.581,-143.375l-84.586,126.062c-122.917,183.258 -59.164,449.562 142.92,594.807l199.165,143.38Z" style="fill:none;stroke:#030404;stroke-width:4.9px;"/><path d="M1642.6,1362.19l-79.997,146.114c-115.836,212.399 -21.252,497.807 210.832,637.478l229.582,137.872l79.585,-146.114c115.833,-212.398 21.668,-497.807 -210.835,-637.477l-229.167,-137.873Z" style="fill:none;stroke:#030404;stroke-width:4.9px;"/><path d="M2061.35,2310.03l72.502,-167.589c105.416,-243.617 -23.751,-547.017 -288.75,-677.663l-261.25,-128.961l-72.502,167.586c-105.123,243.618 23.751,547.018 288.753,677.663l261.247,128.964Z" style="fill:none;stroke:#030404;stroke-width:4.9px;"/><path d="M1518.02,1312.55l-62.5,190.404c-90.999,276.784 77.499,596.537 376.664,714.192l295.419,116.142l62.5,-190.405c90.832,-276.782 -77.918,-596.537 -376.669,-714.191l-295.414,-116.142Z" style="fill:none;stroke:#030404;stroke-width:4.9px;"/><path d="M2200.93,2352.44l50,-214.437c72.087,-311.717 -140.832,-645.599 -475.83,-745.746l-330.835,-98.862l-49.458,214.436c-72.335,311.717 140.291,645.602 475.708,745.746l330.415,98.863Z" style="fill:none;stroke:#030404;stroke-width:4.9px;"/><path d="M1363.06,1279.48l-33.541,239.512c-48.791,348.167 213.082,693.278 585.584,770.821l367.5,76.544l33.334,-239.512c49.166,-348.167 -213.334,-693.274 -585.417,-770.821l-367.46,-76.544Z" style="fill:none;stroke:#030404;stroke-width:4.9px;"/><path d="M2372.18,2373.79l13.749,-265.415c19.584,-385.818 -297.083,-738.497 -707.499,-787.73l-404.96,-48.6l-13.623,265.417c-19.833,385.815 296.5,738.495 706.917,787.728l405.416,48.6Z" style="fill:none;stroke:#030404;stroke-width:4.9px;"/><path d="M1175.81,1272.49l10.332,291.862c15.083,424.264 391.044,780.017 840.209,794.6l443.331,14.393l-10.416,-291.862c-14.999,-424.264 -391.248,-780.018 -840.414,-794.601l-443.042,-14.392Z" style="fill:none;stroke:#030404;stroke-width:4.9px;"/><path d="M2575.51,2363.51l-38.749,-318.514c-56.669,-463.009 -497.917,-816.417 -985.417,-789.366l-481.29,26.709l38.871,318.512c56.502,463.009 497.42,816.42 985.335,789.366l481.25,-26.707Z" style="fill:none;stroke:#030404;stroke-width:4.9px;"/><path d="M956.471,1303.23l72.294,344.963c105.042,501.451 615.914,846.084 1141.75,769.755l518.75,-75.346l-72.498,-344.962c-105.001,-501.451 -616.252,-846.084 -1141.67,-769.755l-518.628,75.345Z" style="fill:none;stroke:#030404;stroke-width:4.9px;"/><path d="M2810.1,2308.85l-110.832,-370.718c-161.251,-538.887 -747.501,-867.199 -1309.17,-733.307l-554.582,132.17l110.913,370.717c161.251,538.888 747.42,867.2 1309.09,733.309l554.582,-132.171Z" style="fill:none;stroke:#030404;stroke-width:4.9px;"/><path d="M707.68,1385.53l155.253,395.209c225.663,574.483 891.333,877.755 1487.17,677.366l587.915,-197.803l-155.416,-395.204c-225.419,-574.488 -891.251,-877.759 -1486.88,-677.37l-588.041,197.802Z" style="fill:none;stroke:#030404;stroke-width:4.9px;"/><path d="M3071.76,2194.92l-205.416,-417.771c-298.751,-607.292 -1048.75,-875.513 -1674.46,-599.097l-617.997,272.864l205.542,417.77c298.747,607.291 1048.16,875.512 1674.41,599.096l617.916,-272.862Z" style="fill:none;stroke:#030404;stroke-width:4.9px;"/><path d="M435.223,1535.31l262.126,437.655c381.042,636.2 1218.16,858.024 1869.83,495.461l643.335,-357.896l-262.085,-437.652c-381.25,-636.2 -1218.34,-858.027 -1869.92,-495.463l-643.29,357.895Z" style="fill:none;stroke:#030404;stroke-width:4.9px;"/><path d="M3352.6,2004.86l-325.415,-454.004c-472.917,-659.963 -1400.42,-822.613 -2071.46,-363.295l-662.708,453.412l325.334,454.003c472.872,659.963 1400.08,822.618 2071.75,363.296l662.5,-453.412Z" style="fill:none;stroke:#030404;stroke-width:4.9px;"/><path d="M149.098,1770.27l395.248,465.853c574.544,677.179 1594.08,766.4 2277.42,199.28l674.585,-559.829l-395,-465.851c-574.584,-677.183 -1594.58,-766.404 -2277.62,-199.283l-674.626,559.83Z" style="fill:none;stroke:#030404;stroke-width:4.9px;"/><path d="M3640.1,1720.25l-472.083,-472.121c-686.251,-686.296 -1798.79,-686.296 -2485.08,-0l-677.458,677.468l472.124,472.121c686.291,686.295 1798.75,686.295 2485,-0l677.499,-677.468Z" style="fill:none;stroke:#030404;stroke-width:4.9px;"/><path d="M1877.6,1927.8l13.749,-40.916c19.584,-59.479 -10.417,-125.409 -67.501,-147.264l-56.25,-21.569l-13.33,40.912c-20.003,59.478 10.417,125.408 67.082,147.263l56.25,21.574Z" style="fill:none;stroke:#030404;stroke-width:4.9px;"/><path d="M1753.01,1713.38l-10.417,46.091c-15.832,67.001 22.917,136.284 86.67,154.755l62.915,18.233l10.832,-46.092c15.836,-67 -23.332,-136.283 -87.081,-154.754l-62.919,-18.233Z" style="fill:none;stroke:#030404;stroke-width:4.9px;"/><path d="M1908.43,1936.18l7.08,-51.491c10.835,-74.856 -37.915,-146.977 -108.749,-161.092l-69.584,-13.939l-7.499,51.492c-10.417,74.855 37.915,146.976 108.748,161.092l70.004,13.938Z" style="fill:none;stroke:#030404;stroke-width:4.9px;"/><path d="M1719.26,1707.13l-2.917,57.076c-4.582,82.961 55.001,157.249 132.918,165.928l77.083,8.567l2.918,-57.072c4.582,-82.965 -55.001,-157.253 -132.918,-165.932l-77.084,-8.567Z" style="fill:none;stroke:#030404;stroke-width:4.9px;"/><path d="M1945.51,1939.76l-2.084,-62.771c-2.917,-91.249 -74.166,-166.874 -159.582,-168.908l-84.168,-2.008l2.084,62.774c2.917,91.246 74.584,166.872 160.001,168.905l83.749,2.008Z" style="fill:none;stroke:#030404;stroke-width:4.9px;"/><path d="M1678.43,1706.79l8.333,68.522c11.666,99.603 96.249,175.537 188.749,169.598l91.252,-5.857l-7.918,-68.52c-12.085,-99.601 -96.668,-175.535 -189.169,-169.601l-91.247,5.858Z" style="fill:none;stroke:#030404;stroke-width:4.9px;"/><path d="M1990.1,1936.23l-15.418,-74.225c-22.497,-107.896 -121.248,-182.916 -220.833,-167.562l-98.332,15.16l15.418,74.224c22.082,107.896 121.248,182.917 220.833,167.562l98.332,-15.159Z" style="fill:none;stroke:#030404;stroke-width:4.9px;"/><path d="M1630.93,1714.88l23.751,79.785c34.167,115.975 148.332,188.637 255.001,162.291l105.001,-26.003l-23.751,-79.784c-34.583,-115.976 -148.751,-188.639 -255.001,-162.292l-105.001,26.003Z" style="fill:none;stroke:#030404;stroke-width:4.9px;"/><path d="M2040.51,1922.82l-32.915,-85.075c-48.335,-123.668 -178.751,-192.279 -291.666,-153.255l-111.251,38.525l33.333,85.075c48.332,123.667 178.752,192.279 291.252,153.255l111.247,-38.525Z" style="fill:none;stroke:#030404;stroke-width:4.9px;"/><path d="M1577.18,1734.42l44.165,89.95c63.749,130.762 211.666,193.38 330,139.862l116.667,-52.824l-43.75,-89.951c-64.168,-130.758 -211.666,-193.378 -330.001,-139.862l-117.081,52.825Z" style="fill:none;stroke:#030404;stroke-width:4.9px;"/><path d="M2096.76,1896.29l-56.25,-94.259c-81.665,-137.016 -247.498,-191.416 -370.415,-121.499l-121.667,69.013l56.25,94.259c81.665,137.019 247.502,191.416 370.833,121.502l121.249,-69.016Z" style="fill:none;stroke:#030404;stroke-width:4.9px;"/><path d="M1518.85,1768.85l69.999,97.809c101.25,142.175 286.251,185.834 412.5,97.512l125,-87.183l-69.584,-97.809c-101.249,-142.175 -286.25,-185.833 -412.915,-97.511l-125,87.182Z" style="fill:none;stroke:#030404;stroke-width:4.9px;"/><path d="M2156.76,1853.02l-85.001,-100.393c-122.917,-145.933 -327.499,-176.025 -455.831,-67.212l-127.084,107.412l84.583,100.388c123.332,145.934 327.498,176.03 456.25,67.216l127.083,-107.411Z" style="fill:none;stroke:#030404;stroke-width:4.9px;"/><path d="M1458.01,1821.97l101.249,101.78c147.501,147.95 371.667,161.328 500.419,29.883l127.498,-129.759l-101.249,-101.778c-147.083,-147.951 -371.248,-161.33 -500.415,-29.885l-127.502,129.759Z" style="fill:none;stroke:#030404;stroke-width:4.9px;"/><path d="M2217.6,1789.05l-119.58,-101.717c-173.336,-147.858 -417.086,-141.046 -544.584,15.212l-125.419,154.25l119.169,101.717c173.332,147.858 417.501,141.05 544.584,-15.212l125.83,-154.25Z" style="fill:none;stroke:#030404;stroke-width:4.9px;"/><path d="M1398.56,1897.82l138.623,99.92c202.084,145.246 465.418,114.433 588.334,-68.821l121.668,-180.896l-139.168,-99.921c-201.665,-145.245 -464.999,-114.432 -588.335,68.822l-121.122,180.896Z" style="fill:none;stroke:#030404;stroke-width:4.9px;"/><path d="M2275.1,1700.28l-160.001,-96.083c-232.084,-139.671 -514.584,-80.707 -630.416,131.687l-114.168,209.668l159.582,96.084c232.503,139.671 514.583,80.713 630.42,-131.688l114.583,-209.668Z" style="fill:none;stroke:#030404;stroke-width:4.9px;"/><path d="M1344.68,2000.5l182.085,89.874c264.583,130.642 565.002,39.063 669.999,-204.553l104.166,-240.484l-182.08,-89.871c-265.002,-130.645 -565.002,-39.066 -670.418,204.549l-103.752,240.485Z" style="fill:none;stroke:#030404;stroke-width:4.9px;"/><path d="M2323.85,1582.72l-205.831,-80.942c-299.166,-117.654 -615.417,11.346 -706.669,288.126l-89.457,273.224l205.709,80.939c299.166,117.653 615.417,-11.347 706.25,-288.127l89.998,-273.22Z" style="fill:none;stroke:#030404;stroke-width:4.9px;"/><path d="M1303.14,2133.86l230.294,68.896c334.997,100.145 665.413,-71.362 737.5,-383.075l71.663,-307.708l-230.416,-68.893c-335.416,-100.148 -665.417,71.359 -737.626,383.075l-71.415,307.705Z" style="fill:none;stroke:#030404;stroke-width:4.9px;"/><path d="M2355.93,1432.74l-255.831,-53.341c-372.501,-77.547 -713.586,141.838 -762.378,490.005l-48.165,343.691l255.958,53.34c372.082,77.548 713.749,-141.837 762.5,-490.002l47.916,-343.693Z" style="fill:none;stroke:#030404;stroke-width:4.9px;"/><path d="M1282.35,2301.13l282.337,33.87c410.416,49.229 759.163,-223.624 779.166,-609.446l19.58,-380.853l-282.499,-33.871c-410.416,-49.229 -759.167,223.625 -779,609.447l-19.584,380.853Z" style="fill:none;stroke:#030404;stroke-width:4.9px;"/><path d="M2362.6,1247.63l-308.752,-10.03c-449.166,-14.583 -800.916,317.53 -785.832,741.797l14.872,418.803l308.879,10.03c449.166,14.584 800.83,-317.529 785.832,-741.797l-14.999,-418.803Z" style="fill:none;stroke:#030404;stroke-width:4.9px;"/><path d="M1292.64,2504.42l335.372,-18.614c487.5,-27.053 837.085,-424.325 780.835,-887.333l-55.835,-457.05l-335.417,18.614c-487.915,27.053 -837.207,424.324 -780.705,887.333l55.75,457.05Z" style="fill:none;stroke:#030404;stroke-width:4.9px;"/><path d="M2332.18,1026.08l-361.246,52.507c-525.835,76.33 -866.378,544.712 -761.337,1046.16l103.711,495.002l361.373,-52.509c525.419,-76.33 866.252,-544.712 761.251,-1046.16l-103.752,-494.999Z" style="fill:none;stroke:#030404;stroke-width:4.9px;"/><path d="M1346.6,2744.04l386.418,-92.108c561.665,-133.89 886.25,-679.286 725,-1218.17l-159.168,-531.954l-386.247,92.108c-561.71,133.891 -886.458,679.287 -725.211,1218.17l159.208,531.953Z" style="fill:none;stroke:#030404;stroke-width:4.9px;"/><path d="M2251.35,768.929l-410.001,137.854c-595.374,200.384 -895.374,828.542 -669.706,1403.03l222.749,567.096l409.457,-137.85c595.833,-200.387 895.833,-828.546 669.999,-1403.03l-222.498,-567.096Z" style="fill:none;stroke:#030404;stroke-width:4.9px;"/><path d="M1458.43,3017.78l430.831,-190.159c625.834,-276.416 891.251,-992.804 592.5,-1600.1l-294.999,-599.475l-430.416,190.159c-626.001,276.417 -891.292,992.804 -592.501,1600.1l294.585,599.475Z" style="fill:none;stroke:#030404;stroke-width:4.9px;"/><path d="M2103.85,480l-448.332,249.417c-651.501,362.559 -870.919,1172.21 -489.876,1808.41l376.127,628.011l448.332,-249.416c651.668,-362.557 870.833,-1172.21 489.998,-1808.41l-376.249,-628.011Z" style="fill:none;stroke:#030404;stroke-width:4.9px;"/><path d="M1645.51,3319.96l461.665,-315.979c671.668,-459.32 832.504,-1366.67 359.587,-2026.64l-466.667,-651.471l-462.085,315.979c-671.081,459.323 -831.958,1366.67 -359.082,2026.64l466.582,651.471Z" style="fill:none;stroke:#030404;stroke-width:4.9px;"/><path d="M1872.6,167.104l-469.792,390.143c-683.415,567.124 -771.667,1575.83 -197.082,2253.01l566.874,668.471l470.418,-390.141c683.333,-567.122 771.668,-1575.83 197.083,-2253.02l-567.501,-668.471Z" style="fill:none;stroke:#030404;stroke-width:4.9px;"/><path d="M1925.51,3640.36l472.083,-472.117c686.251,-686.296 686.251,-1799 -0,-2485.3l-677.499,-677.468l-471.96,472.122c-686.332,686.295 -686.332,1799 0,2485.3l677.376,677.462Z" style="fill:none;stroke:#030404;stroke-width:4.9px;"/></svg>