<?xml version="1.0" encoding="UTF-8" standalone="no"?><!DOCTYPE svg PUBLIC "-//W3C//DTD SVG 1.1//EN" "http://www.w3.org/Graphics/SVG/1.1/DTD/svg11.dtd"><svg width="100%" height="100%" viewBox="0 0 1816 1507" version="1.1" xmlns="http://www.w3.org/2000/svg" xmlns:xlink="http://www.w3.org/1999/xlink" xml:space="preserve" xmlns:serif="http://www.serif.com/" style="fill-rule:evenodd;clip-rule:evenodd;stroke-linecap:round;stroke-linejoin:round;stroke-miterlimit:2;"><g><g><path d="M1431.79,1073.54l-13.458,-3.5m393.874,-128.125l-185.958,64.375l-194.458,67.25l-24.583,8.541m-211.125,53.125l32.166,8.792m-674.249,-72.25l-24.583,7.75l-54.584,-15.542m1174.08,-161.666l-61.208,-14.834m-1282.16,83.625l-76.835,22.75m1578.84,135.25l2.333,-93.333l2.328,-93.833m-189.708,255.333l1.88,-95.208l1.87,-95.75m-197.249,262.25l1.375,-97.25l1.416,-97.75m-1423.42,181.208l-2.541,-96.833l-2.501,-97.375m301.001,89.666l225.084,-70.708l157.041,44.75l93.126,-30.208m-627.961,10.666l2.126,98.667l2.167,98.125m1070.63,41.583l0.832,-99.25l0.875,-99.833m-923.916,6.208l1.75,100l1.75,99.459m156.541,49.625l-1.333,-100.834l-1.333,-101.375m552.749,224.125l0.25,-101.416l0.25,-102m-389.292,232.625l-0.875,-102.209l-0.875,-102.791m167.292,49.833l0.417,104.25l0.376,103.667m834.249,-496.875l-120.583,-30.375m-264.834,163.75l-12.583,4.333l-213.292,73.792l-166.707,-47.459l-161.792,-46.083l-224.75,72.833l-157.375,-46.875l-152.71,-45.5l-148.291,-44.166m1806.55,-24.792l-185.5,66.292l-194.004,69.25l-203.001,72.541l-212.667,75.959l-223.083,79.708l-166.834,-51.292l-161.749,-49.75l-156.958,-48.25l-152.334,-46.833l-147.916,-45.458m1801.71,-28.834l-185.047,68.167l-193.499,71.292l-202.458,74.541l-212.085,78.125l-222.457,81.959l-166.335,-52.75l-161.291,-51.125l-156.541,-49.625l-151.917,-48.167l-147.542,-46.75m1531.79,-316.042l108.75,-36.416l163.292,39.625m-803.75,174.75l-160.207,53.666l-224.335,75.084l-162.207,-48.334m553.249,20.709l-223.75,77.458l-167.292,-49.833m-292.165,-195.625l-180.127,54.916m-148.291,-44.166l225.375,-66.709l77.626,22.084m226.249,-327.834l-12.54,8.959m-213.168,350.291l-1.332,-76.25l-0.334,-21.25l-1.709,-98.041l111.334,-79.584l105.209,-75.166l15.374,1.333m1121.34,-62.917l-38.171,-3.125m-107.996,150.542l-39.089,-3.417m146.298,-104.708l38.958,-39.292m67.292,-67.875l-2,88.792l-67.172,70.083l-38.875,40.584m-791.707,31.958l-10.96,8.833l-71.415,-6.375m840.332,91.875l1.709,-92.875l0.458,-24.375m-73.829,6.792l-1.589,95.792l-1.536,95.291m-79.17,85.375l1.375,-97.875l1.373,-98.375m291.006,-206.708l-1.964,88.333l-67.041,72.292m-939.542,270.542l-0.625,-98.709l-0.584,-99.291m208.584,19.291l0.043,99.875l-0,99.334m211.415,-179.667l-0.582,100.5l-0.584,99.917m213.125,21.083l1.208,-100.583l1.209,-101.125m-837.874,119.125l-1.168,-98.084l-1.166,-98.666l85.083,-64.542m1132.46,-238.417l-122.089,-9.666m-1187.12,214.291l144.458,12.917m1164.76,-217.542l-67.292,67.875l-1.88,91l-1.833,90.542l-65.334,70.458l-5.458,5.875l-74.787,80.625l-79.17,85.375l-21.084,22.75l-62.917,67.792l-213.125,-21.083l-210.249,-20.75l-207.418,-20.5l-204.665,-20.25l-201.96,-19.959m1301.17,-271.958l-24.082,25.083l-74.96,78.209l-79.331,82.791l-84.168,87.834l-213.749,-20.417l-210.833,-20.167l-208.043,-19.875l-205.208,-19.625l-202.458,-19.375m1210.04,-171.666l-4.661,4.708l-79.547,80.208l-208.624,-18.666l-205.916,-18.417l-203.168,-18.167l-101.042,81.709l-205.79,-19l-203.001,-18.75m752.291,-59.792l-39.29,34l-95.626,82.833l-208.584,-19.291m573.792,-104.5l-63.666,59.375l-90.084,83.958l-211.458,-19.542m510.166,-45.75l-84.332,85.084l-214.376,-19.792m384.792,-488.667l-2.917,-4.083m-996.542,21.917l2.501,8.458l1.041,92.458l20.917,73.375l22.166,77.834l0.958,97.125m385.21,-289.209l3.749,8.042l34.542,74.5l-0.167,97.208l-0.167,96.709m-485.915,-215.334l-18.666,-67.833l-17.668,-64.25l-0.167,-11.292m70.333,30.25l-16.166,0.417m-19.167,-15.625l0.46,38.75l19.748,69.333l1.042,91.959m20.876,75.875l-10.543,-38.209l-10.333,-37.666l-19.749,-71.709l-1.041,-89.583l-12.5,-43.917m264.831,100.959l22.752,59.916l0.374,97.417l0.417,96.875m-293.499,-289.5l-0.835,-68.25m82.249,364.167l-22.123,-80.5l-1.001,-94.459l-1.041,-94.958l-20.917,-70.875m20.917,70.875l22.208,75.167l0.999,97.625m915.084,-268.959l37.75,-1l49.713,69.292m-685.587,18.625l72.957,-2l205.125,-5.542l204.209,-5.541l203.296,-5.542l35.12,48.917l17.584,24.541l-1.833,96.584l-1.876,96.083m-285.333,-312.792l33.042,52.209l46.709,73.791l-1.292,96.792l-1.292,96.25m-265.041,-291.75l16.707,30.458l40.668,74.125l-0.751,97l-0.708,96.5m-506,-254.958l-151.458,4.125m24.165,269.917l212.085,-6.417l211.082,-6.333l210.126,-6.334l209.125,-6.333l208.166,-6.25m-1051.54,-65.458l212.626,-6.167l211.666,-6.167l210.667,-6.125l209.709,-6.083l208.75,-6.083m-1054.42,-67l213.251,-5.959l212.207,-5.958l211.251,-5.917l210.25,-5.875l209.291,-5.875m-1549.21,-487.333l2.042,86.083l2,85.709m115.625,-124.292l1.791,88l1.749,87.542m121.835,-125.75l1.542,89.916l1.499,89.5m1275.42,52.209l1.703,-91.375l1.709,-91.875m-1147.92,187.375l-1.208,-91.542l-1.208,-92.042m984,18.5l-1.292,92.75l-1.249,92.292m-167.167,-162.25l-0.875,93.625l-0.875,93.167m-171.541,-163.584l-0.417,94.584l-0.417,94.041m-500.291,-10.416l-0.875,-93.709l-0.877,-94.166m326.001,223.875l-0.043,-95l-0.04,-95.459m-180.709,24.209l0.541,96.458l0.501,95.917m865.958,-308.625l-166.333,22.291l-169.708,22.792l-173.291,23.208l-176.959,23.75l-180.709,24.209l-145.209,-57.625l-138.124,-54.834l-131.541,-52.166l-125.375,-49.792l-119.667,-47.5m1525.21,237.542l-165.916,23.166l-169.291,23.667l-172.833,24.167l-176.502,24.625l-180.208,25.208l-144.873,-59.917l-137.793,-56.958l-131.207,-54.292l-125.126,-51.708l-119.416,-49.417m1521.46,242.834l-79.63,11.583l-85.832,12.5l-168.917,24.542l-172.375,25.041l-176.042,25.584l-179.75,26.125l-144.499,-62.125l-120.793,-51.959l-16.667,-7.166l-130.916,-56.334l-124.876,-53.666l-119.165,-51.25m643.707,-245.875l154.625,-17.709l132.001,43.292m-604.501,10.792l160.376,-18.375l127.417,44.916l159.833,-18.875l156.875,-18.458l138,45.208l144.458,47.334m-1216.83,-44.042l166.499,-19.042l122.376,46.625l128.125,48.792l134.375,51.167l141.042,53.708l148.208,56.458m-595.583,-140.416l171.958,-20.917l168.624,-20.5l165.377,-20.083l162.207,-19.709l142.124,48.25l161.501,-20.291l151.333,49.625m-295.791,-96.959l-159.167,19.375l-135.708,-46.125l-129.751,-44.041l-157.499,18m-370.583,103.583l169.208,-19.917l165.959,-19.583l130.79,47.875l137.085,50.167l143.79,52.625l151.085,55.291m-641.001,-64.5l174.792,-21.916l171.334,-21.5l167.956,-21.042l146.418,51.583l153.792,54.167m-1024.38,-209.792l163.375,-18.666l124.96,45.708l162.833,-19.167l133.334,46.959l139.664,49.208l164.667,-20.667l148.958,50.542l156.293,53.083m166.333,-22.291l-158.75,-52l-163.876,21.208l-167.207,21.708l-170.584,22.084l-174.082,22.583l-177.71,23.042" style="fill:none;stroke:#030404;stroke-width:6.67px;"/></g></g></svg>