<?xml version="1.0" encoding="UTF-8" standalone="no"?>
<!DOCTYPE svg PUBLIC "-//W3C//DTD SVG 1.1//EN" "http://www.w3.org/Graphics/SVG/1.1/DTD/svg11.dtd">
<svg width="100%" height="100%" viewBox="0 0 768 768" version="1.1" xmlns="http://www.w3.org/2000/svg" xmlns:xlink="http://www.w3.org/1999/xlink" xml:space="preserve" xmlns:serif="http://www.serif.com/" style="fill-rule:evenodd;clip-rule:evenodd;stroke-linejoin:round;stroke-miterlimit:2;">
    <g transform="matrix(0.1,0,0,-0.1,0,768)">
        <path d="M4645,7331C4643,7327 4676,7288 4718,7244C4818,7140 4970,6953 4970,6935C4970,6931 4982,6911 4998,6891C5028,6851 5045,6824 5060,6795C5066,6784 5079,6762 5089,6745C5100,6729 5145,6641 5190,6550C5282,6365 5303,6319 5343,6215C5351,6193 5365,6156 5374,6133C5413,6029 5437,5960 5456,5895C5464,5868 5477,5823 5486,5795C5494,5768 5505,5726 5510,5702C5515,5679 5524,5651 5530,5641C5535,5630 5540,5611 5540,5599C5540,5588 5547,5557 5555,5531C5563,5506 5576,5449 5585,5405C5594,5361 5605,5314 5609,5300L5615,5275L6360,5272C6769,5271 7108,5274 7112,5278C7119,5285 7067,5405 7030,5470C7025,5478 7009,5508 6995,5535C6981,5563 6964,5594 6957,5605C6951,5615 6934,5642 6920,5665C6907,5687 6890,5714 6883,5725C6876,5736 6868,5752 6864,5760C6839,5808 6701,5996 6578,6148C6502,6241 6263,6483 6180,6550C6144,6579 6113,6606 6110,6610C6102,6621 5861,6800 5854,6800C5851,6800 5831,6813 5811,6828C5791,6844 5768,6860 5760,6863C5752,6867 5732,6879 5715,6890C5699,6901 5676,6914 5665,6920C5654,6926 5632,6939 5615,6950C5599,6960 5549,6988 5505,7010C5461,7033 5418,7055 5410,7060C5396,7068 5288,7117 5225,7145C5193,7158 5132,7182 5065,7207C5043,7215 5010,7228 4992,7236C4974,7244 4951,7250 4940,7250C4929,7250 4906,7256 4888,7264C4870,7271 4828,7285 4795,7294C4762,7303 4716,7317 4692,7324C4669,7332 4648,7334 4645,7331Z" style="fill:rgb(239,245,255);fill-rule:nonzero;"/>
        <path d="M2970,7320C2962,7315 2943,7310 2928,7310C2913,7310 2883,7304 2863,7296C2842,7289 2798,7275 2765,7265C2668,7237 2522,7182 2410,7133C2380,7119 2335,7099 2310,7088C2285,7077 2257,7064 2247,7059C2237,7053 2194,7031 2152,7009C2110,6987 2062,6960 2045,6949C2029,6939 2006,6926 1995,6920C1984,6914 1962,6901 1945,6890C1929,6880 1905,6865 1893,6858C1844,6829 1566,6629 1550,6611C1547,6608 1514,6578 1475,6546C1388,6473 1159,6242 1105,6175C1084,6148 1061,6121 1055,6115C1039,6101 835,5828 827,5810C823,5802 811,5782 800,5765C789,5749 777,5728 773,5720C769,5712 755,5689 742,5670C729,5651 714,5626 709,5615C703,5604 684,5568 665,5535C647,5502 622,5455 610,5430C598,5405 577,5363 564,5337C551,5310 543,5284 546,5279C549,5274 861,5270 1295,5270C1878,5270 2040,5273 2047,5282C2051,5289 2057,5315 2061,5340C2064,5365 2073,5408 2080,5435C2086,5463 2099,5512 2107,5545C2144,5698 2203,5904 2226,5958C2234,5976 2240,5997 2240,6005C2240,6013 2246,6034 2254,6052C2267,6083 2276,6107 2316,6213C2332,6255 2347,6291 2374,6353C2402,6417 2552,6716 2570,6745C2581,6762 2594,6784 2600,6795C2615,6824 2632,6851 2663,6891C2678,6911 2690,6931 2690,6935C2690,6952 2861,7164 2934,7236C2962,7265 2994,7297 3004,7309C3023,7330 3023,7330 3004,7330C2994,7330 2978,7325 2970,7320Z" style="fill:rgb(239,245,255);fill-rule:nonzero;"/>
        <path d="M3715,7175C3693,7167 3668,7160 3660,7160C3640,7160 3528,7103 3456,7056C3389,7013 3202,6828 3155,6759C3139,6735 3115,6704 3103,6690C3090,6676 3080,6662 3080,6658C3080,6655 3063,6625 3042,6593C2958,6466 2830,6211 2767,6045C2759,6023 2745,5987 2736,5965C2728,5943 2706,5880 2689,5825C2672,5770 2652,5710 2644,5692C2636,5674 2630,5652 2630,5642C2630,5633 2624,5605 2616,5580C2608,5555 2595,5508 2586,5475C2578,5442 2564,5387 2555,5354C2545,5320 2541,5287 2544,5281C2553,5267 5106,5265 5115,5279C5118,5285 5113,5317 5104,5352C5096,5387 5082,5442 5073,5475C5049,5571 5007,5718 4985,5780C4978,5799 4965,5840 4956,5870C4937,5930 4928,5956 4880,6075C4842,6169 4801,6259 4754,6352C4706,6448 4692,6473 4587,6645C4511,6770 4305,6991 4203,7057C4132,7103 4020,7160 4000,7160C3992,7160 3967,7167 3945,7175C3923,7183 3871,7189 3830,7189C3789,7189 3737,7183 3715,7175Z" style="fill:rgb(239,245,255);fill-rule:nonzero;"/>
        <path d="M357,4783C353,4780 350,4765 350,4750C350,4736 344,4704 336,4679C279,4497 230,4103 230,3830C230,3559 277,3178 336,2980C343,2955 350,2922 352,2905L355,2875L1158,2872C1863,2870 1961,2872 1966,2885C1969,2893 1967,2930 1960,2967C1953,3005 1944,3094 1940,3165C1935,3237 1926,3360 1920,3440C1912,3531 1910,3711 1913,3920C1918,4258 1928,4423 1956,4647C1965,4714 1969,4774 1965,4780C1958,4791 368,4795 357,4783Z" style="fill:rgb(239,245,255);fill-rule:nonzero;"/>
        <path d="M2456,4778C2447,4745 2428,4582 2419,4470C2415,4401 2406,4293 2400,4230C2395,4167 2390,3987 2390,3830C2390,3673 2395,3493 2400,3430C2406,3367 2415,3259 2419,3190C2428,3078 2447,2915 2456,2882C2459,2872 2739,2870 3832,2872L5205,2875L5211,2925C5258,3324 5265,3447 5265,3825C5265,4159 5253,4399 5228,4595C5222,4645 5214,4708 5211,4735L5205,4785L3832,4788C2739,4790 2459,4788 2456,4778Z" style="fill:rgb(239,245,255);fill-rule:nonzero;"/>
        <path d="M5694,4775C5690,4767 5693,4732 5699,4698C5706,4663 5715,4572 5720,4495C5726,4418 5734,4299 5740,4230C5752,4073 5752,3581 5740,3435C5735,3375 5728,3276 5725,3215C5721,3155 5712,3059 5703,3002C5695,2945 5691,2893 5694,2885C5699,2872 5805,2870 6502,2872L7305,2875L7308,2900C7309,2914 7317,2950 7324,2980C7364,3136 7370,3162 7370,3192C7370,3210 7377,3250 7385,3280C7393,3310 7400,3358 7400,3385C7400,3413 7407,3480 7415,3535C7443,3726 7429,4136 7388,4355C7382,4388 7373,4440 7370,4470C7361,4532 7332,4669 7324,4682C7321,4687 7315,4712 7311,4738L7305,4785L6502,4788C5795,4790 5699,4788 5694,4775Z" style="fill:rgb(239,245,255);fill-rule:nonzero;"/>
        <path d="M546,2381C543,2376 551,2350 564,2323C577,2297 598,2255 610,2230C622,2205 647,2158 665,2125C684,2092 703,2056 709,2045C714,2034 729,2009 742,1990C755,1971 769,1948 773,1940C786,1913 856,1804 871,1786C876,1780 913,1732 953,1679C1113,1466 1289,1275 1460,1129C1507,1090 1547,1054 1550,1050C1567,1027 1888,799 1945,770C1956,764 1979,751 1995,740C2042,710 2063,698 2152,652C2198,628 2242,605 2250,601C2258,596 2281,585 2300,577C2319,568 2364,548 2400,532C2436,516 2484,495 2508,486C2531,477 2567,463 2588,455C2608,447 2650,433 2680,424C2710,415 2751,402 2770,395C2857,365 3009,325 3015,332C3017,334 2985,372 2942,416C2900,460 2841,525 2812,561C2751,636 2627,813 2600,865C2594,876 2574,912 2555,945C2536,978 2490,1066 2454,1140C2365,1321 2353,1349 2284,1533C2275,1556 2262,1590 2254,1608C2246,1626 2240,1647 2240,1655C2240,1663 2234,1684 2226,1702C2192,1784 2111,2081 2075,2255C2066,2299 2055,2346 2051,2360L2045,2385L1298,2388C856,2389 549,2386 546,2381Z" style="fill:rgb(239,245,255);fill-rule:nonzero;"/>
        <path d="M2544,2379C2541,2373 2544,2342 2553,2311C2562,2280 2576,2226 2585,2190C2608,2098 2630,2020 2642,1985C2647,1969 2655,1942 2660,1925C2665,1909 2673,1882 2679,1865C2685,1849 2698,1808 2709,1775C2742,1676 2829,1460 2860,1401C2865,1392 2885,1351 2905,1310C2948,1223 2950,1220 3015,1112C3043,1066 3070,1021 3075,1011C3085,993 3097,978 3172,880C3233,800 3396,642 3460,601C3529,556 3640,500 3660,500C3668,500 3693,493 3715,485C3766,467 3894,467 3945,485C3967,493 3992,500 4000,500C4020,500 4132,557 4202,602C4303,667 4512,892 4587,1015C4709,1216 4730,1254 4798,1400C4868,1549 4916,1667 4951,1780C4963,1816 4978,1861 4985,1880C5005,1937 5048,2083 5073,2185C5082,2218 5096,2273 5104,2308C5113,2343 5118,2375 5115,2381C5106,2395 2553,2393 2544,2379Z" style="fill:rgb(239,245,255);fill-rule:nonzero;"/>
        <path d="M5610,2371C5605,2360 5600,2342 5600,2330C5600,2297 5549,2088 5495,1900C5457,1768 5446,1732 5434,1702C5426,1684 5420,1663 5420,1655C5420,1647 5414,1626 5406,1608C5398,1590 5385,1556 5376,1533C5344,1447 5327,1404 5314,1373C5306,1355 5294,1325 5286,1308C5263,1252 5110,947 5089,915C5079,899 5066,876 5060,865C5045,836 5028,809 4998,769C4982,749 4970,729 4970,725C4970,707 4820,523 4718,417C4675,372 4643,334 4645,332C4651,325 4803,365 4890,395C4909,402 4950,415 4980,424C5010,433 5053,448 5075,457C5097,465 5133,479 5155,487C5216,510 5379,583 5410,600C5418,605 5461,627 5505,650C5549,673 5599,700 5615,711C5632,721 5654,734 5665,740C5676,746 5699,759 5715,770C5732,781 5752,793 5760,797C5768,800 5791,816 5811,832C5831,847 5851,860 5854,860C5860,860 6099,1037 6110,1049C6113,1053 6144,1079 6180,1109C6269,1183 6503,1421 6576,1510C6697,1660 6860,1880 6860,1895C6860,1897 6873,1918 6889,1942C6905,1966 6928,2004 6941,2028C6954,2052 6979,2097 6997,2128C7014,2159 7038,2205 7050,2230C7062,2255 7083,2297 7096,2323C7109,2350 7117,2376 7114,2381C7111,2386 6799,2390 6365,2390C5639,2390 5620,2390 5610,2371Z" style="fill:rgb(239,245,255);fill-rule:nonzero;"/>
    </g>
</svg>
