<svg width="310" height="92" viewBox="0 0 310 92" fill="none" xmlns="http://www.w3.org/2000/svg">
<path fill-rule="evenodd" clip-rule="evenodd" d="M183.589 26.7568V65.2435C183.589 69.9965 179.62 73.8558 174.732 73.8558H129.807C124.919 73.8558 120.95 69.9965 120.95 65.2435V26.7568C120.95 22.0037 124.919 18.1445 129.807 18.1445H174.732C179.62 18.1445 183.589 22.0037 183.589 26.7568Z" fill="#FFFCFA"/>
<path d="M156.636 27.0568C156.625 27.0785 156.804 27.2902 157.032 27.5289C157.574 28.0933 158.399 29.108 158.399 29.2057C158.399 29.2274 158.464 29.3359 158.55 29.4444C158.713 29.6615 158.805 29.808 158.887 29.9654C158.919 30.025 158.99 30.1444 159.044 30.2367C159.104 30.3235 159.348 30.801 159.592 31.2948C160.091 32.2987 160.205 32.5483 160.422 33.1126C160.465 33.232 160.541 33.4328 160.59 33.5576C160.801 34.1219 160.931 34.4963 161.034 34.8491C161.078 34.9956 161.148 35.2398 161.197 35.3917C161.241 35.5382 161.3 35.7661 161.327 35.8963C161.354 36.0211 161.403 36.1731 161.436 36.2273C161.463 36.287 161.49 36.3901 161.49 36.4552C161.49 36.5149 161.528 36.6832 161.571 36.8242C161.615 36.9599 161.685 37.2692 161.734 37.508C161.783 37.7467 161.843 38.0018 161.864 38.0777L161.897 38.2134L165.938 38.2297C168.156 38.2351 169.995 38.2188 170.016 38.1971C170.054 38.1591 169.772 37.508 169.571 37.1552C169.544 37.1118 169.458 36.949 169.382 36.8025C169.306 36.6506 169.214 36.4824 169.176 36.4227C169.143 36.3684 169.051 36.2219 168.975 36.0971C168.904 35.9777 168.812 35.8312 168.774 35.7715C168.736 35.7118 168.693 35.625 168.671 35.5816C168.536 35.3211 167.787 34.301 167.12 33.4762C166.708 32.9715 165.411 31.6584 164.961 31.2948C164.766 31.1374 164.598 30.9909 164.582 30.9692C164.538 30.9095 163.231 29.9382 163.193 29.9382C163.177 29.9382 163.068 29.8677 162.96 29.7863C162.851 29.6995 162.727 29.6126 162.683 29.5964C162.64 29.5747 162.531 29.5095 162.439 29.4498C162.352 29.3902 162.228 29.3196 162.168 29.2871C162.108 29.2545 161.989 29.184 161.897 29.1243C161.81 29.07 161.539 28.9181 161.3 28.7987C161.062 28.6739 160.828 28.5545 160.785 28.5274C160.709 28.484 160.123 28.2181 159.782 28.0661C159.608 27.9956 159.277 27.8654 158.914 27.7297C158.794 27.6863 158.616 27.6157 158.518 27.5723C158.42 27.5289 158.296 27.4964 158.236 27.4964C158.176 27.4964 158.051 27.4638 157.954 27.4204C157.856 27.3824 157.628 27.3064 157.449 27.2576C157.27 27.2088 157.021 27.1328 156.891 27.0948C156.766 27.0514 156.652 27.0406 156.636 27.0568Z" fill="#0949B3"/>
<path d="M147.551 27.1165C147.508 27.1436 147.405 27.1708 147.323 27.1708C147.242 27.1708 147.079 27.2033 146.971 27.2467C146.857 27.2847 146.618 27.3607 146.439 27.4149C145.913 27.5669 145.121 27.8653 144.514 28.1312C144.351 28.2072 144.107 28.3157 143.971 28.3754C143.836 28.4351 143.684 28.5056 143.63 28.5328C143.575 28.5653 143.342 28.6847 143.114 28.8041C142.887 28.9235 142.626 29.07 142.534 29.1297C142.447 29.1839 142.323 29.2545 142.263 29.287C142.203 29.3196 142.084 29.3901 141.992 29.4498C141.905 29.5041 141.775 29.5855 141.71 29.6235C141.444 29.7808 139.936 30.8661 139.849 30.9638C139.833 30.98 139.654 31.1428 139.443 31.3165C138.971 31.7126 137.729 32.9661 137.436 33.3296C137.322 33.4762 137.197 33.6227 137.165 33.6552C137.078 33.7312 135.971 35.2126 135.928 35.3103C135.906 35.3537 135.841 35.4622 135.782 35.5544C135.722 35.6413 135.657 35.7552 135.635 35.7986C135.613 35.842 135.537 35.9668 135.467 36.0699C135.396 36.173 135.315 36.3087 135.288 36.3684C135.255 36.4281 135.152 36.6234 135.049 36.8025C134.952 36.9816 134.816 37.2366 134.751 37.3723C134.686 37.5079 134.572 37.7358 134.502 37.8769C134.431 38.0234 134.388 38.1645 134.404 38.1916C134.42 38.2188 136.112 38.2405 138.466 38.2405C141.628 38.2405 142.507 38.2242 142.545 38.1754C142.567 38.1374 142.599 37.9963 142.621 37.8606C142.637 37.725 142.686 37.4916 142.724 37.3451C142.756 37.1932 142.827 36.9273 142.87 36.7482C143.071 35.918 143.391 34.8002 143.516 34.5072C143.559 34.4095 143.592 34.2955 143.592 34.2521C143.592 34.2087 143.624 34.0948 143.668 33.9971C143.738 33.8289 143.787 33.6986 144.004 33.1234C144.091 32.8955 144.172 32.7002 144.319 32.3638C144.47 32.0165 145.284 30.394 145.382 30.2366C145.441 30.1444 145.512 30.025 145.544 29.9653C145.626 29.808 145.718 29.6614 145.886 29.4444C145.967 29.3359 146.032 29.2273 146.032 29.2056C146.032 29.1134 146.96 27.963 147.356 27.5723C147.508 27.4149 147.681 27.2413 147.735 27.1762C147.839 27.0622 147.839 27.0622 147.735 27.0622C147.681 27.0622 147.594 27.0894 147.551 27.1165Z" fill="#0949B3"/>
<path d="M151.592 27.9035C151.473 27.9469 151.337 27.9849 151.294 27.9849C151.185 27.9849 150.578 28.2942 150.187 28.5492C149.824 28.7825 148.809 29.7864 148.555 30.1608C148.468 30.2911 148.338 30.4593 148.273 30.5353C148.202 30.6112 148.148 30.6872 148.148 30.7089C148.148 30.7252 148.056 30.888 147.942 31.0616C147.486 31.7508 146.792 33.1345 146.45 34.0352C146.407 34.1546 146.331 34.35 146.282 34.4693C146.239 34.5887 146.119 34.9306 146.027 35.229C145.935 35.5275 145.826 35.8531 145.783 35.9507C145.74 36.0484 145.707 36.1678 145.707 36.2221C145.707 36.2709 145.675 36.4228 145.631 36.5585C145.588 36.6941 145.517 36.9492 145.468 37.1283C145.425 37.3073 145.349 37.6058 145.3 37.7848C145.246 37.9693 145.224 38.1484 145.241 38.181C145.289 38.2569 159.136 38.2678 159.185 38.1918C159.201 38.1593 159.174 37.9856 159.125 37.7957C159.082 37.6058 159.006 37.3073 158.957 37.1283C158.827 36.6073 158.599 35.8097 158.48 35.4732C158.442 35.3701 158.372 35.1476 158.323 34.9848C158.22 34.6593 158.171 34.5182 157.91 33.8724C157.704 33.3624 157.482 32.874 157.227 32.3694C156.967 31.8484 156.891 31.7128 156.321 30.7794C155.909 30.1011 154.792 28.9019 154.239 28.5438C153.854 28.2942 153.246 27.9849 153.138 27.9849C153.094 27.9849 152.959 27.9469 152.839 27.9035C152.72 27.8601 152.438 27.8275 152.216 27.8275C151.993 27.8275 151.711 27.8601 151.592 27.9035Z" fill="#0949B3"/>
<path d="M133.379 40.883C133.357 40.8993 133.341 40.9807 133.341 41.0621C133.341 41.138 133.308 41.3117 133.265 41.4473C132.956 42.4349 132.69 44.5729 132.69 46.0543C132.69 47.5248 132.945 49.5923 133.265 50.6667C133.303 50.8023 133.341 50.9814 133.352 51.0737L133.368 51.2365L137.723 51.2527C141.547 51.2636 142.079 51.2527 142.106 51.1822C142.122 51.1388 142.111 50.938 142.073 50.7372C142.035 50.531 141.986 50.0481 141.965 49.6628C141.938 49.2721 141.889 48.6047 141.856 48.1706C141.813 47.6768 141.802 46.7 141.818 45.5659C141.845 43.7318 141.9 42.8365 142.051 41.621C142.1 41.2574 142.122 40.9318 142.1 40.8993C142.062 40.8396 133.439 40.8179 133.379 40.883Z" fill="#0949B3"/>
<path d="M144.763 40.9102C144.715 41.0893 144.611 41.9738 144.563 42.5815C144.541 42.9559 144.492 43.542 144.46 43.8838C144.433 44.2257 144.405 45.2024 144.405 46.0544C144.405 46.9063 144.433 47.8831 144.46 48.2249C144.492 48.5668 144.541 49.1528 144.563 49.5272C144.611 50.135 144.715 51.0195 144.763 51.1985C144.78 51.2528 146.298 51.2637 152.226 51.2528L159.673 51.2365L159.706 50.9652C159.961 48.8001 159.999 48.1327 159.999 46.0815C159.999 44.2691 159.934 42.9668 159.798 41.9032C159.765 41.6319 159.722 41.2901 159.706 41.1435L159.673 40.8722L152.226 40.856C146.298 40.8451 144.78 40.856 144.763 40.9102Z" fill="#0949B3"/>
<path d="M162.325 40.9264C162.304 40.9698 162.32 41.1597 162.353 41.3442C162.391 41.5342 162.439 42.028 162.466 42.4458C162.499 42.8636 162.542 43.5094 162.575 43.8838C162.64 44.7357 162.64 47.4055 162.575 48.1977C162.548 48.5233 162.51 49.0605 162.494 49.3915C162.472 49.7171 162.423 50.238 162.374 50.5473C162.331 50.8566 162.309 51.1388 162.325 51.1822C162.353 51.2527 162.927 51.2636 166.708 51.2527L171.063 51.2365L171.079 51.1008C171.085 51.0248 171.128 50.8295 171.166 50.6667C171.383 49.8202 171.416 49.6791 171.416 49.5163C171.416 49.4186 171.454 49.2016 171.497 49.0388C171.54 48.876 171.578 48.6155 171.578 48.469C171.578 48.3171 171.616 47.9535 171.66 47.6551C171.812 46.6186 171.736 44.3938 171.513 43.2055C171.481 43.0264 171.432 42.7442 171.416 42.5814C171.367 42.245 171.21 41.5016 171.166 41.4311C171.15 41.4039 171.117 41.2683 171.096 41.1272L171.063 40.8722L166.708 40.8559C162.873 40.845 162.353 40.8559 162.325 40.9264Z" fill="#0949B3"/>
<path d="M134.404 53.9171C134.388 53.9442 134.431 54.0853 134.502 54.2318C134.572 54.3729 134.686 54.6008 134.751 54.7365C134.816 54.8721 134.952 55.1272 135.049 55.3062C135.152 55.4853 135.255 55.6807 135.288 55.7403C135.315 55.8 135.396 55.9357 135.467 56.0388C135.537 56.1419 135.613 56.2667 135.635 56.3101C135.706 56.4566 136.085 57.0481 136.167 57.1458C136.194 57.1783 136.394 57.4388 136.611 57.7264C137.479 58.8822 138.434 59.9186 139.361 60.7109C139.616 60.9225 139.833 61.1178 139.849 61.1396C139.942 61.2644 141.683 62.5016 141.992 62.6589C142.051 62.6915 142.176 62.762 142.263 62.8217C142.518 62.9845 142.632 63.0496 143.114 63.2992C143.364 63.4295 143.603 63.5543 143.646 63.576C143.689 63.6031 143.814 63.6628 143.917 63.7062C144.02 63.755 144.264 63.8636 144.46 63.9504C144.655 64.0372 144.915 64.1512 145.045 64.2C145.17 64.2488 145.365 64.3248 145.479 64.3682C145.588 64.4116 145.815 64.4876 145.978 64.5364C146.141 64.5853 146.363 64.6558 146.466 64.6938C146.938 64.8566 147.763 65.0736 147.795 65.0357C147.806 65.0248 147.632 64.8186 147.399 64.5798C147.171 64.3411 146.851 63.9884 146.694 63.793C146.363 63.3861 145.691 62.4256 145.544 62.1434C145.512 62.0837 145.403 61.8884 145.3 61.7093C145.197 61.5302 144.948 61.0527 144.752 60.6512C144.27 59.669 144.205 59.5171 143.83 58.5186C143.782 58.3938 143.711 58.2093 143.668 58.1117C143.624 58.014 143.592 57.9 143.592 57.8566C143.592 57.8132 143.559 57.6993 143.516 57.6016C143.331 57.1566 142.892 55.545 142.697 54.6008C142.648 54.3621 142.588 54.107 142.567 54.0311L142.534 53.8954L138.483 53.8791C136.085 53.8737 134.42 53.89 134.404 53.9171Z" fill="#0949B3"/>
<path d="M145.241 53.9281C145.224 53.9606 145.241 54.1288 145.289 54.2971C145.338 54.4653 145.414 54.7583 145.463 54.9537C145.588 55.4529 145.707 55.8761 145.772 56.066C145.799 56.1529 145.843 56.2994 145.87 56.3916C145.897 56.4785 145.94 56.625 145.973 56.7172C146.005 56.804 146.076 57.0265 146.136 57.2056C146.314 57.7428 146.786 58.9149 146.955 59.235C146.982 59.2839 147.09 59.5063 147.199 59.7288C147.432 60.2009 147.443 60.2172 147.795 60.8032C147.947 61.0529 148.093 61.297 148.121 61.3513C148.175 61.449 148.24 61.5304 148.647 62.0622C148.978 62.4963 149.862 63.3536 150.209 63.5761C150.583 63.8203 151.185 64.1242 151.293 64.1242C151.337 64.1242 151.472 64.1621 151.592 64.2056C151.868 64.3032 152.563 64.3032 152.839 64.2056C152.959 64.1621 153.094 64.1242 153.138 64.1242C153.246 64.1242 153.854 63.8149 154.233 63.5707C154.781 63.218 155.915 61.997 156.321 61.3296C156.983 60.2389 157.097 60.0327 157.466 59.2405C157.845 58.4319 158.106 57.7916 158.296 57.1784C158.361 56.9831 158.442 56.7389 158.48 56.6358C158.588 56.3265 158.822 55.5343 158.957 54.9808C159.006 54.8017 159.082 54.5033 159.125 54.3133C159.174 54.1234 159.201 53.9498 159.185 53.9172C159.136 53.8413 145.289 53.8521 145.241 53.9281Z" fill="#0949B3"/>
<path d="M161.87 53.9714C161.843 54.031 161.816 54.1287 161.816 54.1938C161.816 54.3729 161.539 55.507 161.246 56.5272C161.04 57.2434 160.98 57.4388 160.915 57.6016C160.872 57.6993 160.839 57.8132 160.839 57.8566C160.839 57.9 160.807 58.014 160.763 58.1117C160.72 58.2093 160.649 58.3938 160.601 58.5186C160.427 58.9853 160.335 59.2186 160.264 59.3868C160.221 59.4845 160.156 59.6473 160.112 59.7396C159.988 60.0434 159.158 61.6985 159.044 61.8721C158.99 61.9589 158.919 62.0837 158.887 62.1434C158.805 62.3008 158.713 62.4473 158.55 62.6643C158.464 62.7729 158.399 62.8814 158.399 62.9031C158.399 63.0008 157.585 63.9992 157.032 64.5744C156.799 64.8186 156.625 65.0248 156.636 65.0357C156.668 65.0736 157.493 64.8566 157.965 64.6938C158.068 64.6558 158.29 64.5853 158.453 64.5364C158.616 64.4876 158.849 64.4062 158.968 64.3574C159.087 64.314 159.283 64.238 159.402 64.1946C159.733 64.0698 160.617 63.6736 160.785 63.5814C160.828 63.5543 161.062 63.4349 161.3 63.3101C161.539 63.1853 161.81 63.0388 161.897 62.9791C161.989 62.9248 162.108 62.8543 162.168 62.8217C162.228 62.7892 162.352 62.7186 162.439 62.6589C162.531 62.5992 162.64 62.5341 162.683 62.5124C162.727 62.4961 162.851 62.4093 162.96 62.3225C163.068 62.2411 163.177 62.1706 163.193 62.1706C163.226 62.1706 164.522 61.2101 164.582 61.145C164.598 61.1233 164.766 60.9822 164.961 60.8194C165.444 60.4178 166.713 59.1264 167.109 58.6434C167.765 57.8295 168.649 56.6357 168.649 56.5543C168.649 56.5434 168.72 56.4295 168.807 56.2993C168.894 56.169 169.018 55.9628 169.089 55.8326C169.159 55.7024 169.295 55.4582 169.392 55.29C169.485 55.1217 169.615 54.8721 169.68 54.7365C169.745 54.6008 169.859 54.3729 169.929 54.2318C170 54.0853 170.043 53.9442 170.027 53.9171C170.011 53.89 168.319 53.8683 165.965 53.8683C162.027 53.8683 161.924 53.8683 161.87 53.9714Z" fill="#0949B3"/>
<path d="M72.7103 44.8947H59.0021V61.5852H42.9026C35.0922 61.5852 32.3823 58.6129 32.3823 46.0379C32.3823 33.4629 35.0922 30.4146 42.9026 30.4146H72.551V18.1443H42.8229C25.6077 18.1443 17.0001 22.9457 17.0001 46.0379C17.0001 69.1302 25.6077 73.8556 42.8229 73.8556H72.7103V44.8947Z" fill="#FFFCFA"/>
<path d="M93.0434 18.1443H79.2203V73.8556H114.395V61.8138H93.0434V18.1443Z" fill="#FFFCFA"/>
<path d="M269.705 18.1443H255.881V73.8556H291.056V61.8138H269.705V18.1443Z" fill="#FFFCFA"/>
<path d="M248.148 33.5392C248.148 20.8879 238.905 18.1443 226.635 18.1443H190.142V73.8556H226.635C239.861 73.8556 249.263 71.0356 249.263 57.6984C249.263 50.9919 246.873 47.1811 243.128 45.1234C246.235 42.9133 248.148 39.3315 248.148 33.5392ZM227.272 50.0774C231.336 50.0774 233.885 51.3729 233.885 55.8693C233.885 60.5946 230.937 61.8138 227.033 61.8138H205.361V50.0774H227.272ZM205.361 29.5761H226.794C230.539 29.5761 233.407 30.8719 233.407 35.292C233.407 39.2551 231.176 40.7793 226.953 40.7793H205.361V29.5761Z" fill="#FFFCFA"/>
<path fill-rule="evenodd" clip-rule="evenodd" d="M310 25.755V66.245C310 80.4596 298.131 92 283.513 92H26.4869C11.8683 92 0 80.4596 0 66.245V25.755C0 11.5404 11.8683 0 26.4869 0H283.513C298.131 0 310 11.5404 310 25.755ZM304.334 25.755C304.334 14.5814 295.004 5.50996 283.513 5.50996H26.4869C14.9959 5.50996 5.66661 14.5814 5.66661 25.755V66.245C5.66661 77.4186 14.9959 86.49 26.4869 86.49H283.513C295.004 86.49 304.334 77.4186 304.334 66.245V25.755Z" fill="#FFFCFA"/>
</svg>
