<?xml version="1.0" encoding="UTF-8" standalone="no"?><!DOCTYPE svg PUBLIC "-//W3C//DTD SVG 1.1//EN" "http://www.w3.org/Graphics/SVG/1.1/DTD/svg11.dtd"><svg width="100%" height="100%" viewBox="0 0 139 131" version="1.1" xmlns="http://www.w3.org/2000/svg" xmlns:xlink="http://www.w3.org/1999/xlink" xml:space="preserve" xmlns:serif="http://www.serif.com/" style="fill-rule:evenodd;clip-rule:evenodd;stroke-linejoin:round;stroke-miterlimit:2;"><path d="M49.563,71.525l11.975,-0l-5.984,-19.946l-5.992,19.946Z" style="fill-rule:nonzero;"/><path d="M111.108,-0l-83.333,-0c-15.271,-0 -27.775,11.742 -27.775,26.109l-0,78.333c-0,14.358 12.504,26.116 27.775,26.116l83.333,0c15.275,0 27.779,-11.758 27.779,-26.116l0,-78.333c0,-14.367 -12.504,-26.109 -27.779,-26.109Zm-42.275,97.917l-3.116,-9.792l-20.321,0l-3.121,9.792l-14.5,-0l20.833,-65.275l13.892,-0l20.833,65.275l-14.5,-0Zm42.346,-0l-13.887,-0l-0,-65.275l13.887,-0l0,65.275Z" style="fill-rule:nonzero;"/></svg>