<svg xmlns="http://www.w3.org/2000/svg" viewBox="0 0 64 64"><title>42_Analysis</title><g id="_42_Analysis" data-name="42_Analysis"><path d="M54.6667,14a2,2,0,0,0,0-4H36a2,2,0,0,0,0,4ZM35.3333,12A.668.668,0,0,1,36,11.3333H54.6667a.6667.6667,0,0,1,0,1.3334H36A.668.668,0,0,1,35.3333,12Z"/><path d="M56,7.3333H34.6667a.6667.6667,0,1,0,0,1.3334H56a4.6723,4.6723,0,0,1,4.6667,4.6666v2H3.3333v-2A4.6723,4.6723,0,0,1,8,8.6667H32a.6667.6667,0,0,0,0-1.3334H8a6.0066,6.0066,0,0,0-6,6V50.6667a6.0074,6.0074,0,0,0,6,6H56a6.0074,6.0074,0,0,0,6-6V13.3333A6.0066,6.0066,0,0,0,56,7.3333Zm-46.6667,48a.6678.6678,0,0,1-.6666-.6666V52a.6679.6679,0,0,1,.6666-.6667H12A.668.668,0,0,1,12.6667,52v2.6667A.6679.6679,0,0,1,12,55.3333Zm21.3334,0A.6679.6679,0,0,1,30,54.6667V44a.668.668,0,0,1,.6667-.6667h2.6666A.668.668,0,0,1,34,44V54.6667a.6679.6679,0,0,1-.6667.6666Zm21.3333,0a.6679.6679,0,0,1-.6667-.6666V52A.668.668,0,0,1,52,51.3333h2.6667A.6679.6679,0,0,1,55.3333,52v2.6667a.6678.6678,0,0,1-.6666.6666Zm4.5428-.0548a1.9512,1.9512,0,0,0,.1239-.6118V52a2.003,2.003,0,0,0-2-2H52a2.003,2.003,0,0,0-2,2v2.6667a1.9606,1.9606,0,0,0,.1349.6666h-4.27A1.9606,1.9606,0,0,0,46,54.6667v-4a.6667.6667,0,1,0-1.3333,0v4A.6679.6679,0,0,1,44,55.3333H41.3333a.6678.6678,0,0,1-.6666-.6666V33.3333a.6678.6678,0,0,1,.6666-.6666H44a.6679.6679,0,0,1,.6667.6666V48A.6667.6667,0,1,0,46,48V33.3333a2.0022,2.0022,0,0,0-2-2H41.3333a2.0023,2.0023,0,0,0-2,2V54.6667a1.9606,1.9606,0,0,0,.135.6666h-4.27a1.9606,1.9606,0,0,0,.1349-.6666V44a2.003,2.003,0,0,0-2-2H30.6667a2.003,2.003,0,0,0-2,2V54.6667a1.9606,1.9606,0,0,0,.1349.6666h-4.27a1.9606,1.9606,0,0,0,.135-.6666v-16a2.003,2.003,0,0,0-2-2H20a2.003,2.003,0,0,0-2,2v4a.6667.6667,0,0,0,1.3333,0v-4A.668.668,0,0,1,20,38h2.6667a.6679.6679,0,0,1,.6666.6667v16a.6678.6678,0,0,1-.6666.6666H20a.6679.6679,0,0,1-.6667-.6666V45.3333a.6667.6667,0,0,0-1.3333,0v9.3334a1.9606,1.9606,0,0,0,.1349.6666h-4.27A1.9606,1.9606,0,0,0,14,54.6667V52a2.003,2.003,0,0,0-2-2H9.3333a2.003,2.003,0,0,0-2,2v2.6667a1.9512,1.9512,0,0,0,.1239.6118,4.6574,4.6574,0,0,1-4.1239-4.6118v-34H60.6667v34A4.6574,4.6574,0,0,1,56.5428,55.2785Z"/><path d="M7.3333,12a2,2,0,1,0,2-2A2.0022,2.0022,0,0,0,7.3333,12ZM10,12a.6667.6667,0,1,1-.6667-.6667A.668.668,0,0,1,10,12Z"/><path d="M12.6667,12a2,2,0,1,0,2-2A2.0021,2.0021,0,0,0,12.6667,12Zm2.6666,0a.6667.6667,0,1,1-.6666-.6667A.6679.6679,0,0,1,15.3333,12Z"/><path d="M18,12a2,2,0,1,0,2-2A2.0021,2.0021,0,0,0,18,12Zm2.6667,0A.6667.6667,0,1,1,20,11.3333.668.668,0,0,1,20.6667,12Z"/><path d="M53.3986,40.68c-3.1243-9.6086-5.9935-15.09-8.7476-16.7574A1.9928,1.9928,0,0,0,40.6667,24c0,.0575.028.1058.0327.1619a14.5518,14.5518,0,0,0-3.0471,4.1415c-1.1865,2.0617-2.4329,4.1276-4.13,5.11a1.94,1.94,0,0,0-3.27.3353,10.7144,10.7144,0,0,1-3.25-2.206,12.1,12.1,0,0,0-3.7248-2.4906,1.9621,1.9621,0,0,0-3.902.0772c-2.98,1.1811-5.8009,4.9663-8.5988,11.5592-.0381-.0021-.0705-.0221-.109-.0221a2,2,0,1,0,2,2,1.9774,1.9774,0,0,0-.6615-1.4637c2.5687-6.05,5.1559-9.6579,7.7041-10.7679a1.9216,1.9216,0,0,0,3.2923-.0656,11.6159,11.6159,0,0,1,3.1221,2.1774,11.0922,11.0922,0,0,0,3.9624,2.5449A1.9749,1.9749,0,0,0,32,36.6667a1.9961,1.9961,0,0,0,1.9875-1.9383c2.1318-1.1237,3.56-3.5691,4.82-5.76a16.0958,16.0958,0,0,1,2.46-3.5459,1.9909,1.9909,0,0,0,1.4.5771,1.9652,1.9652,0,0,0,1.5587-.8014c1.7517,1.2579,4.4169,5.1546,7.9142,15.9064a1.9657,1.9657,0,0,0-.8063,1.5617A2,2,0,1,0,53.3986,40.68ZM10.6667,43.3333a.6667.6667,0,1,1,.6666-.6666A.6679.6679,0,0,1,10.6667,43.3333ZM21.3333,30A.6667.6667,0,1,1,22,29.3333.6679.6679,0,0,1,21.3333,30ZM32,35.3333a.6667.6667,0,1,1,.6667-.6666A.6679.6679,0,0,1,32,35.3333ZM42.6667,24.6667A.6667.6667,0,1,1,43.3333,24,.668.668,0,0,1,42.6667,24.6667ZM53.3333,43.3333A.6667.6667,0,1,1,54,42.6667.6678.6678,0,0,1,53.3333,43.3333Z"/><path d="M8,22h5.3333a.6667.6667,0,1,0,0-1.3333H8A.6667.6667,0,1,0,8,22Z"/><path d="M8,24.6667H18.6667a.6667.6667,0,0,0,0-1.3334H8a.6667.6667,0,0,0,0,1.3334Z"/><path d="M14,26.6667A.6663.6663,0,0,0,13.3333,26H8a.6667.6667,0,1,0,0,1.3333h5.3333A.6662.6662,0,0,0,14,26.6667Z"/></g></svg>