<?xml version="1.0" encoding="UTF-8" standalone="no"?><!DOCTYPE svg PUBLIC "-//W3C//DTD SVG 1.1//EN" "http://www.w3.org/Graphics/SVG/1.1/DTD/svg11.dtd"><svg width="100%" height="100%" viewBox="0 0 101 46" version="1.1" xmlns="http://www.w3.org/2000/svg" xmlns:xlink="http://www.w3.org/1999/xlink" xml:space="preserve" xmlns:serif="http://www.serif.com/" style="fill-rule:evenodd;clip-rule:evenodd;stroke-linejoin:round;stroke-miterlimit:2;"><path d="M100.002,22.917c0,0.587 -0.372,1.147 -1.025,1.541l-34.376,20.834c-0.587,0.356 -1.337,0.541 -2.1,0.541c-0.428,0 -0.859,-0.056 -1.265,-0.177c-1.132,-0.333 -1.86,-1.081 -1.86,-1.906l0,-10.417l-56.251,0c-1.728,0 -3.125,-0.931 -3.125,-2.083l0,-16.667c0,-1.15 1.397,-2.083 3.125,-2.083l56.251,-0l0,-10.417c0,-0.825 0.728,-1.571 1.86,-1.904c1.131,-0.335 2.45,-0.192 3.365,0.365l34.376,20.833c0.653,0.394 1.025,0.954 1.025,1.54Z" style="fill:#fff;fill-rule:nonzero;"/></svg>