<svg class= "eyebrow-icon" width="100%" height="100%" viewBox="0 0 200 200" version="1.1" xmlns="http://www.w3.org/2000/svg" xmlns:xlink="http://www.w3.org/1999/xlink" xml:space="preserve" xmlns:serif="http://www.serif.com/" style="fill-rule:evenodd;clip-rule:evenodd;stroke-linejoin:round;stroke-miterlimit:2;"><path d="M17.25,57.804l82.75,-49.371l82.746,49.371l-165.496,0Zm144.208,110.633l-14.583,0l-0.008,-102.3l14.583,0l0.008,102.3Zm20.954,22.646l-164.829,0l0,-14.316l164.829,-0l0,14.316Zm-98.045,-124.946l0.008,102.3l-22.917,0l-0.008,-102.3l22.917,0Zm22.916,0l0.009,102.3l-14.584,0l-0.008,-102.3l14.583,0Zm31.25,0l0.009,102.3l-22.917,0l-0.008,-102.3l22.916,0Zm-100,0l14.584,0l0.008,102.3l-14.583,0l-0.009,-102.3Zm161.467,-7.745l-97.862,-58.392l-4.271,-0l-97.867,58.392l2.138,7.745l28.062,0l0.008,102.3l-20.958,0l-0,30.98l38.633,-0c0.017,-0 0.025,0.008 0.042,0.008l106.466,-0.008l36.355,-0l-0,-30.98l-20.954,0l-0.009,-102.3l28.084,0l0.079,-0.3l-0,0.3l2.054,-7.745Z" style="fill:#ff5000;fill-rule:nonzero;"/></svg>