<?xml version="1.0" encoding="UTF-8" standalone="no"?><!DOCTYPE svg PUBLIC "-//W3C//DTD SVG 1.1//EN" "http://www.w3.org/Graphics/SVG/1.1/DTD/svg11.dtd"><svg width="100%" height="100%" viewBox="0 0 417 362" version="1.1" xmlns="http://www.w3.org/2000/svg" xmlns:xlink="http://www.w3.org/1999/xlink" xml:space="preserve" xmlns:serif="http://www.serif.com/" style="fill-rule:evenodd;clip-rule:evenodd;stroke-linejoin:round;stroke-miterlimit:2;"><path d="M274.195,0l-100.191,0c-24.385,0 -38.138,29.66 -23.224,50.1l79.652,109.152c8.092,11.026 8.201,26.433 0.289,37.613l-81.429,115.376c-14.479,20.478 -0.653,49.677 23.514,49.677l112.565,0c9.144,0 17.745,-4.495 23.297,-12.179l102.295,-141.501c8.019,-11.104 8.055,-26.549 0.072,-37.691l-113.471,-158.252c-5.552,-7.723 -14.189,-12.295 -23.369,-12.295Z" style="fill-rule:nonzero;"/><path d="M35.171,0.019c-28.042,0 -43.834,29.661 -26.708,50.1l91.5,109.152c9.25,11.027 9.375,26.433 0.333,37.613l-93.541,115.376c-16.583,20.478 -0.751,49.678 27.041,49.678l14.208,-0c10.459,-0 20.375,-4.496 26.75,-12.18l117.459,-141.501c9.208,-11.104 9.25,-26.549 0.042,-37.69l-130.25,-158.253c-6.375,-7.723 -16.292,-12.295 -26.834,-12.295Z" style="fill-rule:nonzero;"/></svg>