<svg width="100%" height="100%" viewBox="0 0 84 71" version="1.1" xmlns="http://www.w3.org/2000/svg" xmlns:xlink="http://www.w3.org/1999/xlink" xml:space="preserve" xmlns:serif="http://www.serif.com/" style="fill-rule:evenodd;clip-rule:evenodd;stroke-linejoin:round;stroke-miterlimit:2;"><path d="M4.167,62.029l75,0l-0,8.334l-75,-0l-0,-8.334Zm72.916,-41.667c-3.428,0.001 -6.25,2.822 -6.25,6.251c0,3.428 2.822,6.25 6.25,6.25c3.429,-0.001 6.25,-2.822 6.25,-6.25c0,-3.429 -2.821,-6.25 -6.25,-6.25Z" style="fill-rule:nonzero;"/><path d="M0,32.321l10.679,18.221l67.996,-17.905l-3.2,-12.07l-21.796,5.733l-28.337,-26.3l-7.546,2.279l16.658,29.071l-21.221,5.6l-7.537,-6.337l-5.696,1.708Z" style="fill-rule:nonzero;"/></svg>