<?xml version="1.0" encoding="UTF-8" standalone="no"?><!DOCTYPE svg PUBLIC "-//W3C//DTD SVG 1.1//EN" "http://www.w3.org/Graphics/SVG/1.1/DTD/svg11.dtd"><svg width="100%" height="100%" viewBox="0 0 1519 1519" version="1.1" xmlns="http://www.w3.org/2000/svg" xmlns:xlink="http://www.w3.org/1999/xlink" xml:space="preserve" xmlns:serif="http://www.serif.com/" style="fill-rule:evenodd;clip-rule:evenodd;stroke-linejoin:round;stroke-miterlimit:2;"><path d="M930.667,465.999c-22.584,21.084 -49.834,31.625 -81.709,31.625c-32,-0 -59.333,-10.541 -82.166,-31.625c-22.833,-21.041 -34.292,-46.584 -34.292,-76.499c0,-29.917 11.459,-55.501 34.292,-76.792c22.833,-21.208 50.166,-31.834 82.166,-31.834c31.875,-0 59.125,10.626 81.709,31.834c22.667,21.291 33.958,46.875 33.958,76.792c0,29.915 -11.291,55.458 -33.958,76.499Zm8.666,697.834c-39.042,15.374 -70.166,27.083 -93.375,35.166c-23.208,8.083 -50.166,12.083 -80.916,12.083c-47.209,-0 -83.917,-11.54 -110.125,-34.499c-26.167,-23.084 -39.25,-52.291 -39.25,-87.75c-0,-13.709 0.916,-27.832 2.916,-42.208c2,-14.417 5.125,-30.626 9.5,-48.751l48.709,-172.5c4.333,-16.54 8.041,-32.124 10.958,-46.958c3,-14.708 4.458,-28.249 4.458,-40.416c0,-22.041 -4.541,-37.416 -13.625,-46.083c-9.083,-8.667 -26.416,-13.043 -52.125,-13.043c-12.625,-0 -25.541,2.042 -38.791,5.918c-13.209,3.916 -24.584,7.707 -34.084,11.208l13.042,-53.168c31.917,-13 62.417,-24.125 91.625,-33.374c29.167,-9.25 56.75,-13.918 82.875,-13.918c46.833,0 83.042,11.375 108.417,34.044c25.458,22.666 38.125,52.083 38.125,88.291c-0,7.499 -0.834,20.707 -2.625,39.583c-1.75,18.875 -5,36.209 -9.751,52l-48.541,171.792c-3.958,13.833 -7.542,29.584 -10.667,47.333c-3.166,17.625 -4.708,31.083 -4.708,40.124c-0,22.834 5.083,38.418 15.25,46.668c10.292,8.333 27.958,12.416 53.083,12.416c11.834,0 25.209,-2.126 40.167,-6.209c14.917,-4.124 25.75,-7.749 32.459,-10.874l-13.001,53.125Zm-180.249,-1163.83c-419.209,0 -759.084,339.874 -759.084,759.082c0,419.251 339.875,759.043 759.084,759.043c419.25,0 759.083,-339.792 759.083,-759.043c-0,-419.208 -339.833,-759.082 -759.083,-759.082Z" style="fill:#030404;fill-rule:nonzero;"/></svg>