<svg xmlns="http://www.w3.org/2000/svg" viewBox="0 0 64 64"><title>34_Network</title><g id="_34_Network" data-name="34_Network"><path d="M13.6159,28.6732a.6691.6691,0,0,0-.7539.5664A19.8194,19.8194,0,0,0,12.6667,32a19.2324,19.2324,0,0,0,4.2988,12.1281c.0026.0049-.0008.01.0019.0151.0093.0165.0276.0227.038.038a19.2944,19.2944,0,0,0,29.9892,0c.01-.0153.0287-.0215.038-.038.0027-.0047-.0007-.01.0019-.0151A19.3135,19.3135,0,0,0,32,12.6667a19.4473,19.4473,0,0,0-18.5326,13.81.667.667,0,0,0,1.2787.38A17.7116,17.7116,0,0,1,17.79,21.0436a29.6722,29.6722,0,0,0,4.2881,1.8716,29.9584,29.9584,0,0,0-1.3845,8.4181H14.0472a18.3073,18.3073,0,0,1,.1351-1.9062A.6667.6667,0,0,0,13.6159,28.6732Zm19.0508-14.64a17.9279,17.9279,0,0,1,3.3452.4328,28.5484,28.5484,0,0,1,4.2067,7.5823,29.26,29.26,0,0,1-7.5519,1.1729Zm-1.3334,9.188a29.26,29.26,0,0,1-7.5519-1.1729,28.5355,28.5355,0,0,1,4.1626-7.5213,17.684,17.684,0,0,1,3.3893-.4723Zm1.3334,1.4017a29.93,29.93,0,0,0,7.9905-1.2857,28.64,28.64,0,0,1,1.3156,7.9956H32.6667ZM46.2474,42.9587a29.7444,29.7444,0,0,0-4.3109-1.9232,29.963,29.963,0,0,0,1.37-8.3688h6.66A17.881,17.881,0,0,1,46.2474,42.9587ZM43.3062,31.3333a29.9584,29.9584,0,0,0-1.3845-8.4181A29.6921,29.6921,0,0,0,46.2386,21.03a17.8816,17.8816,0,0,1,3.7277,10.3037Zm-1.3334,1.3334a28.6421,28.6421,0,0,1-1.3063,7.9648,29.6835,29.6835,0,0,0-3.2121-.8021.6673.6673,0,0,0-.2422,1.3125,28.4271,28.4271,0,0,1,3.0284.7531,28.545,28.545,0,0,1-4.2287,7.6385,17.9279,17.9279,0,0,1-3.3452.4328V40.6821c.6479.0142,1.2955.0428,1.94.1018a.6914.6914,0,0,0,.7239-.6042.6671.6671,0,0,0-.6041-.724c-.6846-.0615-1.3721-.0919-2.06-.1056V32.6667Zm-10.6395,17.3a17.9279,17.9279,0,0,1-3.3452-.4328,28.5467,28.5467,0,0,1-4.23-7.643,28.99,28.99,0,0,1,7.5757-1.1932Zm0-10.5989a30.4218,30.4218,0,0,0-8,1.262,28.638,28.638,0,0,1-1.3058-7.9627h9.3061ZM22.069,41.054a29.4818,29.4818,0,0,0-4.3172,1.9037,17.88,17.88,0,0,1-3.7181-10.291h6.66A29.9673,29.9673,0,0,0,22.069,41.054Zm-3.4432,2.951a28.27,28.27,0,0,1,3.8674-1.6892,29.7186,29.7186,0,0,0,3.4054,6.597A18.03,18.03,0,0,1,18.6258,44.005Zm19.4756,4.9078A29.71,29.71,0,0,0,41.5133,42.3a28.3832,28.3832,0,0,1,3.8594,1.7069A18.0289,18.0289,0,0,1,38.1014,48.9128Zm7.2554-28.9369a27.3983,27.3983,0,0,1-3.8693,1.6589,29.7147,29.7147,0,0,0-3.3861-6.5476A18.03,18.03,0,0,1,45.3568,19.9759Zm-26.6861.0132a18.1981,18.1981,0,0,1,7.2035-4.868,29.7116,29.7116,0,0,0-3.3617,6.5137A27.4005,27.4005,0,0,1,18.6707,19.9891Zm4.6721,3.3486a29.93,29.93,0,0,0,7.9905,1.2857v6.71H22.0272A28.64,28.64,0,0,1,23.3428,23.3377Z"/><path d="M59.3333,32a3.2986,3.2986,0,0,0-2.9145-3.2487A24.6545,24.6545,0,0,0,23.7773,8.737a.6672.6672,0,0,0,.4454,1.2578A23.318,23.318,0,0,1,55.0864,28.8514a3.2583,3.2583,0,0,0,0,6.297,23.2949,23.2949,0,0,1-46.1728,0,3.2586,3.2586,0,0,0,.0093-6.295A23.1877,23.1877,0,0,1,21.63,11.0924.6661.6661,0,0,0,21.0365,9.9,24.5156,24.5156,0,0,0,7.5905,28.75a3.2682,3.2682,0,0,0-.0093,6.499,24.629,24.629,0,0,0,48.8376,0A3.2984,3.2984,0,0,0,59.3333,32ZM6,32a2.0021,2.0021,0,0,1,2-2c.027,0,.05.0143.0763.0155.0049.0006.0072.0061.0122.0066l.0284.0015A1.99,1.99,0,1,1,6,32Zm50,2a1.99,1.99,0,0,1-.1169-3.9764l.0284-.0015c.005,0,.0073-.006.0122-.0066C55.9505,30.0143,55.973,30,56,30a2,2,0,0,1,0,4Z"/></g></svg>