<svg  class= "eyebrow-icon" width="100%" height="100%" viewBox="0 0 1685 1469" version="1.1" xmlns="http://www.w3.org/2000/svg" xmlns:xlink="http://www.w3.org/1999/xlink" xml:space="preserve" xmlns:serif="http://www.serif.com/" style="fill-rule:evenodd;clip-rule:evenodd;stroke-linejoin:round;stroke-miterlimit:2;"><path d="M1313.12,1109.92c-64.792,-97.375 -160.959,-144.833 -226.584,-175.709c61.292,-73.458 97.459,-173.541 97.459,-280.333c-0,-183.958 -106.625,-339.208 -251.292,-385.791c38.875,-96.625 118.834,-163.084 211.417,-163.084c130.792,-0 236.791,132.125 236.791,295.125c0,122.667 -60.041,227.75 -145.458,272.334l8.042,42.832c67.583,78.668 336.042,83.792 336.042,394.626l-266.417,0Zm-35.5,253.791l-870.792,0c-0,-316.167 277.667,-316.083 339.292,-398.749l7.042,-37.709c-86.584,-43.875 -147.667,-149.666 -147.667,-273.375c-0,-163 106,-295.083 236.75,-295.083c130.75,0 236.75,132.083 236.75,295.083c-0,122.625 -60.042,227.75 -145.459,272.333l8.042,42.834c67.583,78.666 336.042,83.791 336.042,394.666Zm-906.25,-253.791l-266.375,0c-0,-316.167 277.667,-316.084 339.292,-398.709l7.041,-37.749c-86.583,-43.875 -147.666,-149.626 -147.666,-273.334c-0,-163 105.999,-295.125 236.749,-295.125c92.584,-0 172.542,66.459 211.375,163.084c-144.666,46.541 -251.291,201.833 -251.291,385.791c-0,107 36.125,207 97.458,280.333c-65.625,30.876 -161.833,78.334 -226.583,175.709Zm1017.04,-429.458c61.333,-73.459 97.5,-173.583 97.5,-280.334c-0,-220.666 -153.292,-400.125 -341.792,-400.125c-130.708,0 -244.417,86.417 -301.834,213c-57.416,-126.583 -171.166,-213 -301.875,-213c-188.458,0 -341.791,179.459 -341.791,400.125c-0,107 36.125,207 97.458,280.334c-107.166,50.375 -296.083,144.875 -296.083,429.458l0,105l322.375,-0c-12.917,42.833 -20.542,91.959 -20.542,148.791l0,105l1080.79,0l-0,-105c-0,-56.832 -7.625,-105.958 -20.5,-148.791l322.416,-0l0,-105c0,-284.583 -188.916,-379.042 -296.124,-429.458Z" style="fill:#ff5000;fill-rule:nonzero;"/></svg>