<svg  class= "eyebrow-icon" width="100%" height="100%" viewBox="0 0 883 920" version="1.1" xmlns="http://www.w3.org/2000/svg" xmlns:xlink="http://www.w3.org/1999/xlink" xml:space="preserve" xmlns:serif="http://www.serif.com/" style="fill-rule:evenodd;clip-rule:evenodd;stroke-linejoin:round;stroke-miterlimit:2;"><path d="M94.574,838.552c13.574,-162.312 108.259,-233.644 192.506,-297.154c2.471,-1.874 4.868,-3.716 7.303,-5.526c46.144,17.324 96.418,26.599 147.505,26.923c50.496,-0.324 100.623,-9.599 146.767,-26.923c2.36,1.81 4.831,3.685 7.303,5.526c84.246,63.51 178.931,134.842 192.468,297.154l-693.852,0Zm122.681,-560.597c-0,-108.337 100.623,-196.475 224.263,-196.475c123.677,0 224.264,88.138 224.264,196.475c0,108.338 -100.587,196.54 -224.264,196.54c-123.64,-0.032 -224.263,-88.202 -224.263,-196.54Zm440.634,202.682c61.893,-50.744 100.844,-122.721 100.844,-202.682c0,-153.263 -142.303,-277.955 -317.215,-277.955c-174.91,-0 -317.177,124.692 -317.177,277.955c-0,79.961 38.914,151.938 100.808,202.682c-95.46,71.977 -225.149,170.715 -225.149,398.639l0,40.724l883,-0l0,-40.724c0,-227.924 -129.652,-326.662 -225.111,-398.639Z" style="fill:#ff5000;fill-rule:nonzero;"/></svg>