<svg width="26" height="34" viewBox="0 0 26 34" fill="none" xmlns="http://www.w3.org/2000/svg">
<path d="M13 16.91C14.6569 16.91 16 15.5669 16 13.91C16 12.2532 14.6569 10.91 13 10.91C11.3431 10.91 10 12.2532 10 13.91C10 15.5669 11.3431 16.91 13 16.91Z" fill="black"/>
<path d="M13 0.910034C9.55219 0.910034 6.24558 2.27968 3.80761 4.71765C1.36964 7.15562 0 10.4622 0 13.91C0 20.09 6.7 27.51 12.33 32.65L13.02 33.28L13.69 32.63C19.92 26.63 26 20.26 26 13.91C26 12.2029 25.6637 10.5124 25.0104 8.93515C24.3571 7.35792 23.3996 5.92481 22.1924 4.71765C20.9852 3.51049 19.5521 2.55291 17.9749 1.8996C16.3977 1.24629 14.7072 0.910034 13 0.910034ZM13 18.91C12.0111 18.91 11.0444 18.6168 10.2221 18.0674C9.3999 17.518 8.75904 16.7371 8.3806 15.8235C8.00216 14.9098 7.90315 13.9045 8.09608 12.9346C8.289 11.9647 8.7652 11.0738 9.46446 10.3745C10.1637 9.67525 11.0546 9.19903 12.0246 9.0061C12.9945 8.81318 13.9998 8.91218 14.9134 9.29062C15.827 9.66906 16.6079 10.3099 17.1573 11.1322C17.7068 11.9544 18 12.9211 18 13.91C18 15.2361 17.4732 16.5079 16.5355 17.4456C15.5979 18.3832 14.3261 18.91 13 18.91Z" fill="black"/>
</svg>
