<svg xmlns="http://www.w3.org/2000/svg" viewBox="0 0 64 64"><title>20_Planning</title><g id="_20_Planning" data-name="20_Planning"><path d="M48,7.3333H37.9567a5.9931,5.9931,0,0,0-11.9134,0H16a.6667.6667,0,1,0,0,1.3334H24.03a3.293,3.293,0,0,0-.6962,2,6.0074,6.0074,0,0,0,6,6h2V18h-.6666a2.003,2.003,0,0,0-2,2v1.0677A13.854,13.854,0,0,0,24.75,22.7018l-.763-.763a2.0041,2.0041,0,0,0-2.8281,0l-.4721.472-2.6425-2.6426A5.9815,5.9815,0,0,0,13.7865,18H11.3333V13.3333A4.6869,4.6869,0,0,1,13.6667,9.29.6662.6662,0,1,0,13,8.1367a6.0222,6.0222,0,0,0-3,5.1966V56a6.0074,6.0074,0,0,0,6,6H48a6.0074,6.0074,0,0,0,6-6V13.3333A6.0074,6.0074,0,0,0,48,7.3333ZM24.6667,10.6667a2.003,2.003,0,0,1,2-2A.6671.6671,0,0,0,27.3333,8a4.6667,4.6667,0,1,1,9.3334,0,.6671.6671,0,0,0,.6666.6667,2.003,2.003,0,0,1,2,2,4.6722,4.6722,0,0,1-4.6666,4.6666H29.3333A4.6722,4.6722,0,0,1,24.6667,10.6667Zm8,6h2a6.0074,6.0074,0,0,0,6-6,3.293,3.293,0,0,0-.6962-2H48a4.6723,4.6723,0,0,1,4.6667,4.6666V18H50.2135a5.9878,5.9878,0,0,0-4.26,1.77l-2.6295,2.6517-.4825-.4824a2.0041,2.0041,0,0,0-2.8281,0l-.763.763a13.854,13.854,0,0,0-3.9167-1.6341V20a2.003,2.003,0,0,0-2-2h-.6666Zm12.06,26.0143-.7631-.763A13.8683,13.8683,0,0,0,45.599,38h1.0677a2.003,2.003,0,0,0,2-2v-.6667h4V50H50.2135a4.66,4.66,0,0,1-3.3151-1.3776L44.2559,45.98l.4707-.4707A2.0041,2.0041,0,0,0,44.7266,42.681ZM48.6667,34v-.6667a2.0031,2.0031,0,0,0-2-2H45.599a13.8665,13.8665,0,0,0-1.6355-3.9179l.7631-.7631a2.0041,2.0041,0,0,0,0-2.8281l-.4592-.4591,2.631-2.6542a4.66,4.66,0,0,1,3.3151-1.3776h2.4532V34Zm-34.88-14.6667a4.66,4.66,0,0,1,3.3151,1.3776l2.6425,2.6426-.4707.4707a2.0041,2.0041,0,0,0,0,2.8281l.7631.7631a13.7959,13.7959,0,0,0-.862,1.65.6652.6652,0,0,0,.3411.8789.6747.6747,0,0,0,.8776-.3424A13.0754,13.0754,0,0,1,21.44,27.69a.6646.6646,0,0,0-.0833-.84L20.2161,25.71a.6664.6664,0,0,1,0-.9427l1.8855-1.8854a.6664.6664,0,0,1,.9427,0l1.1406,1.1406a.6644.6644,0,0,0,.8385.0847,12.566,12.566,0,0,1,4.4427-1.8516A.6688.6688,0,0,0,30,21.6016V20a.668.668,0,0,1,.6667-.6667h2.6666A.668.668,0,0,1,34,20v1.6016a.6688.6688,0,0,0,.5339.6536,12.566,12.566,0,0,1,4.4427,1.8516.6647.6647,0,0,0,.8385-.0847l1.1406-1.1406a.6664.6664,0,0,1,.9427,0l1.8855,1.8854a.6664.6664,0,0,1,0,.9427L42.6432,26.85a.6646.6646,0,0,0-.0833.84,12.544,12.544,0,0,1,1.8516,4.4427.6654.6654,0,0,0,.6536.5339h1.6016a.6678.6678,0,0,1,.6666.6666V36a.6679.6679,0,0,1-.6666.6667H45.0651a.6653.6653,0,0,0-.6536.5338A12.544,12.544,0,0,1,42.56,41.6432a.6647.6647,0,0,0,.0833.84l1.1407,1.1406a.6664.6664,0,0,1,0,.9427l-1.8855,1.8854a.6664.6664,0,0,1-.9427,0l-1.1406-1.1406a.6647.6647,0,0,0-.8385-.0846,12.5676,12.5676,0,0,1-4.4427,1.8515A.6689.6689,0,0,0,34,47.7318v1.6015A.668.668,0,0,1,33.3333,50H30.6667A.668.668,0,0,1,30,49.3333V47.7318a.6689.6689,0,0,0-.5339-.6537,12.5676,12.5676,0,0,1-4.4427-1.8515.6644.6644,0,0,0-.8385.0846l-1.1406,1.1406a.6664.6664,0,0,1-.9427,0l-1.8855-1.8854a.6664.6664,0,0,1,0-.9427l1.1407-1.1406a.6647.6647,0,0,0,.0833-.84,12.5458,12.5458,0,0,1-1.8516-4.4427.6653.6653,0,0,0-.6536-.5338H17.3333A.6679.6679,0,0,1,16.6667,36V33.3333a.6678.6678,0,0,1,.6666-.6666h1.6016a.6667.6667,0,0,0,0-1.3334H17.3333a2.0031,2.0031,0,0,0-2,2V34h-4V19.3333ZM17.3333,38H18.401a13.8683,13.8683,0,0,0,1.6355,3.918l-.7631.763a2.0041,2.0041,0,0,0,0,2.8281l.4818.4818-2.6536,2.6315A4.66,4.66,0,0,1,13.7865,50H11.3333V35.3333h4V36A2.003,2.003,0,0,0,17.3333,38Zm-6,18V51.3333h2.4532a5.9793,5.9793,0,0,0,4.2552-1.7656l2.6562-2.6341.461.4609a2.0039,2.0039,0,0,0,2.8281,0l.763-.763a13.854,13.854,0,0,0,3.9167,1.6341v1.0677a2.003,2.003,0,0,0,2,2h.6666v9.3334H16A4.6724,4.6724,0,0,1,11.3333,56ZM48,60.6667H32.6667V51.3333h.6666a2.003,2.003,0,0,0,2-2V48.2656A13.854,13.854,0,0,0,39.25,46.6315l.763.763a2.0039,2.0039,0,0,0,2.8281,0l.4721-.472,2.6425,2.6426a5.9815,5.9815,0,0,0,4.2578,1.7682h2.4532V56A4.6724,4.6724,0,0,1,48,60.6667Z"/><path d="M32,4.6667A3.3333,3.3333,0,1,0,35.3333,8,3.3364,3.3364,0,0,0,32,4.6667ZM32,10a2,2,0,1,1,2-2A2.003,2.003,0,0,1,32,10Z"/><path d="M32,43.3333a8.68,8.68,0,0,0,8.1719-5.7773.6659.6659,0,1,0-1.2552-.4453,7.34,7.34,0,1,1,.4166-2.444.6667.6667,0,0,0,1.3334,0A8.6667,8.6667,0,1,0,32,43.3333Z"/></g></svg>