<?xml version="1.0" encoding="UTF-8" standalone="no"?><!DOCTYPE svg PUBLIC "-//W3C//DTD SVG 1.1//EN" "http://www.w3.org/Graphics/SVG/1.1/DTD/svg11.dtd"><svg width="100%" height="100%" viewBox="0 0 1047 1047" version="1.1" xmlns="http://www.w3.org/2000/svg" xmlns:xlink="http://www.w3.org/1999/xlink" xml:space="preserve" xmlns:serif="http://www.serif.com/" style="fill-rule:evenodd;clip-rule:evenodd;stroke-linejoin:round;stroke-miterlimit:2;"><path d="M523.375,1011.64c-269.208,0 -488.249,-219 -488.249,-488.25c-0,-269.2 219.041,-488.229 488.249,-488.229c269.25,0 488.25,219.029 488.25,488.229c0,269.25 -219,488.25 -488.25,488.25Zm0,-1011.64c-288.583,0 -523.375,234.799 -523.375,523.387c0,288.625 234.792,523.417 523.375,523.417c288.626,-0 523.417,-234.792 523.417,-523.417c-0,-288.588 -234.791,-523.387 -523.417,-523.387Z" style="fill-rule:nonzero;"/><path d="M523.375,893.47c-204.041,0 -370.041,-166 -370.041,-370.083c-0,-204.037 166,-370.054 370.041,-370.054c204.084,-0 370.084,166.017 370.084,370.054c0,204.083 -166,370.083 -370.084,370.083Zm0,-775.296c-223.417,0 -405.208,181.784 -405.208,405.213c0,223.458 181.791,405.25 405.208,405.25c223.458,0 405.25,-181.792 405.25,-405.25c0,-223.429 -181.792,-405.213 -405.25,-405.213Z" style="fill-rule:nonzero;"/><path d="M523.375,779.929c-141.416,-0 -256.5,-115.084 -256.5,-256.542c0,-141.433 115.084,-256.513 256.5,-256.513c141.459,0 256.542,115.08 256.542,256.513c0,141.458 -115.083,256.542 -256.542,256.542Zm0,-548.213c-84.947,-0 -161.525,36.502 -214.877,94.643c-47.662,51.939 -76.789,121.147 -76.789,197.028c-0,160.875 130.833,291.709 291.666,291.709c160.875,-0 291.709,-130.834 291.709,-291.709c-0,-160.821 -130.834,-291.671 -291.709,-291.671Z" style="fill-rule:nonzero;"/><path d="M523.375,655.721c-72.958,-0 -132.291,-59.334 -132.291,-132.334c-0,-72.946 59.333,-132.304 132.291,-132.304c73.001,-0 132.334,59.358 132.334,132.304c-0,73 -59.333,132.334 -132.334,132.334Zm0,-299.801c-92.333,0 -167.458,75.134 -167.458,167.467c0,92.375 75.125,167.5 167.458,167.5c92.375,-0 167.5,-75.125 167.5,-167.5c0,-92.333 -75.125,-167.467 -167.5,-167.467Z" style="fill-rule:nonzero;"/></svg>