<svg class= "eyebrow-icon" width="100%" height="100%" viewBox="0 0 400 339" version="1.1" xmlns="http://www.w3.org/2000/svg" xmlns:xlink="http://www.w3.org/1999/xlink" xml:space="preserve" xmlns:serif="http://www.serif.com/" style="fill-rule:evenodd;clip-rule:evenodd;stroke-linejoin:round;stroke-miterlimit:2;"><path d="M199.625,0c-46.75,0 -84.625,37.896 -84.625,84.637c-0,46.742 37.875,84.634 84.625,84.634c46.75,-0 84.625,-37.892 84.625,-84.634c-0,-46.741 -37.875,-84.637 -84.625,-84.637Z" style="fill:#ff5000;fill-rule:nonzero;"/><path d="M84.625,169.271c-46.708,-0 -84.625,37.896 -84.625,84.638c0,46.741 37.917,84.637 84.625,84.637c46.75,0 84.667,-37.896 84.667,-84.637c-0,-46.742 -37.917,-84.638 -84.667,-84.638Z" style="fill:#ff5000;fill-rule:nonzero;"/><path d="M314.667,169.271c-46.75,-0 -84.667,37.896 -84.667,84.638c-0,46.741 37.917,84.637 84.667,84.637c46.75,0 84.625,-37.896 84.625,-84.637c-0,-46.742 -37.875,-84.638 -84.625,-84.638Z" style="fill:#ff5000;fill-rule:nonzero;"/></svg>