<?xml version="1.0" encoding="UTF-8" standalone="no"?><!DOCTYPE svg PUBLIC "-//W3C//DTD SVG 1.1//EN" "http://www.w3.org/Graphics/SVG/1.1/DTD/svg11.dtd"><svg width="100%" height="100%" viewBox="0 0 846 630" version="1.1" xmlns="http://www.w3.org/2000/svg" xmlns:xlink="http://www.w3.org/1999/xlink" xml:space="preserve" xmlns:serif="http://www.serif.com/" style="fill-rule:evenodd;clip-rule:evenodd;stroke-linejoin:round;stroke-miterlimit:2;"><path d="M180.625,34.721l129.15,-0l-96.496,130.921l-150.725,-0l118.071,-130.921Zm602.758,130.921l-151.875,-0l-96.508,-130.921l130.313,-0l118.07,130.921Zm-187.896,34.721l-173.091,371.479l-173.109,-371.48l346.2,0.001Zm187.013,-0l-297.742,319.895l149.046,-319.895l148.696,-0Zm-359.671,-165.642c0.071,-0 0.104,-0.033 0.138,-0.033c0.037,-0 0.07,0.033 0.141,0.033l68.767,-0l96.492,130.921l-331.963,-0l96.513,-130.921l69.912,-0Zm-211.858,165.642l147.916,317.416l-295.483,-317.417l147.567,0.001Zm634.967,-17.15l-165.192,-183.213l-257.638,0c-0.07,0 -0.104,0.033 -0.141,0.033c-0.034,0 -0.067,-0.033 -0.138,-0.033l-257.637,0l-165.192,183.213l410.121,440.608c0.296,0.292 0.712,0.396 1.008,0.708c0.067,0.038 0.067,0.088 0.138,0.159c0.346,0.312 0.746,0.416 1.096,0.675c1.387,1.095 2.741,2.104 4.337,2.729c1.146,0.433 2.363,0.5 3.596,0.708c0.833,0.125 1.683,0.542 2.533,0.542c0.071,-0 0.104,-0.038 0.138,-0.038c0.037,0 0.071,0.038 0.141,0.038c0.85,-0 1.684,-0.417 2.534,-0.542c1.233,-0.208 2.45,-0.275 3.596,-0.708c1.595,-0.625 2.95,-1.634 4.337,-2.729c0.35,-0.259 0.75,-0.363 1.096,-0.675c0.071,-0.071 0.071,-0.121 0.137,-0.159c0.296,-0.312 0.713,-0.416 1.009,-0.708l410.121,-440.608Z" style="fill:#212121;fill-rule:nonzero;"/></svg>