<svg class= "eyebrow-icon" width="100%" height="100%" viewBox="0 0 204 152" version="1.1" xmlns="http://www.w3.org/2000/svg" xmlns:xlink="http://www.w3.org/1999/xlink" xml:space="preserve" xmlns:serif="http://www.serif.com/" style="fill-rule:evenodd;clip-rule:evenodd;stroke-linejoin:round;stroke-miterlimit:2;"><path d="M43.35,8.333l30.996,0l-23.159,31.421l-36.174,0l28.337,-31.421Zm144.662,31.421l-36.45,0l-23.162,-31.421l31.275,0l28.337,31.421Zm-45.095,8.333l-41.542,89.155l-41.546,-89.155l83.088,0Zm44.883,0l-71.458,76.775l35.771,-76.775l35.687,0Zm-86.321,-39.754c0.017,0 0.025,-0.008 0.033,-0.008c0.009,-0 0.017,0.008 0.034,0.008l16.504,0l23.158,31.421l-79.671,0l23.163,-31.421l16.779,0Zm-50.846,39.754l35.5,76.18l-70.916,-76.18l35.416,0Zm152.392,-4.116l-39.646,-43.971l-61.833,0c-0.017,0 -0.025,0.008 -0.034,0.008c-0.008,0 -0.016,-0.008 -0.033,-0.008l-61.833,0l-39.646,43.971l98.429,105.746c0.071,0.07 0.171,0.095 0.242,0.17c0.016,0.009 0.016,0.021 0.033,0.038c0.083,0.075 0.179,0.1 0.263,0.162c0.333,0.263 0.658,0.505 1.041,0.655c0.275,0.104 0.567,0.12 0.863,0.17c0.2,0.03 0.404,0.13 0.608,0.13c0.017,-0 0.025,-0.009 0.033,-0.009c0.009,0 0.017,0.009 0.034,0.009c0.204,-0 0.404,-0.1 0.608,-0.13c0.296,-0.05 0.588,-0.066 0.863,-0.17c0.383,-0.15 0.708,-0.392 1.041,-0.655c0.084,-0.062 0.18,-0.087 0.263,-0.162c0.017,-0.017 0.017,-0.029 0.033,-0.038c0.071,-0.075 0.171,-0.1 0.242,-0.17l98.429,-105.746Z" style="fill:#ff5000;fill-rule:nonzero;"/></svg>