<?xml version="1.0" encoding="UTF-8" standalone="no"?><!DOCTYPE svg PUBLIC "-//W3C//DTD SVG 1.1//EN" "http://www.w3.org/Graphics/SVG/1.1/DTD/svg11.dtd"><svg width="100%" height="100%" viewBox="0 0 2550 800" version="1.1" xmlns="http://www.w3.org/2000/svg" xmlns:xlink="http://www.w3.org/1999/xlink" xml:space="preserve" xmlns:serif="http://www.serif.com/" style="fill-rule:evenodd;clip-rule:evenodd;stroke-linejoin:round;stroke-miterlimit:2;"><path d="M547.917,165.833c-0.417,-3.75 -3.75,-5.416 -6.25,-5.416c-2.5,-0 -57.084,-4.167 -57.084,-4.167c0,-0 -37.916,-37.917 -42.5,-41.667c-4.166,-4.166 -12.083,-2.916 -15.416,-2.083c-0.417,-0 -8.334,2.5 -21.25,6.667c-12.917,-37.084 -35,-70.834 -74.584,-70.834l-3.75,0c-10.833,-14.166 -25,-20.833 -36.666,-20.833c-91.667,-0 -135.834,114.583 -149.584,172.917c-35.833,11.25 -61.25,18.75 -64.166,20c-20,6.25 -20.417,6.666 -22.917,25.416c-2.083,14.167 -54.167,417.084 -54.167,417.084l405.417,75.833l220,-47.5c0.417,-0.833 -76.667,-521.667 -77.083,-525.417Zm-165,-40.833c-10,2.917 -22.084,6.667 -34.167,10.833l0,-7.5c0,-22.5 -2.917,-40.833 -8.333,-55.416c20.833,2.5 33.75,25.416 42.5,52.083Zm-67.917,-47.5c5.417,14.167 9.167,34.167 9.167,61.667l-0,4.166c-22.5,7.084 -46.25,14.167 -70.834,22.084c13.75,-52.5 40,-78.334 61.667,-87.917Zm-26.667,-25.833c4.167,-0 8.334,1.666 11.667,4.166c-29.583,13.75 -60.833,48.334 -73.75,118.334c-19.583,6.25 -38.333,11.666 -56.25,17.5c15,-53.334 52.5,-140 118.333,-140Z" style="fill:#95bf47;fill-rule:nonzero;"/><path d="M541.667,159.583c-2.5,0 -57.084,-4.166 -57.084,-4.166c0,-0 -37.916,-37.917 -42.5,-41.667c-1.666,-1.667 -3.75,-2.5 -5.416,-2.5l-30.417,627.5l220,-47.5c0,0 -77.083,-521.667 -77.5,-525.417c-1.667,-3.75 -4.583,-5.416 -7.083,-6.25Z" style="fill:#5e8e3e;fill-rule:nonzero;"/><path d="M330.833,281.25l-26.666,80.417c-0,-0 -24.167,-12.917 -52.917,-12.917c-42.917,-0 -45,27.083 -45,33.75c0,36.667 95.833,50.833 95.833,137.083c0,67.917 -42.916,111.667 -100.833,111.667c-70,-0 -105,-43.333 -105,-43.333l18.75,-61.667c-0,-0 36.667,31.667 67.5,31.667c20.417,-0 28.75,-15.834 28.75,-27.5c-0,-47.917 -78.333,-50 -78.333,-129.167c-0,-66.25 47.5,-130.417 143.75,-130.417c35.833,-0.416 54.166,10.417 54.166,10.417Z" style="fill:#fff;fill-rule:nonzero;"/><path d="M881.667,432.5c-22.084,-11.667 -33.334,-22.083 -33.334,-35.833c0,-17.5 15.834,-28.75 40.417,-28.75c28.75,-0 54.167,11.666 54.167,11.666l20,-61.25c-0,0 -18.334,-14.166 -72.5,-14.166c-75.417,-0 -127.917,43.333 -127.917,104.166c-0,34.584 24.583,60.834 57.083,79.584c26.667,14.583 35.834,25.416 35.834,41.25c-0,16.25 -13.334,29.583 -37.917,29.583c-36.25,0 -70.833,-18.75 -70.833,-18.75l-21.25,61.25c-0,0 31.666,21.25 85,21.25c77.5,0 133.75,-38.333 133.75,-107.083c-0.834,-37.5 -28.75,-63.334 -62.5,-82.917Zm309.166,-129.167c-38.333,0 -68.333,18.334 -91.25,45.834l-0.833,-0.417l33.333,-173.333l-86.25,-0l-84.166,441.666l86.25,0l28.75,-150.833c11.25,-57.083 40.833,-92.5 68.333,-92.5c19.583,-0 27.083,13.333 27.083,32.083c0,11.667 -0.833,26.667 -3.75,38.334l-32.5,172.916l86.25,0l33.75,-178.333c3.75,-18.75 6.25,-41.25 6.25,-56.667c-0.416,-49.583 -25.833,-78.75 -71.25,-78.75Zm266.25,0c-104.166,0 -172.916,93.75 -172.916,198.334c-0,66.666 41.25,120.833 118.75,120.833c102.083,0 170.833,-91.25 170.833,-198.333c0.417,-62.084 -35.417,-120.834 -116.667,-120.834Zm-42.5,253.334c-29.583,-0 -41.666,-25 -41.666,-56.667c-0,-49.583 25.416,-130 72.5,-130c30.416,-0 40.833,26.667 40.833,52.083c-0,52.917 -26.25,134.584 -71.667,134.584Zm380.417,-253.334c-58.333,0 -91.25,51.667 -91.25,51.667l-0.833,-0l5,-46.25l-76.667,-0c-3.75,31.25 -10.833,79.167 -17.5,114.583l-59.583,316.25l86.25,0l24.166,-127.916l2.084,-0c-0,-0 17.916,11.25 50.416,11.25c101.667,-0 167.917,-104.167 167.917,-209.167c-0.417,-58.333 -26.667,-110.417 -90,-110.417Zm-82.5,254.167c-22.5,-0 -35.833,-12.917 -35.833,-12.917l14.166,-80.416c10,-54.167 38.334,-89.584 68.334,-89.584c26.666,0 34.583,24.584 34.583,47.5c0.417,55.834 -32.917,135.417 -81.25,135.417Zm295.417,-377.917c-27.5,0 -49.584,22.084 -49.584,50c0,25.417 16.25,43.334 40.834,43.334l0.833,-0c27.083,-0 50,-18.334 50.417,-50c0.416,-25.417 -16.667,-43.334 -42.5,-43.334Zm-120.834,437.084l86.25,-0l58.334,-306.667l-86.667,-0m306.667,-0.417l-60,0l2.916,-14.166c5,-29.584 22.5,-55.417 51.667,-55.417c15.417,-0 27.5,4.583 27.5,4.583l16.667,-67.916c-0,-0 -14.584,-7.5 -47.084,-7.5c-30.416,-0 -61.25,8.75 -84.583,28.75c-29.583,25 -43.333,61.25 -50,97.916l-2.5,14.167l-40.417,-0l-12.916,65.417l40.416,-0l-45.833,241.666l86.25,0l45.833,-241.666l59.584,-0l12.5,-65.834Zm207.916,0.417c0,-0 -54.166,136.25 -77.916,210.833l-0.834,0c-1.666,-24.166 -21.25,-210.833 -21.25,-210.833l-90.833,-0l52.083,280.833c0.834,6.25 0.417,10 -2.083,14.167c-10,19.583 -27.083,38.333 -47.083,52.083c-16.25,11.667 -34.584,19.584 -49.167,24.584l24.167,73.333c17.5,-3.75 54.166,-18.333 84.583,-47.083c39.167,-36.667 75.833,-93.75 113.333,-171.25l105.417,-227.084l-90.417,0l0,0.417Z" style="fill:#fff;fill-rule:nonzero;"/></svg>