<svg class= "eyebrow-icon" width="100%" height="100%" viewBox="0 0 625 625" version="1.1" xmlns="http://www.w3.org/2000/svg" xmlns:xlink="http://www.w3.org/1999/xlink" xml:space="preserve" xmlns:serif="http://www.serif.com/" style="fill-rule:evenodd;clip-rule:evenodd;stroke-linejoin:round;stroke-miterlimit:2;"><path d="M422.195,481.791l-0.224,0.221l-0,-0.221l-18.217,5.709c-3.756,1.198 -7.662,1.803 -11.606,1.803l-159.437,-0c-3.944,-0 -7.85,-0.605 -11.606,-1.803l-18.216,-5.709l0,0.221l-0.226,-0.221l-127.775,124.204c-7.061,6.873 -2.179,18.892 7.7,18.892l98.517,-0.038c2.779,0 5.483,-1.052 7.549,-3.005l49.465,-39.474c2.066,-1.949 4.732,-3.001 7.549,-3.001l133.523,0c2.779,0 5.483,1.052 7.549,3.001l49.465,39.474c2.066,1.953 4.732,3.005 7.549,3.005l98.517,0.038c9.879,-0 14.762,-12.019 7.7,-18.892l-127.776,-124.204Z" style="fill:#ff5000;fill-rule:nonzero;"/><path d="M202.663,143.138l0.226,-0.264l0,0.264l18.216,-5.747c3.756,-1.165 7.662,-1.765 11.606,-1.765l159.437,-0c3.944,-0 7.85,0.6 11.606,1.765l18.217,5.747l-0,-0.264l0.224,0.264l127.776,-124.208c7.062,-6.911 2.179,-18.93 -7.7,-18.93l-98.517,0.038c-2.817,-0 -5.483,1.089 -7.549,3.004l-49.465,39.513c-2.066,1.915 -4.77,2.967 -7.549,2.967l-133.523,-0c-2.817,-0 -5.483,-1.052 -7.549,-2.967l-49.465,-39.513c-2.066,-1.915 -4.77,-3.004 -7.549,-3.004l-98.517,-0.038c-9.879,-0 -14.761,12.019 -7.7,18.93l127.775,124.208Z" style="fill:#ff5000;fill-rule:nonzero;"/><path d="M142.873,421.99l0.226,-0l-5.709,-18.216c-1.201,-3.756 -1.803,-7.663 -1.803,-11.606l0,-159.438c0,-3.944 0.602,-7.85 1.803,-11.606l5.709,-18.216l-0.226,0l0.226,-0.225l-124.208,-127.776c-6.872,-7.061 -18.891,-2.178 -18.891,7.7l0.038,98.517c-0,2.817 1.05,5.484 2.966,7.549l39.512,49.466c1.916,2.065 3.005,4.77 3.005,7.549l-0,133.522c-0,2.817 -1.089,5.484 -3.005,7.549l-39.512,49.466c-1.916,2.065 -2.966,4.769 -2.966,7.549l-0.038,98.517c0,9.916 12.019,14.764 18.891,7.7l124.208,-127.776l-0.226,-0.225Z" style="fill:#ff5000;fill-rule:nonzero;"/><path d="M621.855,436.225l-39.512,-49.466c-1.916,-2.065 -2.967,-4.732 -2.967,-7.549l0,-133.522c0,-2.779 1.051,-5.484 2.967,-7.549l39.512,-49.466c1.915,-2.065 3.005,-4.732 3.005,-7.549l-0,-98.517c-0,-9.878 -11.981,-14.761 -18.893,-7.7l-124.207,127.776l0.225,0.225l-0.225,0l5.746,18.216c1.165,3.756 1.766,7.662 1.766,11.606l-0,159.438c-0,3.943 -0.601,7.85 -1.766,11.606l-5.746,18.216l0.225,-0l-0.225,0.225l124.207,127.776c6.912,7.064 18.893,2.216 18.893,-7.7l-0,-98.517c-0,-2.78 -1.09,-5.484 -3.005,-7.549Z" style="fill:#ff5000;fill-rule:nonzero;"/></svg>