<svg xmlns="http://www.w3.org/2000/svg" viewBox="0 0 64 64"><title>37_Brain</title><g id="_37_Brain" data-name="37_Brain"><path d="M54.6667,48.6667A1.9873,1.9873,0,0,0,52.8018,50H50.2083a6.0425,6.0425,0,0,0-4.2422,1.7578l-2.2083,2.2083a4.7,4.7,0,0,1-3.3,1.3672h-5.125v-4H40A.6667.6667,0,1,0,40,50H35.3333V46h6.8018a2,2,0,1,0,0-1.3333H35.3333v-4H50.1351a2,2,0,1,0,0-1.3334H35.3333v-4h6.8018A1.9879,1.9879,0,0,0,46,34.6667a.6667.6667,0,1,0-1.3333,0A.6667.6667,0,1,1,44,34a.6667.6667,0,1,0,0-1.3333A1.9873,1.9873,0,0,0,42.1351,34H35.3333V30h8.8959a3.3519,3.3519,0,0,0,2.3567-.9766l4.5521-4.552-.0592-.0593A1.9456,1.9456,0,0,0,52,24.6667a2,2,0,1,0-2-2,1.9457,1.9457,0,0,0,.2541.9207l-.0588-.0588-4.5521,4.5521a2.0141,2.0141,0,0,1-1.414.586H35.3333v-4h10a.6667.6667,0,1,0,0-1.3334h-10v-4h6.8018a2,2,0,1,0,0-1.3333H35.3333V14h4.1351a2,2,0,1,0,0-1.3333H35.3333v-4h5.125a4.7,4.7,0,0,1,3.3,1.3672l2.2083,2.2083A6.0425,6.0425,0,0,0,50.2083,14h2.5935a2,2,0,1,0,0-1.3333H50.2083A4.7,4.7,0,0,1,46.9089,11.3L44.7005,9.0911a6.0427,6.0427,0,0,0-4.2422-1.7578H35.2658a5.9811,5.9811,0,0,0-11.13-2.3346.6674.6674,0,0,0,1.1563.6667A4.6672,4.6672,0,0,1,34,8V56a4.6667,4.6667,0,1,1-9.3333,0A.6672.6672,0,0,0,24,55.3333a7.2647,7.2647,0,0,1-2.4427-.4179.6676.6676,0,0,0-.4479,1.2578,8.622,8.622,0,0,0,2.2578.4713,5.9835,5.9835,0,0,0,11.8986.0222h5.1925a6.0427,6.0427,0,0,0,4.2422-1.7578l2.2084-2.2084a4.7,4.7,0,0,1,3.2994-1.3672h2.5935a1.9914,1.9914,0,1,0,1.8649-2.6666ZM44,44.6667a.6667.6667,0,1,1-.6667.6666A.6679.6679,0,0,1,44,44.6667Zm8-5.3334A.6667.6667,0,1,1,51.3333,40,.668.668,0,0,1,52,39.3333ZM52,22a.6667.6667,0,1,1-.6667.6667A.668.668,0,0,1,52,22Zm-8-4a.6667.6667,0,1,1-.6667.6667A.668.668,0,0,1,44,18Zm-2.6667-5.3333a.6667.6667,0,1,1-.6666.6666A.6679.6679,0,0,1,41.3333,12.6667Zm13.3334,0A.6667.6667,0,1,1,54,13.3333.6678.6678,0,0,1,54.6667,12.6667Zm0,38.6666a.6667.6667,0,1,1,.6666-.6666A.6679.6679,0,0,1,54.6667,51.3333Z"/><path d="M16.6667,48A.6672.6672,0,0,0,16,47.3333a4.6723,4.6723,0,0,1-4.6667-4.6666,4.6116,4.6116,0,0,1,.2943-1.5756.6642.6642,0,0,0-.2083-.7434,7.2528,7.2528,0,0,1,1.0651-12.0756.67.67,0,0,0,.3359-.483.66.66,0,0,0-.18-.5625A4.6577,4.6577,0,0,1,16,19.3333a1.7459,1.7459,0,0,1,.2344.0235l.2083.0247a.69.69,0,0,0,.5912-.2565.6712.6712,0,0,0,.0989-.6354A7.1414,7.1414,0,0,1,16.6667,16,7.3415,7.3415,0,0,1,24,8.6667a.6667.6667,0,0,0,0-1.3334A8.6768,8.6768,0,0,0,15.3333,16a8.223,8.223,0,0,0,.2578,2.0143,5.99,5.99,0,0,0-4.4375,9.51,8.574,8.574,0,0,0-.9244,13.56A5.7032,5.7032,0,0,0,10,42.6667a6.0092,6.0092,0,0,0,5.3568,5.9661A8.6843,8.6843,0,0,0,18.2214,54.46a.6676.6676,0,0,0,.8906-.9948A7.3347,7.3347,0,0,1,16.6667,48Z"/><path d="M29.3333,12.6667a4.68,4.68,0,0,1-4.0416-2.3321.6674.6674,0,0,0-1.1563.6667A6.0226,6.0226,0,0,0,29.3333,14a.6667.6667,0,1,0,0-1.3333Z"/><path d="M27.3333,29.3346a.6667.6667,0,0,0-1.3333,0A4.6667,4.6667,0,1,1,17.2917,27a.6674.6674,0,0,0-1.1563-.6667,5.9784,5.9784,0,0,0,4.4712,8.9279A4.6579,4.6579,0,0,1,16,39.3346a.6667.6667,0,0,0,0,1.3334,5.9878,5.9878,0,0,0,5.9386-5.3946A5.9877,5.9877,0,0,0,27.3333,29.3346Z"/><path d="M29.3333,20.6667a5.9313,5.9313,0,0,0-2.0293.3777,5.9935,5.9935,0,0,0-5.9707-5.7111.6667.6667,0,0,0,0,1.3334A4.6723,4.6723,0,0,1,26,21.3333a.6209.6209,0,0,0,.1183.285,5.9886,5.9886,0,0,0-2.785,5.0484.6667.6667,0,0,0,1.3334,0A4.6723,4.6723,0,0,1,29.3333,22a.6667.6667,0,1,0,0-1.3333Z"/><path d="M26.3333,45.9948a.6661.6661,0,0,0,.3334,1.2435.6543.6543,0,0,0,.3333-.09,6,6,0,0,0,0-10.3919.6662.6662,0,1,0-.6667,1.1537,4.6681,4.6681,0,0,1,0,8.0846Z"/><path d="M21.3333,48.6667A4.6723,4.6723,0,0,1,26,53.3333a.6667.6667,0,1,0,1.3333,0,6.0074,6.0074,0,0,0-6-6,.6667.6667,0,0,0,0,1.3334Z"/></g></svg>