<svg class="benefit-icon" width="100%" height="100%" viewBox="0 0 200 201" version="1.1" xmlns="http://www.w3.org/2000/svg" xmlns:xlink="http://www.w3.org/1999/xlink" xml:space="preserve" xmlns:serif="http://www.serif.com/" style="fill-rule:evenodd;clip-rule:evenodd;stroke-linejoin:round;stroke-miterlimit:2;"><path d="M124.6,188.508c7.896,-8.121 14.5,-20.041 19.225,-34.566c11.025,3.308 18.025,7.25 21.721,9.733c-11.079,11.621 -25.142,20.312 -40.946,24.833Zm-90.813,-24.829c3.692,-2.487 10.688,-6.421 21.713,-9.729c4.717,14.517 11.321,26.437 19.216,34.55c-15.795,-4.513 -29.858,-13.204 -40.929,-24.821Zm40.929,-151.837c-7.883,8.104 -14.483,20.012 -19.204,34.504c-10.996,-3.304 -17.987,-7.225 -21.695,-9.717c11.07,-11.596 25.116,-20.271 40.899,-24.787Zm90.821,24.82c-3.683,2.5 -10.65,6.446 -21.712,9.75c-4.725,-14.525 -11.329,-26.458 -19.225,-34.57c15.804,4.516 29.862,13.208 40.937,24.82Zm-13.85,59.317c-0.312,-15.021 -2.258,-29.083 -5.529,-41.575c12.758,-3.8 20.721,-8.479 24.879,-11.425c11.659,14.679 18.942,33.017 19.842,53l-39.192,0Zm0,8.333l39.192,0c-0.887,19.988 -8.162,38.334 -19.812,53.021c-4.15,-2.946 -12.113,-7.633 -24.892,-11.441c3.258,-12.5 5.204,-26.563 5.512,-41.58Zm-47.854,35.567l0,-35.567l39.521,0c-0.321,14.138 -2.242,27.559 -5.383,39.463c-9.317,-2.117 -20.625,-3.621 -34.138,-3.896Zm0,51.692l0,-43.359c12.575,0.267 23.1,1.659 31.742,3.605c-7.213,21.775 -18.75,37.029 -31.742,39.754Zm-8.333,-43.359l-0,43.359c-12.996,-2.721 -24.538,-17.979 -31.754,-39.754c8.641,-1.938 19.175,-3.338 31.754,-3.605Zm-39.534,-43.9l39.534,0l-0,35.567c-13.517,0.275 -24.833,1.779 -34.146,3.896c-3.15,-11.896 -5.071,-25.325 -5.388,-39.463Zm-8.333,0c0.304,15.025 2.25,29.088 5.513,41.58c-12.775,3.816 -20.738,8.504 -24.884,11.45c-11.654,-14.688 -18.937,-33.034 -19.82,-53.03l39.191,0Zm0,-8.333l-39.191,0c0.895,-19.992 8.183,-38.329 19.85,-53.008c4.149,2.946 12.112,7.625 24.866,11.425c-3.262,12.5 -5.216,26.562 -5.525,41.583Zm47.867,-35.571l-0,35.571l-39.534,0c0.321,-14.142 2.246,-27.562 5.401,-39.467c9.312,2.117 20.621,3.621 34.133,3.896Zm-0,-51.633l-0,43.3c-12.571,-0.267 -23.096,-1.658 -31.738,-3.604c7.221,-21.746 18.75,-36.979 31.738,-39.696Zm8.333,43.3l0,-43.292c12.988,2.717 24.521,17.967 31.738,39.738c-8.625,1.912 -19.138,3.296 -31.738,3.554Zm0,8.333c13.504,-0.266 24.809,-1.771 34.121,-3.887c3.15,11.896 5.075,25.316 5.4,39.458l-39.521,0l0,-35.571Zm-4.166,-60.408l-0.009,0c-54.95,0 -99.658,44.937 -99.658,100.171c-0,55.233 44.708,100.171 99.658,100.179l0.009,-0c54.95,-0 99.65,-44.938 99.65,-100.179c-0,-55.234 -44.7,-100.171 -99.65,-100.171Z" style="fill-rule:nonzero;"/></svg>